G04 #@! TF.GenerationSoftware,KiCad,Pcbnew,(5.0.1-3-g963ef8bb5)*
G04 #@! TF.CreationDate,2019-02-05T01:35:03+01:00*
G04 #@! TF.ProjectId,WordClockStripeConnector12h,576F7264436C6F636B53747269706543,V1.1*
G04 #@! TF.SameCoordinates,Original*
G04 #@! TF.FileFunction,Legend,Bot*
G04 #@! TF.FilePolarity,Positive*
%FSLAX46Y46*%
G04 Gerber Fmt 4.6, Leading zero omitted, Abs format (unit mm)*
G04 Created by KiCad (PCBNEW (5.0.1-3-g963ef8bb5)) date Tuesday, 05 February 2019 at 01:35:03*
%MOMM*%
%LPD*%
G01*
G04 APERTURE LIST*
%ADD10C,0.200000*%
%ADD11C,0.150000*%
G04 APERTURE END LIST*
D10*
X82000000Y-370000000D02*
X90000000Y-370000000D01*
X82000000Y-60000000D02*
X90000000Y-60000000D01*
X92000000Y-370000000D02*
X100000000Y-370000000D01*
X92000000Y-60000000D02*
X100000000Y-60000000D01*
G04 #@! TO.C,J14*
D11*
X86647619Y-368452380D02*
X86647619Y-369166666D01*
X86685714Y-369309523D01*
X86761904Y-369404761D01*
X86876190Y-369452380D01*
X86952380Y-369452380D01*
X85847619Y-369452380D02*
X86304761Y-369452380D01*
X86076190Y-369452380D02*
X86076190Y-368452380D01*
X86152380Y-368595238D01*
X86228571Y-368690476D01*
X86304761Y-368738095D01*
X85161904Y-368785714D02*
X85161904Y-369452380D01*
X85352380Y-368404761D02*
X85542857Y-369119047D01*
X85047619Y-369119047D01*
X89567849Y-371071428D02*
X88958325Y-371071428D01*
X89263087Y-371452380D02*
X89263087Y-370690476D01*
X88196420Y-370452380D02*
X88577373Y-370452380D01*
X88615468Y-370928571D01*
X88577373Y-370880952D01*
X88501182Y-370833333D01*
X88310706Y-370833333D01*
X88234516Y-370880952D01*
X88196420Y-370928571D01*
X88158325Y-371023809D01*
X88158325Y-371261904D01*
X88196420Y-371357142D01*
X88234516Y-371404761D01*
X88310706Y-371452380D01*
X88501182Y-371452380D01*
X88577373Y-371404761D01*
X88615468Y-371357142D01*
X87929754Y-370452380D02*
X87663087Y-371452380D01*
X87396420Y-370452380D01*
X86627849Y-371452380D02*
X86627849Y-370452380D01*
X86437373Y-370452380D01*
X86323087Y-370500000D01*
X86246897Y-370595238D01*
X86208801Y-370690476D01*
X86170706Y-370880952D01*
X86170706Y-371023809D01*
X86208801Y-371214285D01*
X86246897Y-371309523D01*
X86323087Y-371404761D01*
X86437373Y-371452380D01*
X86627849Y-371452380D01*
X85675468Y-370452380D02*
X85523087Y-370452380D01*
X85446897Y-370500000D01*
X85370706Y-370595238D01*
X85332611Y-370785714D01*
X85332611Y-371119047D01*
X85370706Y-371309523D01*
X85446897Y-371404761D01*
X85523087Y-371452380D01*
X85675468Y-371452380D01*
X85751658Y-371404761D01*
X85827849Y-371309523D01*
X85865944Y-371119047D01*
X85865944Y-370785714D01*
X85827849Y-370595238D01*
X85751658Y-370500000D01*
X85675468Y-370452380D01*
X84109523Y-370500000D02*
X84185714Y-370452380D01*
X84300000Y-370452380D01*
X84414285Y-370500000D01*
X84490476Y-370595238D01*
X84528571Y-370690476D01*
X84566666Y-370880952D01*
X84566666Y-371023809D01*
X84528571Y-371214285D01*
X84490476Y-371309523D01*
X84414285Y-371404761D01*
X84300000Y-371452380D01*
X84223809Y-371452380D01*
X84109523Y-371404761D01*
X84071428Y-371357142D01*
X84071428Y-371023809D01*
X84223809Y-371023809D01*
X83728571Y-371452380D02*
X83728571Y-370452380D01*
X83271428Y-371452380D01*
X83271428Y-370452380D01*
X82890476Y-371452380D02*
X82890476Y-370452380D01*
X82700000Y-370452380D01*
X82585714Y-370500000D01*
X82509523Y-370595238D01*
X82471428Y-370690476D01*
X82433333Y-370880952D01*
X82433333Y-371023809D01*
X82471428Y-371214285D01*
X82509523Y-371309523D01*
X82585714Y-371404761D01*
X82700000Y-371452380D01*
X82890476Y-371452380D01*
G04 #@! TO.C,J12*
X86647619Y-60452380D02*
X86647619Y-61166666D01*
X86685714Y-61309523D01*
X86761904Y-61404761D01*
X86876190Y-61452380D01*
X86952380Y-61452380D01*
X85847619Y-61452380D02*
X86304761Y-61452380D01*
X86076190Y-61452380D02*
X86076190Y-60452380D01*
X86152380Y-60595238D01*
X86228571Y-60690476D01*
X86304761Y-60738095D01*
X85542857Y-60547619D02*
X85504761Y-60500000D01*
X85428571Y-60452380D01*
X85238095Y-60452380D01*
X85161904Y-60500000D01*
X85123809Y-60547619D01*
X85085714Y-60642857D01*
X85085714Y-60738095D01*
X85123809Y-60880952D01*
X85580952Y-61452380D01*
X85085714Y-61452380D01*
X89528571Y-59135428D02*
X88919047Y-59135428D01*
X89223809Y-59516380D02*
X89223809Y-58754476D01*
X88157142Y-58516380D02*
X88538095Y-58516380D01*
X88576190Y-58992571D01*
X88538095Y-58944952D01*
X88461904Y-58897333D01*
X88271428Y-58897333D01*
X88195238Y-58944952D01*
X88157142Y-58992571D01*
X88119047Y-59087809D01*
X88119047Y-59325904D01*
X88157142Y-59421142D01*
X88195238Y-59468761D01*
X88271428Y-59516380D01*
X88461904Y-59516380D01*
X88538095Y-59468761D01*
X88576190Y-59421142D01*
X87890476Y-58516380D02*
X87623809Y-59516380D01*
X87357142Y-58516380D01*
X86399278Y-59516380D02*
X86399278Y-58516380D01*
X86208801Y-58516380D01*
X86094516Y-58564000D01*
X86018325Y-58659238D01*
X85980230Y-58754476D01*
X85942135Y-58944952D01*
X85942135Y-59087809D01*
X85980230Y-59278285D01*
X86018325Y-59373523D01*
X86094516Y-59468761D01*
X86208801Y-59516380D01*
X86399278Y-59516380D01*
X85599278Y-59516380D02*
X85599278Y-58516380D01*
X84068801Y-58564000D02*
X84144992Y-58516380D01*
X84259278Y-58516380D01*
X84373563Y-58564000D01*
X84449754Y-58659238D01*
X84487849Y-58754476D01*
X84525944Y-58944952D01*
X84525944Y-59087809D01*
X84487849Y-59278285D01*
X84449754Y-59373523D01*
X84373563Y-59468761D01*
X84259278Y-59516380D01*
X84183087Y-59516380D01*
X84068801Y-59468761D01*
X84030706Y-59421142D01*
X84030706Y-59087809D01*
X84183087Y-59087809D01*
X83687849Y-59516380D02*
X83687849Y-58516380D01*
X83230706Y-59516380D01*
X83230706Y-58516380D01*
X82849754Y-59516380D02*
X82849754Y-58516380D01*
X82659278Y-58516380D01*
X82544992Y-58564000D01*
X82468801Y-58659238D01*
X82430706Y-58754476D01*
X82392611Y-58944952D01*
X82392611Y-59087809D01*
X82430706Y-59278285D01*
X82468801Y-59373523D01*
X82544992Y-59468761D01*
X82659278Y-59516380D01*
X82849754Y-59516380D01*
G04 #@! TO.C,J24*
X96647619Y-368452380D02*
X96647619Y-369166666D01*
X96685714Y-369309523D01*
X96761904Y-369404761D01*
X96876190Y-369452380D01*
X96952380Y-369452380D01*
X96304761Y-368547619D02*
X96266666Y-368500000D01*
X96190476Y-368452380D01*
X96000000Y-368452380D01*
X95923809Y-368500000D01*
X95885714Y-368547619D01*
X95847619Y-368642857D01*
X95847619Y-368738095D01*
X95885714Y-368880952D01*
X96342857Y-369452380D01*
X95847619Y-369452380D01*
X95161904Y-368785714D02*
X95161904Y-369452380D01*
X95352380Y-368404761D02*
X95542857Y-369119047D01*
X95047619Y-369119047D01*
X94528571Y-371071428D02*
X93919047Y-371071428D01*
X94223809Y-371452380D02*
X94223809Y-370690476D01*
X93157142Y-370452380D02*
X93538095Y-370452380D01*
X93576190Y-370928571D01*
X93538095Y-370880952D01*
X93461904Y-370833333D01*
X93271428Y-370833333D01*
X93195238Y-370880952D01*
X93157142Y-370928571D01*
X93119047Y-371023809D01*
X93119047Y-371261904D01*
X93157142Y-371357142D01*
X93195238Y-371404761D01*
X93271428Y-371452380D01*
X93461904Y-371452380D01*
X93538095Y-371404761D01*
X93576190Y-371357142D01*
X92890476Y-370452380D02*
X92623809Y-371452380D01*
X92357142Y-370452380D01*
X99109523Y-370500000D02*
X99185714Y-370452380D01*
X99300000Y-370452380D01*
X99414285Y-370500000D01*
X99490476Y-370595238D01*
X99528571Y-370690476D01*
X99566666Y-370880952D01*
X99566666Y-371023809D01*
X99528571Y-371214285D01*
X99490476Y-371309523D01*
X99414285Y-371404761D01*
X99300000Y-371452380D01*
X99223809Y-371452380D01*
X99109523Y-371404761D01*
X99071428Y-371357142D01*
X99071428Y-371023809D01*
X99223809Y-371023809D01*
X98728571Y-371452380D02*
X98728571Y-370452380D01*
X98271428Y-371452380D01*
X98271428Y-370452380D01*
X97890476Y-371452380D02*
X97890476Y-370452380D01*
X97700000Y-370452380D01*
X97585714Y-370500000D01*
X97509523Y-370595238D01*
X97471428Y-370690476D01*
X97433333Y-370880952D01*
X97433333Y-371023809D01*
X97471428Y-371214285D01*
X97509523Y-371309523D01*
X97585714Y-371404761D01*
X97700000Y-371452380D01*
X97890476Y-371452380D01*
G04 #@! TO.C,J22*
X96647619Y-60452380D02*
X96647619Y-61166666D01*
X96685714Y-61309523D01*
X96761904Y-61404761D01*
X96876190Y-61452380D01*
X96952380Y-61452380D01*
X96304761Y-60547619D02*
X96266666Y-60500000D01*
X96190476Y-60452380D01*
X96000000Y-60452380D01*
X95923809Y-60500000D01*
X95885714Y-60547619D01*
X95847619Y-60642857D01*
X95847619Y-60738095D01*
X95885714Y-60880952D01*
X96342857Y-61452380D01*
X95847619Y-61452380D01*
X95542857Y-60547619D02*
X95504761Y-60500000D01*
X95428571Y-60452380D01*
X95238095Y-60452380D01*
X95161904Y-60500000D01*
X95123809Y-60547619D01*
X95085714Y-60642857D01*
X95085714Y-60738095D01*
X95123809Y-60880952D01*
X95580952Y-61452380D01*
X95085714Y-61452380D01*
X94528571Y-59135428D02*
X93919047Y-59135428D01*
X94223809Y-59516380D02*
X94223809Y-58754476D01*
X93157142Y-58516380D02*
X93538095Y-58516380D01*
X93576190Y-58992571D01*
X93538095Y-58944952D01*
X93461904Y-58897333D01*
X93271428Y-58897333D01*
X93195238Y-58944952D01*
X93157142Y-58992571D01*
X93119047Y-59087809D01*
X93119047Y-59325904D01*
X93157142Y-59421142D01*
X93195238Y-59468761D01*
X93271428Y-59516380D01*
X93461904Y-59516380D01*
X93538095Y-59468761D01*
X93576190Y-59421142D01*
X92890476Y-58516380D02*
X92623809Y-59516380D01*
X92357142Y-58516380D01*
X99149523Y-58564000D02*
X99225714Y-58516380D01*
X99340000Y-58516380D01*
X99454285Y-58564000D01*
X99530476Y-58659238D01*
X99568571Y-58754476D01*
X99606666Y-58944952D01*
X99606666Y-59087809D01*
X99568571Y-59278285D01*
X99530476Y-59373523D01*
X99454285Y-59468761D01*
X99340000Y-59516380D01*
X99263809Y-59516380D01*
X99149523Y-59468761D01*
X99111428Y-59421142D01*
X99111428Y-59087809D01*
X99263809Y-59087809D01*
X98768571Y-59516380D02*
X98768571Y-58516380D01*
X98311428Y-59516380D01*
X98311428Y-58516380D01*
X97930476Y-59516380D02*
X97930476Y-58516380D01*
X97740000Y-58516380D01*
X97625714Y-58564000D01*
X97549523Y-58659238D01*
X97511428Y-58754476D01*
X97473333Y-58944952D01*
X97473333Y-59087809D01*
X97511428Y-59278285D01*
X97549523Y-59373523D01*
X97625714Y-59468761D01*
X97740000Y-59516380D01*
X97930476Y-59516380D01*
G04 #@! TD*
M02*
