G04 #@! TF.GenerationSoftware,KiCad,Pcbnew,(5.0.1-3-g963ef8bb5)*
G04 #@! TF.CreationDate,2019-02-05T01:35:03+01:00*
G04 #@! TF.ProjectId,WordClockStripeConnector12h,576F7264436C6F636B53747269706543,V1.1*
G04 #@! TF.SameCoordinates,Original*
G04 #@! TF.FileFunction,Copper,L2,Bot,Signal*
G04 #@! TF.FilePolarity,Positive*
%FSLAX46Y46*%
G04 Gerber Fmt 4.6, Leading zero omitted, Abs format (unit mm)*
G04 Created by KiCad (PCBNEW (5.0.1-3-g963ef8bb5)) date Tuesday, 05 February 2019 at 01:35:03*
%MOMM*%
%LPD*%
G01*
G04 APERTURE LIST*
G04 #@! TA.AperFunction,ComponentPad*
%ADD10O,1.800000X5.000000*%
G04 #@! TD*
G04 #@! TA.AperFunction,ViaPad*
%ADD11C,0.501000*%
G04 #@! TD*
G04 #@! TA.AperFunction,ViaPad*
%ADD12C,0.410000*%
G04 #@! TD*
G04 #@! TA.AperFunction,ViaPad*
%ADD13C,0.800000*%
G04 #@! TD*
G04 #@! TA.AperFunction,Conductor*
%ADD14C,0.800000*%
G04 #@! TD*
G04 #@! TA.AperFunction,Conductor*
%ADD15C,0.250000*%
G04 #@! TD*
G04 #@! TA.AperFunction,Conductor*
%ADD16C,0.200000*%
G04 #@! TD*
G04 APERTURE END LIST*
D10*
G04 #@! TO.P,J14,3*
G04 #@! TO.N,Net-(J101-Pad3)*
X88540000Y-374500000D03*
G04 #@! TO.P,J14,2*
G04 #@! TO.N,Net-(J110-Pad2)*
X86000000Y-374500000D03*
G04 #@! TO.P,J14,1*
G04 #@! TO.N,Net-(J101-Pad1)*
X83460000Y-374500000D03*
G04 #@! TD*
G04 #@! TO.P,J12,3*
G04 #@! TO.N,Net-(J101-Pad3)*
X88540000Y-55000000D03*
G04 #@! TO.P,J12,2*
G04 #@! TO.N,Net-(J101-Pad2)*
X86000000Y-55000000D03*
G04 #@! TO.P,J12,1*
G04 #@! TO.N,Net-(J101-Pad1)*
X83460000Y-55000000D03*
G04 #@! TD*
G04 #@! TO.P,J24,2*
G04 #@! TO.N,Net-(J201-Pad3)*
X93420000Y-374500000D03*
G04 #@! TO.P,J24,1*
G04 #@! TO.N,Net-(J201-Pad1)*
X98500000Y-374500000D03*
G04 #@! TD*
G04 #@! TO.P,J22,2*
G04 #@! TO.N,Net-(J201-Pad3)*
X93460000Y-55000000D03*
G04 #@! TO.P,J22,1*
G04 #@! TO.N,Net-(J201-Pad1)*
X98540000Y-55000000D03*
G04 #@! TD*
D11*
G04 #@! TO.N,*
X90200000Y-55000000D03*
X90200000Y-56000000D03*
X90200000Y-57000000D03*
X90200000Y-58000000D03*
X90200000Y-59000000D03*
X90200000Y-60000000D03*
X91800000Y-60000000D03*
X91800000Y-58000000D03*
X91800000Y-57000000D03*
X91800000Y-56000000D03*
X91800000Y-59000000D03*
X91800000Y-55000000D03*
X91800000Y-374000000D03*
X90200000Y-371000000D03*
X91800000Y-372000000D03*
X91800000Y-375000000D03*
X90200000Y-372000000D03*
X91800000Y-370000000D03*
X90200000Y-375000000D03*
X90200000Y-374000000D03*
X90200000Y-373000000D03*
X90200000Y-370000000D03*
X91800000Y-373000000D03*
X91800000Y-371000000D03*
X90200000Y-323500000D03*
X90200000Y-320500000D03*
X90200000Y-325500000D03*
X90200000Y-324500000D03*
X90200000Y-322500000D03*
X91800000Y-320500000D03*
X90200000Y-321500000D03*
X91800000Y-323500000D03*
X91800000Y-322500000D03*
X91800000Y-324500000D03*
X91800000Y-321500000D03*
X91800000Y-325500000D03*
X90200000Y-263500000D03*
X91800000Y-262500000D03*
X91800000Y-258500000D03*
X91800000Y-263500000D03*
X90200000Y-261500000D03*
X91800000Y-261500000D03*
X90200000Y-260500000D03*
X90200000Y-258500000D03*
X91800000Y-259500000D03*
X90200000Y-262500000D03*
X90200000Y-259500000D03*
X91800000Y-260500000D03*
X90200000Y-104500000D03*
X91800000Y-108500000D03*
X90200000Y-108500000D03*
X91800000Y-104500000D03*
X90200000Y-106500000D03*
X91800000Y-107500000D03*
X90200000Y-107500000D03*
X90200000Y-105500000D03*
X91800000Y-105500000D03*
X91800000Y-103500000D03*
X91800000Y-106500000D03*
X90200000Y-103500000D03*
X90200000Y-165500000D03*
X91800000Y-165500000D03*
X91800000Y-166500000D03*
X90200000Y-166500000D03*
X90200000Y-167500000D03*
X91800000Y-167500000D03*
X91800000Y-168500000D03*
X90200000Y-168500000D03*
X90200000Y-169500000D03*
X91800000Y-169500000D03*
X91800000Y-170500000D03*
X90200000Y-170500000D03*
X91800000Y-212000000D03*
X91800000Y-213000000D03*
X91800000Y-214000000D03*
X91800000Y-215000000D03*
X91800000Y-216000000D03*
X91800000Y-217000000D03*
X90200000Y-217000000D03*
X90200000Y-216000000D03*
X90200000Y-215000000D03*
X90200000Y-214000000D03*
X90200000Y-213000000D03*
X90200000Y-212000000D03*
D12*
G04 #@! TO.N,Net-(J101-Pad3)*
X87500000Y-370000000D03*
X87500000Y-60000000D03*
D13*
G04 #@! TO.N,Net-(J101-Pad2)*
X86000000Y-64500000D03*
X86500000Y-75000000D03*
G04 #@! TO.N,Net-(J101-Pad1)*
X83460000Y-63000000D03*
X85000000Y-196460000D03*
X85000000Y-232540000D03*
X85000000Y-258460000D03*
X85000000Y-320460000D03*
X85000000Y-294540000D03*
X85000000Y-356540000D03*
X85000000Y-72460000D03*
X85000000Y-134460000D03*
X85000000Y-108540000D03*
X85000000Y-256750000D03*
X83500000Y-66500000D03*
X83460000Y-367000000D03*
X83460000Y-365500000D03*
X85000000Y-170540000D03*
D12*
X84500000Y-370000000D03*
X84500000Y-60000000D03*
D13*
X85000000Y-234250000D03*
X85000000Y-70750000D03*
X85000000Y-110250000D03*
X85000000Y-318750000D03*
X83460000Y-64500000D03*
X85000000Y-132750000D03*
X85000000Y-172250000D03*
X85000000Y-194750000D03*
X85000000Y-296250000D03*
X83460000Y-363500000D03*
X85000000Y-358250000D03*
G04 #@! TO.N,Net-(J110-Pad2)*
X87000000Y-354000000D03*
X86000000Y-365500000D03*
G04 #@! TO.N,Net-(J201-Pad1)*
X97000000Y-358250000D03*
X97000000Y-356500000D03*
X98500000Y-365500000D03*
X97000000Y-320500000D03*
X97000000Y-294500000D03*
X97000000Y-258500000D03*
X97000000Y-232500000D03*
X97000000Y-196500000D03*
X97000000Y-170500000D03*
X97000000Y-108500000D03*
X97000000Y-72500000D03*
X98500000Y-62000000D03*
X98500000Y-64250000D03*
X97000000Y-318750000D03*
X97000000Y-256750000D03*
X97000000Y-234250000D03*
X97000000Y-194750000D03*
X97000000Y-172250000D03*
X97000000Y-110250000D03*
X97000000Y-132750000D03*
X97000000Y-70750000D03*
X98500000Y-66500000D03*
X97000000Y-134460000D03*
X98500000Y-367000000D03*
X98500000Y-363500000D03*
D12*
X97500000Y-370000000D03*
X97500000Y-60000000D03*
D13*
X97000000Y-296250000D03*
D12*
G04 #@! TO.N,Net-(J201-Pad3)*
X94500000Y-370000000D03*
X94500000Y-60000000D03*
D13*
G04 #@! TO.N,Net-(J102-Pad2)*
X86500000Y-137000000D03*
X86500000Y-106000000D03*
G04 #@! TO.N,Net-(J104-Pad2)*
X86500000Y-168000000D03*
X86500000Y-199000000D03*
G04 #@! TO.N,Net-(J106-Pad2)*
X86500000Y-230000000D03*
X86500000Y-261000000D03*
G04 #@! TO.N,Net-(J108-Pad2)*
X87000000Y-292000000D03*
X87000000Y-323000000D03*
G04 #@! TO.N,Net-(J201-Pad2)*
X95500000Y-75000000D03*
X95500000Y-106000000D03*
G04 #@! TO.N,Net-(J203-Pad2)*
X95500000Y-137000000D03*
X95500000Y-168000000D03*
G04 #@! TO.N,Net-(J205-Pad2)*
X95500000Y-199000000D03*
X95500000Y-230000000D03*
G04 #@! TO.N,Net-(J207-Pad2)*
X95500000Y-261000000D03*
X95500000Y-292000000D03*
G04 #@! TO.N,Net-(J209-Pad2)*
X95500000Y-323000000D03*
X95500000Y-354000000D03*
G04 #@! TD*
D14*
G04 #@! TO.N,Net-(J101-Pad2)*
X86500000Y-65000000D02*
X86000000Y-64500000D01*
X86500000Y-75000000D02*
X86500000Y-65000000D01*
G04 #@! TO.N,Net-(J110-Pad2)*
X86000000Y-365500000D02*
X86000000Y-374500000D01*
X87000000Y-354000000D02*
X87000000Y-364500000D01*
X87000000Y-364500000D02*
X86000000Y-365500000D01*
D15*
G04 #@! TO.N,Net-(J102-Pad2)*
X86500000Y-137000000D02*
X86500000Y-137000000D01*
D14*
X86500000Y-106000000D02*
X86500000Y-137000000D01*
G04 #@! TO.N,Net-(J104-Pad2)*
X86500000Y-168000000D02*
X86500000Y-199000000D01*
G04 #@! TO.N,Net-(J106-Pad2)*
X86500000Y-230000000D02*
X86500000Y-261000000D01*
G04 #@! TO.N,Net-(J108-Pad2)*
X87000000Y-323000000D02*
X87000000Y-292000000D01*
G04 #@! TO.N,Net-(J201-Pad2)*
X95500000Y-106000000D02*
X95500000Y-75000000D01*
G04 #@! TO.N,Net-(J203-Pad2)*
X95500000Y-168000000D02*
X95500000Y-137000000D01*
G04 #@! TO.N,Net-(J205-Pad2)*
X95500000Y-230000000D02*
X95500000Y-199000000D01*
G04 #@! TO.N,Net-(J207-Pad2)*
X95500000Y-292000000D02*
X95500000Y-261000000D01*
G04 #@! TO.N,Net-(J209-Pad2)*
X95500000Y-354000000D02*
X95500000Y-323000000D01*
G04 #@! TD*
D16*
G04 #@! TO.N,Net-(J201-Pad1)*
G36*
X97453762Y-52625348D02*
X97240000Y-53100000D01*
X97240000Y-54700000D01*
X98240000Y-54700000D01*
X98240000Y-54680000D01*
X98840000Y-54680000D01*
X98840000Y-54700000D01*
X98860000Y-54700000D01*
X98860000Y-55300000D01*
X98840000Y-55300000D01*
X98840000Y-57761895D01*
X99034182Y-57802408D01*
X99247107Y-57731370D01*
X99595000Y-57404043D01*
X99595001Y-372144806D01*
X99586238Y-372125348D01*
X99207107Y-371768630D01*
X98994182Y-371697592D01*
X98800000Y-371738105D01*
X98800000Y-374200000D01*
X98820000Y-374200000D01*
X98820000Y-374800000D01*
X98800000Y-374800000D01*
X98800000Y-374820000D01*
X98200000Y-374820000D01*
X98200000Y-374800000D01*
X97200000Y-374800000D01*
X97200000Y-376400000D01*
X97413762Y-376874652D01*
X97647955Y-377095000D01*
X94270814Y-377095000D01*
X94357247Y-377037247D01*
X94644573Y-376607235D01*
X94720000Y-376228037D01*
X94720000Y-372771963D01*
X94685795Y-372600000D01*
X97200000Y-372600000D01*
X97200000Y-374200000D01*
X98200000Y-374200000D01*
X98200000Y-371738105D01*
X98005818Y-371697592D01*
X97792893Y-371768630D01*
X97413762Y-372125348D01*
X97200000Y-372600000D01*
X94685795Y-372600000D01*
X94644573Y-372392765D01*
X94357247Y-371962753D01*
X93927234Y-371675427D01*
X93420000Y-371574532D01*
X92912765Y-371675427D01*
X92482753Y-371962753D01*
X92450500Y-372011023D01*
X92450500Y-371870608D01*
X92450000Y-371869401D01*
X92450000Y-371130599D01*
X92450500Y-371129392D01*
X92450500Y-370870608D01*
X92450000Y-370869401D01*
X92450000Y-370130599D01*
X92450500Y-370129392D01*
X92450500Y-369879658D01*
X93895000Y-369879658D01*
X93895000Y-370120342D01*
X93987105Y-370342705D01*
X94157295Y-370512895D01*
X94379658Y-370605000D01*
X94620342Y-370605000D01*
X94842705Y-370512895D01*
X95012895Y-370342705D01*
X95105000Y-370120342D01*
X95105000Y-369879658D01*
X95012895Y-369657295D01*
X94842705Y-369487105D01*
X94620342Y-369395000D01*
X94379658Y-369395000D01*
X94157295Y-369487105D01*
X93987105Y-369657295D01*
X93895000Y-369879658D01*
X92450500Y-369879658D01*
X92450500Y-369870608D01*
X92450000Y-369869401D01*
X92450000Y-325630599D01*
X92450500Y-325629392D01*
X92450500Y-325370608D01*
X92450000Y-325369401D01*
X92450000Y-324630599D01*
X92450500Y-324629392D01*
X92450500Y-324370608D01*
X92450000Y-324369401D01*
X92450000Y-323630599D01*
X92450500Y-323629392D01*
X92450500Y-323370608D01*
X92450000Y-323369401D01*
X92450000Y-322840870D01*
X94700000Y-322840870D01*
X94700000Y-323159130D01*
X94700001Y-323159132D01*
X94700000Y-353840870D01*
X94700000Y-354159130D01*
X94730745Y-354233356D01*
X94746417Y-354312143D01*
X94791047Y-354378936D01*
X94821793Y-354453164D01*
X94878604Y-354509975D01*
X94923233Y-354576767D01*
X94990025Y-354621396D01*
X95046836Y-354678207D01*
X95121062Y-354708952D01*
X95187856Y-354753583D01*
X95266645Y-354769255D01*
X95340870Y-354800000D01*
X95421211Y-354800000D01*
X95500000Y-354815672D01*
X95578789Y-354800000D01*
X95659130Y-354800000D01*
X95733355Y-354769255D01*
X95812143Y-354753583D01*
X95878936Y-354708953D01*
X95953164Y-354678207D01*
X96009975Y-354621396D01*
X96076767Y-354576767D01*
X96121396Y-354509975D01*
X96178207Y-354453164D01*
X96208952Y-354378938D01*
X96253583Y-354312144D01*
X96269255Y-354233355D01*
X96300000Y-354159130D01*
X96300000Y-322840870D01*
X96269255Y-322766645D01*
X96253583Y-322687856D01*
X96208952Y-322621062D01*
X96178207Y-322546836D01*
X96121396Y-322490025D01*
X96076767Y-322423233D01*
X96009975Y-322378604D01*
X95953164Y-322321793D01*
X95878938Y-322291048D01*
X95812144Y-322246417D01*
X95733355Y-322230745D01*
X95659130Y-322200000D01*
X95578789Y-322200000D01*
X95500000Y-322184328D01*
X95421211Y-322200000D01*
X95340870Y-322200000D01*
X95266645Y-322230745D01*
X95187857Y-322246417D01*
X95121064Y-322291047D01*
X95046836Y-322321793D01*
X94990023Y-322378606D01*
X94923234Y-322423233D01*
X94878607Y-322490022D01*
X94821793Y-322546836D01*
X94791046Y-322621066D01*
X94746418Y-322687856D01*
X94730747Y-322766641D01*
X94700000Y-322840870D01*
X92450000Y-322840870D01*
X92450000Y-322630599D01*
X92450500Y-322629392D01*
X92450500Y-322370608D01*
X92450000Y-322369401D01*
X92450000Y-321630599D01*
X92450500Y-321629392D01*
X92450500Y-321370608D01*
X92450000Y-321369401D01*
X92450000Y-320630599D01*
X92450500Y-320629392D01*
X92450500Y-320370608D01*
X92450000Y-320369401D01*
X92450000Y-263630599D01*
X92450500Y-263629392D01*
X92450500Y-263370608D01*
X92450000Y-263369401D01*
X92450000Y-262630599D01*
X92450500Y-262629392D01*
X92450500Y-262370608D01*
X92450000Y-262369401D01*
X92450000Y-261630599D01*
X92450500Y-261629392D01*
X92450500Y-261370608D01*
X92450000Y-261369401D01*
X92450000Y-260840870D01*
X94700000Y-260840870D01*
X94700000Y-261159130D01*
X94700001Y-261159132D01*
X94700000Y-291840870D01*
X94700000Y-292159130D01*
X94730745Y-292233356D01*
X94746417Y-292312143D01*
X94791047Y-292378936D01*
X94821793Y-292453164D01*
X94878604Y-292509975D01*
X94923233Y-292576767D01*
X94990025Y-292621396D01*
X95046836Y-292678207D01*
X95121062Y-292708952D01*
X95187856Y-292753583D01*
X95266645Y-292769255D01*
X95340870Y-292800000D01*
X95421211Y-292800000D01*
X95500000Y-292815672D01*
X95578789Y-292800000D01*
X95659130Y-292800000D01*
X95733355Y-292769255D01*
X95812143Y-292753583D01*
X95878936Y-292708953D01*
X95953164Y-292678207D01*
X96009975Y-292621396D01*
X96076767Y-292576767D01*
X96121396Y-292509975D01*
X96178207Y-292453164D01*
X96208952Y-292378938D01*
X96253583Y-292312144D01*
X96269255Y-292233355D01*
X96300000Y-292159130D01*
X96300000Y-260840870D01*
X96269255Y-260766645D01*
X96253583Y-260687856D01*
X96208952Y-260621062D01*
X96178207Y-260546836D01*
X96121396Y-260490025D01*
X96076767Y-260423233D01*
X96009975Y-260378604D01*
X95953164Y-260321793D01*
X95878938Y-260291048D01*
X95812144Y-260246417D01*
X95733355Y-260230745D01*
X95659130Y-260200000D01*
X95578789Y-260200000D01*
X95500000Y-260184328D01*
X95421211Y-260200000D01*
X95340870Y-260200000D01*
X95266645Y-260230745D01*
X95187857Y-260246417D01*
X95121064Y-260291047D01*
X95046836Y-260321793D01*
X94990023Y-260378606D01*
X94923234Y-260423233D01*
X94878607Y-260490022D01*
X94821793Y-260546836D01*
X94791046Y-260621066D01*
X94746418Y-260687856D01*
X94730747Y-260766641D01*
X94700000Y-260840870D01*
X92450000Y-260840870D01*
X92450000Y-260630599D01*
X92450500Y-260629392D01*
X92450500Y-260370608D01*
X92450000Y-260369401D01*
X92450000Y-259630599D01*
X92450500Y-259629392D01*
X92450500Y-259370608D01*
X92450000Y-259369401D01*
X92450000Y-258630599D01*
X92450500Y-258629392D01*
X92450500Y-258370608D01*
X92450000Y-258369401D01*
X92450000Y-217130599D01*
X92450500Y-217129392D01*
X92450500Y-216870608D01*
X92450000Y-216869401D01*
X92450000Y-216130599D01*
X92450500Y-216129392D01*
X92450500Y-215870608D01*
X92450000Y-215869401D01*
X92450000Y-215130599D01*
X92450500Y-215129392D01*
X92450500Y-214870608D01*
X92450000Y-214869401D01*
X92450000Y-214130599D01*
X92450500Y-214129392D01*
X92450500Y-213870608D01*
X92450000Y-213869401D01*
X92450000Y-213130599D01*
X92450500Y-213129392D01*
X92450500Y-212870608D01*
X92450000Y-212869401D01*
X92450000Y-212130599D01*
X92450500Y-212129392D01*
X92450500Y-211870608D01*
X92450000Y-211869401D01*
X92450000Y-198840870D01*
X94700000Y-198840870D01*
X94700000Y-199159130D01*
X94700001Y-199159132D01*
X94700000Y-229840870D01*
X94700000Y-230159130D01*
X94730745Y-230233356D01*
X94746417Y-230312143D01*
X94791047Y-230378936D01*
X94821793Y-230453164D01*
X94878604Y-230509975D01*
X94923233Y-230576767D01*
X94990025Y-230621396D01*
X95046836Y-230678207D01*
X95121062Y-230708952D01*
X95187856Y-230753583D01*
X95266645Y-230769255D01*
X95340870Y-230800000D01*
X95421211Y-230800000D01*
X95500000Y-230815672D01*
X95578789Y-230800000D01*
X95659130Y-230800000D01*
X95733355Y-230769255D01*
X95812143Y-230753583D01*
X95878936Y-230708953D01*
X95953164Y-230678207D01*
X96009975Y-230621396D01*
X96076767Y-230576767D01*
X96121396Y-230509975D01*
X96178207Y-230453164D01*
X96208952Y-230378938D01*
X96253583Y-230312144D01*
X96269255Y-230233355D01*
X96300000Y-230159130D01*
X96300000Y-198840870D01*
X96269255Y-198766645D01*
X96253583Y-198687856D01*
X96208952Y-198621062D01*
X96178207Y-198546836D01*
X96121396Y-198490025D01*
X96076767Y-198423233D01*
X96009975Y-198378604D01*
X95953164Y-198321793D01*
X95878938Y-198291048D01*
X95812144Y-198246417D01*
X95733355Y-198230745D01*
X95659130Y-198200000D01*
X95578789Y-198200000D01*
X95500000Y-198184328D01*
X95421211Y-198200000D01*
X95340870Y-198200000D01*
X95266645Y-198230745D01*
X95187857Y-198246417D01*
X95121064Y-198291047D01*
X95046836Y-198321793D01*
X94990023Y-198378606D01*
X94923234Y-198423233D01*
X94878607Y-198490022D01*
X94821793Y-198546836D01*
X94791046Y-198621066D01*
X94746418Y-198687856D01*
X94730747Y-198766641D01*
X94700000Y-198840870D01*
X92450000Y-198840870D01*
X92450000Y-170630599D01*
X92450500Y-170629392D01*
X92450500Y-170370608D01*
X92450000Y-170369401D01*
X92450000Y-169630599D01*
X92450500Y-169629392D01*
X92450500Y-169370608D01*
X92450000Y-169369401D01*
X92450000Y-168630599D01*
X92450500Y-168629392D01*
X92450500Y-168370608D01*
X92450000Y-168369401D01*
X92450000Y-167630599D01*
X92450500Y-167629392D01*
X92450500Y-167370608D01*
X92450000Y-167369401D01*
X92450000Y-166630599D01*
X92450500Y-166629392D01*
X92450500Y-166370608D01*
X92450000Y-166369401D01*
X92450000Y-165630599D01*
X92450500Y-165629392D01*
X92450500Y-165370608D01*
X92450000Y-165369401D01*
X92450000Y-136840870D01*
X94700000Y-136840870D01*
X94700000Y-137159130D01*
X94700001Y-137159132D01*
X94700000Y-167840870D01*
X94700000Y-168159130D01*
X94730745Y-168233356D01*
X94746417Y-168312143D01*
X94791047Y-168378936D01*
X94821793Y-168453164D01*
X94878604Y-168509975D01*
X94923233Y-168576767D01*
X94990025Y-168621396D01*
X95046836Y-168678207D01*
X95121062Y-168708952D01*
X95187856Y-168753583D01*
X95266645Y-168769255D01*
X95340870Y-168800000D01*
X95421211Y-168800000D01*
X95500000Y-168815672D01*
X95578789Y-168800000D01*
X95659130Y-168800000D01*
X95733355Y-168769255D01*
X95812143Y-168753583D01*
X95878936Y-168708953D01*
X95953164Y-168678207D01*
X96009975Y-168621396D01*
X96076767Y-168576767D01*
X96121396Y-168509975D01*
X96178207Y-168453164D01*
X96208952Y-168378938D01*
X96253583Y-168312144D01*
X96269255Y-168233355D01*
X96300000Y-168159130D01*
X96300000Y-136840870D01*
X96269255Y-136766645D01*
X96253583Y-136687856D01*
X96208952Y-136621062D01*
X96178207Y-136546836D01*
X96121396Y-136490025D01*
X96076767Y-136423233D01*
X96009975Y-136378604D01*
X95953164Y-136321793D01*
X95878938Y-136291048D01*
X95812144Y-136246417D01*
X95733355Y-136230745D01*
X95659130Y-136200000D01*
X95578789Y-136200000D01*
X95500000Y-136184328D01*
X95421211Y-136200000D01*
X95340870Y-136200000D01*
X95266645Y-136230745D01*
X95187857Y-136246417D01*
X95121064Y-136291047D01*
X95046836Y-136321793D01*
X94990023Y-136378606D01*
X94923234Y-136423233D01*
X94878607Y-136490022D01*
X94821793Y-136546836D01*
X94791046Y-136621066D01*
X94746418Y-136687856D01*
X94730747Y-136766641D01*
X94700000Y-136840870D01*
X92450000Y-136840870D01*
X92450000Y-108630599D01*
X92450500Y-108629392D01*
X92450500Y-108370608D01*
X92450000Y-108369401D01*
X92450000Y-107630599D01*
X92450500Y-107629392D01*
X92450500Y-107370608D01*
X92450000Y-107369401D01*
X92450000Y-106630599D01*
X92450500Y-106629392D01*
X92450500Y-106370608D01*
X92450000Y-106369401D01*
X92450000Y-105630599D01*
X92450500Y-105629392D01*
X92450500Y-105370608D01*
X92450000Y-105369401D01*
X92450000Y-104630599D01*
X92450500Y-104629392D01*
X92450500Y-104370608D01*
X92450000Y-104369401D01*
X92450000Y-103630599D01*
X92450500Y-103629392D01*
X92450500Y-103370608D01*
X92450000Y-103369401D01*
X92450000Y-74840870D01*
X94700000Y-74840870D01*
X94700000Y-75159130D01*
X94700001Y-75159132D01*
X94700000Y-105840870D01*
X94700000Y-106159130D01*
X94730745Y-106233356D01*
X94746417Y-106312143D01*
X94791047Y-106378936D01*
X94821793Y-106453164D01*
X94878604Y-106509975D01*
X94923233Y-106576767D01*
X94990025Y-106621396D01*
X95046836Y-106678207D01*
X95121062Y-106708952D01*
X95187856Y-106753583D01*
X95266645Y-106769255D01*
X95340870Y-106800000D01*
X95421211Y-106800000D01*
X95500000Y-106815672D01*
X95578789Y-106800000D01*
X95659130Y-106800000D01*
X95733355Y-106769255D01*
X95812143Y-106753583D01*
X95878936Y-106708953D01*
X95953164Y-106678207D01*
X96009975Y-106621396D01*
X96076767Y-106576767D01*
X96121396Y-106509975D01*
X96178207Y-106453164D01*
X96208952Y-106378938D01*
X96253583Y-106312144D01*
X96269255Y-106233355D01*
X96300000Y-106159130D01*
X96300000Y-74840870D01*
X96269255Y-74766645D01*
X96253583Y-74687856D01*
X96208952Y-74621062D01*
X96178207Y-74546836D01*
X96121396Y-74490025D01*
X96076767Y-74423233D01*
X96009975Y-74378604D01*
X95953164Y-74321793D01*
X95878938Y-74291048D01*
X95812144Y-74246417D01*
X95733355Y-74230745D01*
X95659130Y-74200000D01*
X95578789Y-74200000D01*
X95500000Y-74184328D01*
X95421211Y-74200000D01*
X95340870Y-74200000D01*
X95266645Y-74230745D01*
X95187857Y-74246417D01*
X95121064Y-74291047D01*
X95046836Y-74321793D01*
X94990023Y-74378606D01*
X94923234Y-74423233D01*
X94878607Y-74490022D01*
X94821793Y-74546836D01*
X94791046Y-74621066D01*
X94746418Y-74687856D01*
X94730747Y-74766641D01*
X94700000Y-74840870D01*
X92450000Y-74840870D01*
X92450000Y-60130599D01*
X92450500Y-60129392D01*
X92450500Y-59879658D01*
X93895000Y-59879658D01*
X93895000Y-60120342D01*
X93987105Y-60342705D01*
X94157295Y-60512895D01*
X94379658Y-60605000D01*
X94620342Y-60605000D01*
X94842705Y-60512895D01*
X95012895Y-60342705D01*
X95105000Y-60120342D01*
X95105000Y-59879658D01*
X95012895Y-59657295D01*
X94842705Y-59487105D01*
X94620342Y-59395000D01*
X94379658Y-59395000D01*
X94157295Y-59487105D01*
X93987105Y-59657295D01*
X93895000Y-59879658D01*
X92450500Y-59879658D01*
X92450500Y-59870608D01*
X92450000Y-59869401D01*
X92450000Y-59130599D01*
X92450500Y-59129392D01*
X92450500Y-58870608D01*
X92450000Y-58869401D01*
X92450000Y-58130599D01*
X92450500Y-58129392D01*
X92450500Y-57870608D01*
X92450000Y-57869401D01*
X92450000Y-57428363D01*
X92522754Y-57537247D01*
X92952766Y-57824573D01*
X93460000Y-57925468D01*
X93967235Y-57824573D01*
X94397247Y-57537247D01*
X94684573Y-57107235D01*
X94760000Y-56728037D01*
X94760000Y-55300000D01*
X97240000Y-55300000D01*
X97240000Y-56900000D01*
X97453762Y-57374652D01*
X97832893Y-57731370D01*
X98045818Y-57802408D01*
X98240000Y-57761895D01*
X98240000Y-55300000D01*
X97240000Y-55300000D01*
X94760000Y-55300000D01*
X94760000Y-53271963D01*
X94684573Y-52892765D01*
X94397247Y-52462753D01*
X94310814Y-52405000D01*
X97687955Y-52405000D01*
X97453762Y-52625348D01*
X97453762Y-52625348D01*
G37*
X97453762Y-52625348D02*
X97240000Y-53100000D01*
X97240000Y-54700000D01*
X98240000Y-54700000D01*
X98240000Y-54680000D01*
X98840000Y-54680000D01*
X98840000Y-54700000D01*
X98860000Y-54700000D01*
X98860000Y-55300000D01*
X98840000Y-55300000D01*
X98840000Y-57761895D01*
X99034182Y-57802408D01*
X99247107Y-57731370D01*
X99595000Y-57404043D01*
X99595001Y-372144806D01*
X99586238Y-372125348D01*
X99207107Y-371768630D01*
X98994182Y-371697592D01*
X98800000Y-371738105D01*
X98800000Y-374200000D01*
X98820000Y-374200000D01*
X98820000Y-374800000D01*
X98800000Y-374800000D01*
X98800000Y-374820000D01*
X98200000Y-374820000D01*
X98200000Y-374800000D01*
X97200000Y-374800000D01*
X97200000Y-376400000D01*
X97413762Y-376874652D01*
X97647955Y-377095000D01*
X94270814Y-377095000D01*
X94357247Y-377037247D01*
X94644573Y-376607235D01*
X94720000Y-376228037D01*
X94720000Y-372771963D01*
X94685795Y-372600000D01*
X97200000Y-372600000D01*
X97200000Y-374200000D01*
X98200000Y-374200000D01*
X98200000Y-371738105D01*
X98005818Y-371697592D01*
X97792893Y-371768630D01*
X97413762Y-372125348D01*
X97200000Y-372600000D01*
X94685795Y-372600000D01*
X94644573Y-372392765D01*
X94357247Y-371962753D01*
X93927234Y-371675427D01*
X93420000Y-371574532D01*
X92912765Y-371675427D01*
X92482753Y-371962753D01*
X92450500Y-372011023D01*
X92450500Y-371870608D01*
X92450000Y-371869401D01*
X92450000Y-371130599D01*
X92450500Y-371129392D01*
X92450500Y-370870608D01*
X92450000Y-370869401D01*
X92450000Y-370130599D01*
X92450500Y-370129392D01*
X92450500Y-369879658D01*
X93895000Y-369879658D01*
X93895000Y-370120342D01*
X93987105Y-370342705D01*
X94157295Y-370512895D01*
X94379658Y-370605000D01*
X94620342Y-370605000D01*
X94842705Y-370512895D01*
X95012895Y-370342705D01*
X95105000Y-370120342D01*
X95105000Y-369879658D01*
X95012895Y-369657295D01*
X94842705Y-369487105D01*
X94620342Y-369395000D01*
X94379658Y-369395000D01*
X94157295Y-369487105D01*
X93987105Y-369657295D01*
X93895000Y-369879658D01*
X92450500Y-369879658D01*
X92450500Y-369870608D01*
X92450000Y-369869401D01*
X92450000Y-325630599D01*
X92450500Y-325629392D01*
X92450500Y-325370608D01*
X92450000Y-325369401D01*
X92450000Y-324630599D01*
X92450500Y-324629392D01*
X92450500Y-324370608D01*
X92450000Y-324369401D01*
X92450000Y-323630599D01*
X92450500Y-323629392D01*
X92450500Y-323370608D01*
X92450000Y-323369401D01*
X92450000Y-322840870D01*
X94700000Y-322840870D01*
X94700000Y-323159130D01*
X94700001Y-323159132D01*
X94700000Y-353840870D01*
X94700000Y-354159130D01*
X94730745Y-354233356D01*
X94746417Y-354312143D01*
X94791047Y-354378936D01*
X94821793Y-354453164D01*
X94878604Y-354509975D01*
X94923233Y-354576767D01*
X94990025Y-354621396D01*
X95046836Y-354678207D01*
X95121062Y-354708952D01*
X95187856Y-354753583D01*
X95266645Y-354769255D01*
X95340870Y-354800000D01*
X95421211Y-354800000D01*
X95500000Y-354815672D01*
X95578789Y-354800000D01*
X95659130Y-354800000D01*
X95733355Y-354769255D01*
X95812143Y-354753583D01*
X95878936Y-354708953D01*
X95953164Y-354678207D01*
X96009975Y-354621396D01*
X96076767Y-354576767D01*
X96121396Y-354509975D01*
X96178207Y-354453164D01*
X96208952Y-354378938D01*
X96253583Y-354312144D01*
X96269255Y-354233355D01*
X96300000Y-354159130D01*
X96300000Y-322840870D01*
X96269255Y-322766645D01*
X96253583Y-322687856D01*
X96208952Y-322621062D01*
X96178207Y-322546836D01*
X96121396Y-322490025D01*
X96076767Y-322423233D01*
X96009975Y-322378604D01*
X95953164Y-322321793D01*
X95878938Y-322291048D01*
X95812144Y-322246417D01*
X95733355Y-322230745D01*
X95659130Y-322200000D01*
X95578789Y-322200000D01*
X95500000Y-322184328D01*
X95421211Y-322200000D01*
X95340870Y-322200000D01*
X95266645Y-322230745D01*
X95187857Y-322246417D01*
X95121064Y-322291047D01*
X95046836Y-322321793D01*
X94990023Y-322378606D01*
X94923234Y-322423233D01*
X94878607Y-322490022D01*
X94821793Y-322546836D01*
X94791046Y-322621066D01*
X94746418Y-322687856D01*
X94730747Y-322766641D01*
X94700000Y-322840870D01*
X92450000Y-322840870D01*
X92450000Y-322630599D01*
X92450500Y-322629392D01*
X92450500Y-322370608D01*
X92450000Y-322369401D01*
X92450000Y-321630599D01*
X92450500Y-321629392D01*
X92450500Y-321370608D01*
X92450000Y-321369401D01*
X92450000Y-320630599D01*
X92450500Y-320629392D01*
X92450500Y-320370608D01*
X92450000Y-320369401D01*
X92450000Y-263630599D01*
X92450500Y-263629392D01*
X92450500Y-263370608D01*
X92450000Y-263369401D01*
X92450000Y-262630599D01*
X92450500Y-262629392D01*
X92450500Y-262370608D01*
X92450000Y-262369401D01*
X92450000Y-261630599D01*
X92450500Y-261629392D01*
X92450500Y-261370608D01*
X92450000Y-261369401D01*
X92450000Y-260840870D01*
X94700000Y-260840870D01*
X94700000Y-261159130D01*
X94700001Y-261159132D01*
X94700000Y-291840870D01*
X94700000Y-292159130D01*
X94730745Y-292233356D01*
X94746417Y-292312143D01*
X94791047Y-292378936D01*
X94821793Y-292453164D01*
X94878604Y-292509975D01*
X94923233Y-292576767D01*
X94990025Y-292621396D01*
X95046836Y-292678207D01*
X95121062Y-292708952D01*
X95187856Y-292753583D01*
X95266645Y-292769255D01*
X95340870Y-292800000D01*
X95421211Y-292800000D01*
X95500000Y-292815672D01*
X95578789Y-292800000D01*
X95659130Y-292800000D01*
X95733355Y-292769255D01*
X95812143Y-292753583D01*
X95878936Y-292708953D01*
X95953164Y-292678207D01*
X96009975Y-292621396D01*
X96076767Y-292576767D01*
X96121396Y-292509975D01*
X96178207Y-292453164D01*
X96208952Y-292378938D01*
X96253583Y-292312144D01*
X96269255Y-292233355D01*
X96300000Y-292159130D01*
X96300000Y-260840870D01*
X96269255Y-260766645D01*
X96253583Y-260687856D01*
X96208952Y-260621062D01*
X96178207Y-260546836D01*
X96121396Y-260490025D01*
X96076767Y-260423233D01*
X96009975Y-260378604D01*
X95953164Y-260321793D01*
X95878938Y-260291048D01*
X95812144Y-260246417D01*
X95733355Y-260230745D01*
X95659130Y-260200000D01*
X95578789Y-260200000D01*
X95500000Y-260184328D01*
X95421211Y-260200000D01*
X95340870Y-260200000D01*
X95266645Y-260230745D01*
X95187857Y-260246417D01*
X95121064Y-260291047D01*
X95046836Y-260321793D01*
X94990023Y-260378606D01*
X94923234Y-260423233D01*
X94878607Y-260490022D01*
X94821793Y-260546836D01*
X94791046Y-260621066D01*
X94746418Y-260687856D01*
X94730747Y-260766641D01*
X94700000Y-260840870D01*
X92450000Y-260840870D01*
X92450000Y-260630599D01*
X92450500Y-260629392D01*
X92450500Y-260370608D01*
X92450000Y-260369401D01*
X92450000Y-259630599D01*
X92450500Y-259629392D01*
X92450500Y-259370608D01*
X92450000Y-259369401D01*
X92450000Y-258630599D01*
X92450500Y-258629392D01*
X92450500Y-258370608D01*
X92450000Y-258369401D01*
X92450000Y-217130599D01*
X92450500Y-217129392D01*
X92450500Y-216870608D01*
X92450000Y-216869401D01*
X92450000Y-216130599D01*
X92450500Y-216129392D01*
X92450500Y-215870608D01*
X92450000Y-215869401D01*
X92450000Y-215130599D01*
X92450500Y-215129392D01*
X92450500Y-214870608D01*
X92450000Y-214869401D01*
X92450000Y-214130599D01*
X92450500Y-214129392D01*
X92450500Y-213870608D01*
X92450000Y-213869401D01*
X92450000Y-213130599D01*
X92450500Y-213129392D01*
X92450500Y-212870608D01*
X92450000Y-212869401D01*
X92450000Y-212130599D01*
X92450500Y-212129392D01*
X92450500Y-211870608D01*
X92450000Y-211869401D01*
X92450000Y-198840870D01*
X94700000Y-198840870D01*
X94700000Y-199159130D01*
X94700001Y-199159132D01*
X94700000Y-229840870D01*
X94700000Y-230159130D01*
X94730745Y-230233356D01*
X94746417Y-230312143D01*
X94791047Y-230378936D01*
X94821793Y-230453164D01*
X94878604Y-230509975D01*
X94923233Y-230576767D01*
X94990025Y-230621396D01*
X95046836Y-230678207D01*
X95121062Y-230708952D01*
X95187856Y-230753583D01*
X95266645Y-230769255D01*
X95340870Y-230800000D01*
X95421211Y-230800000D01*
X95500000Y-230815672D01*
X95578789Y-230800000D01*
X95659130Y-230800000D01*
X95733355Y-230769255D01*
X95812143Y-230753583D01*
X95878936Y-230708953D01*
X95953164Y-230678207D01*
X96009975Y-230621396D01*
X96076767Y-230576767D01*
X96121396Y-230509975D01*
X96178207Y-230453164D01*
X96208952Y-230378938D01*
X96253583Y-230312144D01*
X96269255Y-230233355D01*
X96300000Y-230159130D01*
X96300000Y-198840870D01*
X96269255Y-198766645D01*
X96253583Y-198687856D01*
X96208952Y-198621062D01*
X96178207Y-198546836D01*
X96121396Y-198490025D01*
X96076767Y-198423233D01*
X96009975Y-198378604D01*
X95953164Y-198321793D01*
X95878938Y-198291048D01*
X95812144Y-198246417D01*
X95733355Y-198230745D01*
X95659130Y-198200000D01*
X95578789Y-198200000D01*
X95500000Y-198184328D01*
X95421211Y-198200000D01*
X95340870Y-198200000D01*
X95266645Y-198230745D01*
X95187857Y-198246417D01*
X95121064Y-198291047D01*
X95046836Y-198321793D01*
X94990023Y-198378606D01*
X94923234Y-198423233D01*
X94878607Y-198490022D01*
X94821793Y-198546836D01*
X94791046Y-198621066D01*
X94746418Y-198687856D01*
X94730747Y-198766641D01*
X94700000Y-198840870D01*
X92450000Y-198840870D01*
X92450000Y-170630599D01*
X92450500Y-170629392D01*
X92450500Y-170370608D01*
X92450000Y-170369401D01*
X92450000Y-169630599D01*
X92450500Y-169629392D01*
X92450500Y-169370608D01*
X92450000Y-169369401D01*
X92450000Y-168630599D01*
X92450500Y-168629392D01*
X92450500Y-168370608D01*
X92450000Y-168369401D01*
X92450000Y-167630599D01*
X92450500Y-167629392D01*
X92450500Y-167370608D01*
X92450000Y-167369401D01*
X92450000Y-166630599D01*
X92450500Y-166629392D01*
X92450500Y-166370608D01*
X92450000Y-166369401D01*
X92450000Y-165630599D01*
X92450500Y-165629392D01*
X92450500Y-165370608D01*
X92450000Y-165369401D01*
X92450000Y-136840870D01*
X94700000Y-136840870D01*
X94700000Y-137159130D01*
X94700001Y-137159132D01*
X94700000Y-167840870D01*
X94700000Y-168159130D01*
X94730745Y-168233356D01*
X94746417Y-168312143D01*
X94791047Y-168378936D01*
X94821793Y-168453164D01*
X94878604Y-168509975D01*
X94923233Y-168576767D01*
X94990025Y-168621396D01*
X95046836Y-168678207D01*
X95121062Y-168708952D01*
X95187856Y-168753583D01*
X95266645Y-168769255D01*
X95340870Y-168800000D01*
X95421211Y-168800000D01*
X95500000Y-168815672D01*
X95578789Y-168800000D01*
X95659130Y-168800000D01*
X95733355Y-168769255D01*
X95812143Y-168753583D01*
X95878936Y-168708953D01*
X95953164Y-168678207D01*
X96009975Y-168621396D01*
X96076767Y-168576767D01*
X96121396Y-168509975D01*
X96178207Y-168453164D01*
X96208952Y-168378938D01*
X96253583Y-168312144D01*
X96269255Y-168233355D01*
X96300000Y-168159130D01*
X96300000Y-136840870D01*
X96269255Y-136766645D01*
X96253583Y-136687856D01*
X96208952Y-136621062D01*
X96178207Y-136546836D01*
X96121396Y-136490025D01*
X96076767Y-136423233D01*
X96009975Y-136378604D01*
X95953164Y-136321793D01*
X95878938Y-136291048D01*
X95812144Y-136246417D01*
X95733355Y-136230745D01*
X95659130Y-136200000D01*
X95578789Y-136200000D01*
X95500000Y-136184328D01*
X95421211Y-136200000D01*
X95340870Y-136200000D01*
X95266645Y-136230745D01*
X95187857Y-136246417D01*
X95121064Y-136291047D01*
X95046836Y-136321793D01*
X94990023Y-136378606D01*
X94923234Y-136423233D01*
X94878607Y-136490022D01*
X94821793Y-136546836D01*
X94791046Y-136621066D01*
X94746418Y-136687856D01*
X94730747Y-136766641D01*
X94700000Y-136840870D01*
X92450000Y-136840870D01*
X92450000Y-108630599D01*
X92450500Y-108629392D01*
X92450500Y-108370608D01*
X92450000Y-108369401D01*
X92450000Y-107630599D01*
X92450500Y-107629392D01*
X92450500Y-107370608D01*
X92450000Y-107369401D01*
X92450000Y-106630599D01*
X92450500Y-106629392D01*
X92450500Y-106370608D01*
X92450000Y-106369401D01*
X92450000Y-105630599D01*
X92450500Y-105629392D01*
X92450500Y-105370608D01*
X92450000Y-105369401D01*
X92450000Y-104630599D01*
X92450500Y-104629392D01*
X92450500Y-104370608D01*
X92450000Y-104369401D01*
X92450000Y-103630599D01*
X92450500Y-103629392D01*
X92450500Y-103370608D01*
X92450000Y-103369401D01*
X92450000Y-74840870D01*
X94700000Y-74840870D01*
X94700000Y-75159130D01*
X94700001Y-75159132D01*
X94700000Y-105840870D01*
X94700000Y-106159130D01*
X94730745Y-106233356D01*
X94746417Y-106312143D01*
X94791047Y-106378936D01*
X94821793Y-106453164D01*
X94878604Y-106509975D01*
X94923233Y-106576767D01*
X94990025Y-106621396D01*
X95046836Y-106678207D01*
X95121062Y-106708952D01*
X95187856Y-106753583D01*
X95266645Y-106769255D01*
X95340870Y-106800000D01*
X95421211Y-106800000D01*
X95500000Y-106815672D01*
X95578789Y-106800000D01*
X95659130Y-106800000D01*
X95733355Y-106769255D01*
X95812143Y-106753583D01*
X95878936Y-106708953D01*
X95953164Y-106678207D01*
X96009975Y-106621396D01*
X96076767Y-106576767D01*
X96121396Y-106509975D01*
X96178207Y-106453164D01*
X96208952Y-106378938D01*
X96253583Y-106312144D01*
X96269255Y-106233355D01*
X96300000Y-106159130D01*
X96300000Y-74840870D01*
X96269255Y-74766645D01*
X96253583Y-74687856D01*
X96208952Y-74621062D01*
X96178207Y-74546836D01*
X96121396Y-74490025D01*
X96076767Y-74423233D01*
X96009975Y-74378604D01*
X95953164Y-74321793D01*
X95878938Y-74291048D01*
X95812144Y-74246417D01*
X95733355Y-74230745D01*
X95659130Y-74200000D01*
X95578789Y-74200000D01*
X95500000Y-74184328D01*
X95421211Y-74200000D01*
X95340870Y-74200000D01*
X95266645Y-74230745D01*
X95187857Y-74246417D01*
X95121064Y-74291047D01*
X95046836Y-74321793D01*
X94990023Y-74378606D01*
X94923234Y-74423233D01*
X94878607Y-74490022D01*
X94821793Y-74546836D01*
X94791046Y-74621066D01*
X94746418Y-74687856D01*
X94730747Y-74766641D01*
X94700000Y-74840870D01*
X92450000Y-74840870D01*
X92450000Y-60130599D01*
X92450500Y-60129392D01*
X92450500Y-59879658D01*
X93895000Y-59879658D01*
X93895000Y-60120342D01*
X93987105Y-60342705D01*
X94157295Y-60512895D01*
X94379658Y-60605000D01*
X94620342Y-60605000D01*
X94842705Y-60512895D01*
X95012895Y-60342705D01*
X95105000Y-60120342D01*
X95105000Y-59879658D01*
X95012895Y-59657295D01*
X94842705Y-59487105D01*
X94620342Y-59395000D01*
X94379658Y-59395000D01*
X94157295Y-59487105D01*
X93987105Y-59657295D01*
X93895000Y-59879658D01*
X92450500Y-59879658D01*
X92450500Y-59870608D01*
X92450000Y-59869401D01*
X92450000Y-59130599D01*
X92450500Y-59129392D01*
X92450500Y-58870608D01*
X92450000Y-58869401D01*
X92450000Y-58130599D01*
X92450500Y-58129392D01*
X92450500Y-57870608D01*
X92450000Y-57869401D01*
X92450000Y-57428363D01*
X92522754Y-57537247D01*
X92952766Y-57824573D01*
X93460000Y-57925468D01*
X93967235Y-57824573D01*
X94397247Y-57537247D01*
X94684573Y-57107235D01*
X94760000Y-56728037D01*
X94760000Y-55300000D01*
X97240000Y-55300000D01*
X97240000Y-56900000D01*
X97453762Y-57374652D01*
X97832893Y-57731370D01*
X98045818Y-57802408D01*
X98240000Y-57761895D01*
X98240000Y-55300000D01*
X97240000Y-55300000D01*
X94760000Y-55300000D01*
X94760000Y-53271963D01*
X94684573Y-52892765D01*
X94397247Y-52462753D01*
X94310814Y-52405000D01*
X97687955Y-52405000D01*
X97453762Y-52625348D01*
G04 #@! TO.N,Net-(J101-Pad1)*
G36*
X83750000Y-57700000D02*
X83757612Y-57738268D01*
X83760000Y-57741842D01*
X83760000Y-57761895D01*
X83775569Y-57765143D01*
X83779289Y-57770711D01*
X83811732Y-57792388D01*
X83850000Y-57800000D01*
X83942640Y-57800000D01*
X83954182Y-57802408D01*
X83961400Y-57800000D01*
X85455989Y-57800000D01*
X85492765Y-57824573D01*
X86000000Y-57925468D01*
X86507234Y-57824573D01*
X86544010Y-57800000D01*
X87995989Y-57800000D01*
X88032765Y-57824573D01*
X88540000Y-57925468D01*
X89047234Y-57824573D01*
X89477247Y-57537247D01*
X89550000Y-57428365D01*
X89550000Y-57869401D01*
X89549500Y-57870608D01*
X89549500Y-58129392D01*
X89550000Y-58130599D01*
X89550000Y-58869401D01*
X89549500Y-58870608D01*
X89549500Y-59129392D01*
X89550000Y-59130599D01*
X89550000Y-59869401D01*
X89549500Y-59870608D01*
X89549500Y-60129392D01*
X89550000Y-60130599D01*
X89550000Y-103369401D01*
X89549500Y-103370608D01*
X89549500Y-103629392D01*
X89550000Y-103630599D01*
X89550000Y-104369401D01*
X89549500Y-104370608D01*
X89549500Y-104629392D01*
X89550000Y-104630599D01*
X89550000Y-105369401D01*
X89549500Y-105370608D01*
X89549500Y-105629392D01*
X89550000Y-105630599D01*
X89550000Y-106369401D01*
X89549500Y-106370608D01*
X89549500Y-106629392D01*
X89550000Y-106630599D01*
X89550000Y-107369401D01*
X89549500Y-107370608D01*
X89549500Y-107629392D01*
X89550000Y-107630599D01*
X89550000Y-108369401D01*
X89549500Y-108370608D01*
X89549500Y-108629392D01*
X89550000Y-108630599D01*
X89550000Y-165369401D01*
X89549500Y-165370608D01*
X89549500Y-165629392D01*
X89550000Y-165630599D01*
X89550000Y-166369401D01*
X89549500Y-166370608D01*
X89549500Y-166629392D01*
X89550000Y-166630599D01*
X89550000Y-167369401D01*
X89549500Y-167370608D01*
X89549500Y-167629392D01*
X89550000Y-167630599D01*
X89550000Y-168369401D01*
X89549500Y-168370608D01*
X89549500Y-168629392D01*
X89550000Y-168630599D01*
X89550000Y-169369401D01*
X89549500Y-169370608D01*
X89549500Y-169629392D01*
X89550000Y-169630599D01*
X89550000Y-170369401D01*
X89549500Y-170370608D01*
X89549500Y-170629392D01*
X89550000Y-170630599D01*
X89550000Y-211869401D01*
X89549500Y-211870608D01*
X89549500Y-212129392D01*
X89550000Y-212130599D01*
X89550000Y-212869401D01*
X89549500Y-212870608D01*
X89549500Y-213129392D01*
X89550000Y-213130599D01*
X89550000Y-213869401D01*
X89549500Y-213870608D01*
X89549500Y-214129392D01*
X89550000Y-214130599D01*
X89550000Y-214869401D01*
X89549500Y-214870608D01*
X89549500Y-215129392D01*
X89550000Y-215130599D01*
X89550000Y-215869401D01*
X89549500Y-215870608D01*
X89549500Y-216129392D01*
X89550000Y-216130599D01*
X89550000Y-216869401D01*
X89549500Y-216870608D01*
X89549500Y-217129392D01*
X89550000Y-217130599D01*
X89550000Y-258369401D01*
X89549500Y-258370608D01*
X89549500Y-258629392D01*
X89550000Y-258630599D01*
X89550000Y-259369401D01*
X89549500Y-259370608D01*
X89549500Y-259629392D01*
X89550000Y-259630599D01*
X89550000Y-260369401D01*
X89549500Y-260370608D01*
X89549500Y-260629392D01*
X89550000Y-260630599D01*
X89550000Y-261369401D01*
X89549500Y-261370608D01*
X89549500Y-261629392D01*
X89550000Y-261630599D01*
X89550000Y-262369401D01*
X89549500Y-262370608D01*
X89549500Y-262629392D01*
X89550000Y-262630599D01*
X89550000Y-263369401D01*
X89549500Y-263370608D01*
X89549500Y-263629392D01*
X89550000Y-263630599D01*
X89550000Y-320369401D01*
X89549500Y-320370608D01*
X89549500Y-320629392D01*
X89550000Y-320630599D01*
X89550000Y-321369401D01*
X89549500Y-321370608D01*
X89549500Y-321629392D01*
X89550000Y-321630599D01*
X89550000Y-322369401D01*
X89549500Y-322370608D01*
X89549500Y-322629392D01*
X89550000Y-322630599D01*
X89550000Y-323369401D01*
X89549500Y-323370608D01*
X89549500Y-323629392D01*
X89550000Y-323630599D01*
X89550000Y-324369401D01*
X89549500Y-324370608D01*
X89549500Y-324629392D01*
X89550000Y-324630599D01*
X89550000Y-325369401D01*
X89549500Y-325370608D01*
X89549500Y-325629392D01*
X89550000Y-325630599D01*
X89550000Y-369869401D01*
X89549500Y-369870608D01*
X89549500Y-370129392D01*
X89550000Y-370130599D01*
X89550000Y-370869401D01*
X89549500Y-370870608D01*
X89549500Y-371129392D01*
X89550000Y-371130599D01*
X89550000Y-371869401D01*
X89549500Y-371870608D01*
X89549500Y-372070887D01*
X89477247Y-371962753D01*
X89047235Y-371675427D01*
X88540000Y-371574532D01*
X88032766Y-371675427D01*
X87995990Y-371700000D01*
X86800000Y-371700000D01*
X86800000Y-369879658D01*
X86895000Y-369879658D01*
X86895000Y-370120342D01*
X86987105Y-370342705D01*
X87157295Y-370512895D01*
X87379658Y-370605000D01*
X87620342Y-370605000D01*
X87842705Y-370512895D01*
X88012895Y-370342705D01*
X88105000Y-370120342D01*
X88105000Y-369879658D01*
X88012895Y-369657295D01*
X87842705Y-369487105D01*
X87620342Y-369395000D01*
X87379658Y-369395000D01*
X87157295Y-369487105D01*
X86987105Y-369657295D01*
X86895000Y-369879658D01*
X86800000Y-369879658D01*
X86800000Y-365831370D01*
X87509972Y-365121398D01*
X87576767Y-365076767D01*
X87747136Y-364821793D01*
X87753583Y-364812145D01*
X87815672Y-364500000D01*
X87800000Y-364421211D01*
X87800000Y-353840870D01*
X87769255Y-353766645D01*
X87753583Y-353687856D01*
X87708952Y-353621062D01*
X87678207Y-353546836D01*
X87621396Y-353490025D01*
X87576767Y-353423233D01*
X87509975Y-353378604D01*
X87453164Y-353321793D01*
X87378936Y-353291047D01*
X87312143Y-353246417D01*
X87233355Y-353230745D01*
X87159130Y-353200000D01*
X87078789Y-353200000D01*
X87000000Y-353184328D01*
X86921211Y-353200000D01*
X86840870Y-353200000D01*
X86766645Y-353230745D01*
X86687856Y-353246417D01*
X86621062Y-353291048D01*
X86546836Y-353321793D01*
X86490025Y-353378604D01*
X86423233Y-353423233D01*
X86378604Y-353490025D01*
X86321793Y-353546836D01*
X86291047Y-353621064D01*
X86246417Y-353687857D01*
X86230745Y-353766644D01*
X86200000Y-353840870D01*
X86200000Y-353921212D01*
X86200001Y-364168629D01*
X85546838Y-364821792D01*
X85546836Y-364821793D01*
X85490025Y-364878604D01*
X85423233Y-364923233D01*
X85378604Y-364990025D01*
X85321793Y-365046836D01*
X85291047Y-365121064D01*
X85246417Y-365187857D01*
X85230745Y-365266644D01*
X85200000Y-365340870D01*
X85200000Y-365421216D01*
X85184329Y-365500000D01*
X85200000Y-365578784D01*
X85200001Y-371700000D01*
X83961400Y-371700000D01*
X83954182Y-371697592D01*
X83942640Y-371700000D01*
X83850000Y-371700000D01*
X83811732Y-371707612D01*
X83779289Y-371729289D01*
X83775569Y-371734857D01*
X83760000Y-371738105D01*
X83760000Y-371758158D01*
X83757612Y-371761732D01*
X83750000Y-371800000D01*
X83750000Y-374820000D01*
X83160000Y-374820000D01*
X83160000Y-374800000D01*
X83140000Y-374800000D01*
X83140000Y-374200000D01*
X83160000Y-374200000D01*
X83160000Y-371738105D01*
X82965818Y-371697592D01*
X82752893Y-371768630D01*
X82405000Y-372095957D01*
X82405000Y-291840870D01*
X86200000Y-291840870D01*
X86200000Y-292159130D01*
X86200001Y-292159132D01*
X86200000Y-322840870D01*
X86200000Y-323159130D01*
X86230745Y-323233356D01*
X86246417Y-323312143D01*
X86291047Y-323378936D01*
X86321793Y-323453164D01*
X86378604Y-323509975D01*
X86423233Y-323576767D01*
X86490025Y-323621396D01*
X86546836Y-323678207D01*
X86621062Y-323708952D01*
X86687856Y-323753583D01*
X86766645Y-323769255D01*
X86840870Y-323800000D01*
X86921211Y-323800000D01*
X87000000Y-323815672D01*
X87078789Y-323800000D01*
X87159130Y-323800000D01*
X87233355Y-323769255D01*
X87312143Y-323753583D01*
X87378936Y-323708953D01*
X87453164Y-323678207D01*
X87509975Y-323621396D01*
X87576767Y-323576767D01*
X87621396Y-323509975D01*
X87678207Y-323453164D01*
X87708952Y-323378938D01*
X87753583Y-323312144D01*
X87769255Y-323233355D01*
X87800000Y-323159130D01*
X87800000Y-291840870D01*
X87769255Y-291766645D01*
X87753583Y-291687856D01*
X87708952Y-291621062D01*
X87678207Y-291546836D01*
X87621396Y-291490025D01*
X87576767Y-291423233D01*
X87509975Y-291378604D01*
X87453164Y-291321793D01*
X87378938Y-291291048D01*
X87312144Y-291246417D01*
X87233355Y-291230745D01*
X87159130Y-291200000D01*
X87078789Y-291200000D01*
X87000000Y-291184328D01*
X86921211Y-291200000D01*
X86840870Y-291200000D01*
X86766645Y-291230745D01*
X86687857Y-291246417D01*
X86621064Y-291291047D01*
X86546836Y-291321793D01*
X86490023Y-291378606D01*
X86423234Y-291423233D01*
X86378607Y-291490022D01*
X86321793Y-291546836D01*
X86291046Y-291621066D01*
X86246418Y-291687856D01*
X86230747Y-291766641D01*
X86200000Y-291840870D01*
X82405000Y-291840870D01*
X82405000Y-229840870D01*
X85700000Y-229840870D01*
X85700000Y-229921212D01*
X85700001Y-260840868D01*
X85700000Y-260840870D01*
X85700000Y-261159130D01*
X85730747Y-261233359D01*
X85746418Y-261312144D01*
X85791046Y-261378934D01*
X85821793Y-261453164D01*
X85878607Y-261509978D01*
X85923234Y-261576767D01*
X85990023Y-261621394D01*
X86046836Y-261678207D01*
X86121064Y-261708953D01*
X86187857Y-261753583D01*
X86266645Y-261769255D01*
X86340870Y-261800000D01*
X86421211Y-261800000D01*
X86500000Y-261815672D01*
X86578789Y-261800000D01*
X86659130Y-261800000D01*
X86733355Y-261769255D01*
X86812144Y-261753583D01*
X86878938Y-261708952D01*
X86953164Y-261678207D01*
X87009975Y-261621396D01*
X87076767Y-261576767D01*
X87121396Y-261509975D01*
X87178207Y-261453164D01*
X87208952Y-261378938D01*
X87253583Y-261312144D01*
X87269255Y-261233355D01*
X87300000Y-261159130D01*
X87300000Y-229840870D01*
X87269255Y-229766645D01*
X87253583Y-229687856D01*
X87208952Y-229621062D01*
X87178207Y-229546836D01*
X87121396Y-229490025D01*
X87076767Y-229423233D01*
X87009975Y-229378604D01*
X86953164Y-229321793D01*
X86878936Y-229291047D01*
X86812143Y-229246417D01*
X86733355Y-229230745D01*
X86659130Y-229200000D01*
X86578789Y-229200000D01*
X86500000Y-229184328D01*
X86421211Y-229200000D01*
X86340870Y-229200000D01*
X86266645Y-229230745D01*
X86187856Y-229246417D01*
X86121062Y-229291048D01*
X86046836Y-229321793D01*
X85990025Y-229378604D01*
X85923233Y-229423233D01*
X85878604Y-229490025D01*
X85821793Y-229546836D01*
X85791047Y-229621064D01*
X85746417Y-229687857D01*
X85730745Y-229766644D01*
X85700000Y-229840870D01*
X82405000Y-229840870D01*
X82405000Y-167840870D01*
X85700000Y-167840870D01*
X85700000Y-167921212D01*
X85700001Y-198840868D01*
X85700000Y-198840870D01*
X85700000Y-199159130D01*
X85730747Y-199233359D01*
X85746418Y-199312144D01*
X85791046Y-199378934D01*
X85821793Y-199453164D01*
X85878607Y-199509978D01*
X85923234Y-199576767D01*
X85990023Y-199621394D01*
X86046836Y-199678207D01*
X86121064Y-199708953D01*
X86187857Y-199753583D01*
X86266645Y-199769255D01*
X86340870Y-199800000D01*
X86421211Y-199800000D01*
X86500000Y-199815672D01*
X86578789Y-199800000D01*
X86659130Y-199800000D01*
X86733355Y-199769255D01*
X86812144Y-199753583D01*
X86878938Y-199708952D01*
X86953164Y-199678207D01*
X87009975Y-199621396D01*
X87076767Y-199576767D01*
X87121396Y-199509975D01*
X87178207Y-199453164D01*
X87208952Y-199378938D01*
X87253583Y-199312144D01*
X87269255Y-199233355D01*
X87300000Y-199159130D01*
X87300000Y-167840870D01*
X87269255Y-167766645D01*
X87253583Y-167687856D01*
X87208952Y-167621062D01*
X87178207Y-167546836D01*
X87121396Y-167490025D01*
X87076767Y-167423233D01*
X87009975Y-167378604D01*
X86953164Y-167321793D01*
X86878936Y-167291047D01*
X86812143Y-167246417D01*
X86733355Y-167230745D01*
X86659130Y-167200000D01*
X86578789Y-167200000D01*
X86500000Y-167184328D01*
X86421211Y-167200000D01*
X86340870Y-167200000D01*
X86266645Y-167230745D01*
X86187856Y-167246417D01*
X86121062Y-167291048D01*
X86046836Y-167321793D01*
X85990025Y-167378604D01*
X85923233Y-167423233D01*
X85878604Y-167490025D01*
X85821793Y-167546836D01*
X85791047Y-167621064D01*
X85746417Y-167687857D01*
X85730745Y-167766644D01*
X85700000Y-167840870D01*
X82405000Y-167840870D01*
X82405000Y-105840870D01*
X85700000Y-105840870D01*
X85700000Y-105921212D01*
X85700001Y-136840868D01*
X85700000Y-136840870D01*
X85700000Y-137159130D01*
X85730747Y-137233359D01*
X85746418Y-137312144D01*
X85791046Y-137378934D01*
X85821793Y-137453164D01*
X85878607Y-137509978D01*
X85923234Y-137576767D01*
X85990023Y-137621394D01*
X86046836Y-137678207D01*
X86121064Y-137708953D01*
X86187857Y-137753583D01*
X86266645Y-137769255D01*
X86340870Y-137800000D01*
X86421211Y-137800000D01*
X86500000Y-137815672D01*
X86578789Y-137800000D01*
X86659130Y-137800000D01*
X86733355Y-137769255D01*
X86812144Y-137753583D01*
X86878938Y-137708952D01*
X86953164Y-137678207D01*
X87009975Y-137621396D01*
X87076767Y-137576767D01*
X87121396Y-137509975D01*
X87178207Y-137453164D01*
X87208952Y-137378938D01*
X87253583Y-137312144D01*
X87269255Y-137233355D01*
X87300000Y-137159130D01*
X87300000Y-105840870D01*
X87269255Y-105766645D01*
X87253583Y-105687856D01*
X87208952Y-105621062D01*
X87178207Y-105546836D01*
X87121396Y-105490025D01*
X87076767Y-105423233D01*
X87009975Y-105378604D01*
X86953164Y-105321793D01*
X86878936Y-105291047D01*
X86812143Y-105246417D01*
X86733355Y-105230745D01*
X86659130Y-105200000D01*
X86578789Y-105200000D01*
X86500000Y-105184328D01*
X86421211Y-105200000D01*
X86340870Y-105200000D01*
X86266645Y-105230745D01*
X86187856Y-105246417D01*
X86121062Y-105291048D01*
X86046836Y-105321793D01*
X85990025Y-105378604D01*
X85923233Y-105423233D01*
X85878604Y-105490025D01*
X85821793Y-105546836D01*
X85791047Y-105621064D01*
X85746417Y-105687857D01*
X85730745Y-105766644D01*
X85700000Y-105840870D01*
X82405000Y-105840870D01*
X82405000Y-64500000D01*
X85184329Y-64500000D01*
X85200000Y-64578784D01*
X85200000Y-64659130D01*
X85230747Y-64733359D01*
X85246418Y-64812144D01*
X85291046Y-64878935D01*
X85321793Y-64953164D01*
X85546836Y-65178207D01*
X85546838Y-65178208D01*
X85700001Y-65331371D01*
X85700000Y-74840870D01*
X85700000Y-75159130D01*
X85730745Y-75233356D01*
X85746417Y-75312143D01*
X85791047Y-75378936D01*
X85821793Y-75453164D01*
X85878604Y-75509975D01*
X85923233Y-75576767D01*
X85990025Y-75621396D01*
X86046836Y-75678207D01*
X86121062Y-75708952D01*
X86187856Y-75753583D01*
X86266645Y-75769255D01*
X86340870Y-75800000D01*
X86421211Y-75800000D01*
X86500000Y-75815672D01*
X86578789Y-75800000D01*
X86659130Y-75800000D01*
X86733355Y-75769255D01*
X86812143Y-75753583D01*
X86878936Y-75708953D01*
X86953164Y-75678207D01*
X87009975Y-75621396D01*
X87076767Y-75576767D01*
X87121396Y-75509975D01*
X87178207Y-75453164D01*
X87208952Y-75378938D01*
X87253583Y-75312144D01*
X87269255Y-75233355D01*
X87300000Y-75159130D01*
X87300000Y-65078784D01*
X87315671Y-65000000D01*
X87300000Y-64921216D01*
X87300000Y-64921211D01*
X87253583Y-64687856D01*
X87076767Y-64423233D01*
X87009972Y-64378602D01*
X86678208Y-64046838D01*
X86678207Y-64046836D01*
X86453164Y-63821793D01*
X86378935Y-63791046D01*
X86312144Y-63746418D01*
X86233359Y-63730747D01*
X86159130Y-63700000D01*
X86078784Y-63700000D01*
X86000000Y-63684329D01*
X85921216Y-63700000D01*
X85840870Y-63700000D01*
X85766641Y-63730747D01*
X85687856Y-63746418D01*
X85621065Y-63791046D01*
X85546836Y-63821793D01*
X85490025Y-63878604D01*
X85423233Y-63923233D01*
X85378604Y-63990025D01*
X85321793Y-64046836D01*
X85291046Y-64121065D01*
X85246418Y-64187856D01*
X85230747Y-64266641D01*
X85200000Y-64340870D01*
X85200000Y-64421216D01*
X85184329Y-64500000D01*
X82405000Y-64500000D01*
X82405000Y-59879658D01*
X86895000Y-59879658D01*
X86895000Y-60120342D01*
X86987105Y-60342705D01*
X87157295Y-60512895D01*
X87379658Y-60605000D01*
X87620342Y-60605000D01*
X87842705Y-60512895D01*
X88012895Y-60342705D01*
X88105000Y-60120342D01*
X88105000Y-59879658D01*
X88012895Y-59657295D01*
X87842705Y-59487105D01*
X87620342Y-59395000D01*
X87379658Y-59395000D01*
X87157295Y-59487105D01*
X86987105Y-59657295D01*
X86895000Y-59879658D01*
X82405000Y-59879658D01*
X82405000Y-57404043D01*
X82752893Y-57731370D01*
X82965818Y-57802408D01*
X83160000Y-57761895D01*
X83160000Y-55300000D01*
X83140000Y-55300000D01*
X83140000Y-54700000D01*
X83160000Y-54700000D01*
X83160000Y-54680000D01*
X83750000Y-54680000D01*
X83750000Y-57700000D01*
X83750000Y-57700000D01*
G37*
X83750000Y-57700000D02*
X83757612Y-57738268D01*
X83760000Y-57741842D01*
X83760000Y-57761895D01*
X83775569Y-57765143D01*
X83779289Y-57770711D01*
X83811732Y-57792388D01*
X83850000Y-57800000D01*
X83942640Y-57800000D01*
X83954182Y-57802408D01*
X83961400Y-57800000D01*
X85455989Y-57800000D01*
X85492765Y-57824573D01*
X86000000Y-57925468D01*
X86507234Y-57824573D01*
X86544010Y-57800000D01*
X87995989Y-57800000D01*
X88032765Y-57824573D01*
X88540000Y-57925468D01*
X89047234Y-57824573D01*
X89477247Y-57537247D01*
X89550000Y-57428365D01*
X89550000Y-57869401D01*
X89549500Y-57870608D01*
X89549500Y-58129392D01*
X89550000Y-58130599D01*
X89550000Y-58869401D01*
X89549500Y-58870608D01*
X89549500Y-59129392D01*
X89550000Y-59130599D01*
X89550000Y-59869401D01*
X89549500Y-59870608D01*
X89549500Y-60129392D01*
X89550000Y-60130599D01*
X89550000Y-103369401D01*
X89549500Y-103370608D01*
X89549500Y-103629392D01*
X89550000Y-103630599D01*
X89550000Y-104369401D01*
X89549500Y-104370608D01*
X89549500Y-104629392D01*
X89550000Y-104630599D01*
X89550000Y-105369401D01*
X89549500Y-105370608D01*
X89549500Y-105629392D01*
X89550000Y-105630599D01*
X89550000Y-106369401D01*
X89549500Y-106370608D01*
X89549500Y-106629392D01*
X89550000Y-106630599D01*
X89550000Y-107369401D01*
X89549500Y-107370608D01*
X89549500Y-107629392D01*
X89550000Y-107630599D01*
X89550000Y-108369401D01*
X89549500Y-108370608D01*
X89549500Y-108629392D01*
X89550000Y-108630599D01*
X89550000Y-165369401D01*
X89549500Y-165370608D01*
X89549500Y-165629392D01*
X89550000Y-165630599D01*
X89550000Y-166369401D01*
X89549500Y-166370608D01*
X89549500Y-166629392D01*
X89550000Y-166630599D01*
X89550000Y-167369401D01*
X89549500Y-167370608D01*
X89549500Y-167629392D01*
X89550000Y-167630599D01*
X89550000Y-168369401D01*
X89549500Y-168370608D01*
X89549500Y-168629392D01*
X89550000Y-168630599D01*
X89550000Y-169369401D01*
X89549500Y-169370608D01*
X89549500Y-169629392D01*
X89550000Y-169630599D01*
X89550000Y-170369401D01*
X89549500Y-170370608D01*
X89549500Y-170629392D01*
X89550000Y-170630599D01*
X89550000Y-211869401D01*
X89549500Y-211870608D01*
X89549500Y-212129392D01*
X89550000Y-212130599D01*
X89550000Y-212869401D01*
X89549500Y-212870608D01*
X89549500Y-213129392D01*
X89550000Y-213130599D01*
X89550000Y-213869401D01*
X89549500Y-213870608D01*
X89549500Y-214129392D01*
X89550000Y-214130599D01*
X89550000Y-214869401D01*
X89549500Y-214870608D01*
X89549500Y-215129392D01*
X89550000Y-215130599D01*
X89550000Y-215869401D01*
X89549500Y-215870608D01*
X89549500Y-216129392D01*
X89550000Y-216130599D01*
X89550000Y-216869401D01*
X89549500Y-216870608D01*
X89549500Y-217129392D01*
X89550000Y-217130599D01*
X89550000Y-258369401D01*
X89549500Y-258370608D01*
X89549500Y-258629392D01*
X89550000Y-258630599D01*
X89550000Y-259369401D01*
X89549500Y-259370608D01*
X89549500Y-259629392D01*
X89550000Y-259630599D01*
X89550000Y-260369401D01*
X89549500Y-260370608D01*
X89549500Y-260629392D01*
X89550000Y-260630599D01*
X89550000Y-261369401D01*
X89549500Y-261370608D01*
X89549500Y-261629392D01*
X89550000Y-261630599D01*
X89550000Y-262369401D01*
X89549500Y-262370608D01*
X89549500Y-262629392D01*
X89550000Y-262630599D01*
X89550000Y-263369401D01*
X89549500Y-263370608D01*
X89549500Y-263629392D01*
X89550000Y-263630599D01*
X89550000Y-320369401D01*
X89549500Y-320370608D01*
X89549500Y-320629392D01*
X89550000Y-320630599D01*
X89550000Y-321369401D01*
X89549500Y-321370608D01*
X89549500Y-321629392D01*
X89550000Y-321630599D01*
X89550000Y-322369401D01*
X89549500Y-322370608D01*
X89549500Y-322629392D01*
X89550000Y-322630599D01*
X89550000Y-323369401D01*
X89549500Y-323370608D01*
X89549500Y-323629392D01*
X89550000Y-323630599D01*
X89550000Y-324369401D01*
X89549500Y-324370608D01*
X89549500Y-324629392D01*
X89550000Y-324630599D01*
X89550000Y-325369401D01*
X89549500Y-325370608D01*
X89549500Y-325629392D01*
X89550000Y-325630599D01*
X89550000Y-369869401D01*
X89549500Y-369870608D01*
X89549500Y-370129392D01*
X89550000Y-370130599D01*
X89550000Y-370869401D01*
X89549500Y-370870608D01*
X89549500Y-371129392D01*
X89550000Y-371130599D01*
X89550000Y-371869401D01*
X89549500Y-371870608D01*
X89549500Y-372070887D01*
X89477247Y-371962753D01*
X89047235Y-371675427D01*
X88540000Y-371574532D01*
X88032766Y-371675427D01*
X87995990Y-371700000D01*
X86800000Y-371700000D01*
X86800000Y-369879658D01*
X86895000Y-369879658D01*
X86895000Y-370120342D01*
X86987105Y-370342705D01*
X87157295Y-370512895D01*
X87379658Y-370605000D01*
X87620342Y-370605000D01*
X87842705Y-370512895D01*
X88012895Y-370342705D01*
X88105000Y-370120342D01*
X88105000Y-369879658D01*
X88012895Y-369657295D01*
X87842705Y-369487105D01*
X87620342Y-369395000D01*
X87379658Y-369395000D01*
X87157295Y-369487105D01*
X86987105Y-369657295D01*
X86895000Y-369879658D01*
X86800000Y-369879658D01*
X86800000Y-365831370D01*
X87509972Y-365121398D01*
X87576767Y-365076767D01*
X87747136Y-364821793D01*
X87753583Y-364812145D01*
X87815672Y-364500000D01*
X87800000Y-364421211D01*
X87800000Y-353840870D01*
X87769255Y-353766645D01*
X87753583Y-353687856D01*
X87708952Y-353621062D01*
X87678207Y-353546836D01*
X87621396Y-353490025D01*
X87576767Y-353423233D01*
X87509975Y-353378604D01*
X87453164Y-353321793D01*
X87378936Y-353291047D01*
X87312143Y-353246417D01*
X87233355Y-353230745D01*
X87159130Y-353200000D01*
X87078789Y-353200000D01*
X87000000Y-353184328D01*
X86921211Y-353200000D01*
X86840870Y-353200000D01*
X86766645Y-353230745D01*
X86687856Y-353246417D01*
X86621062Y-353291048D01*
X86546836Y-353321793D01*
X86490025Y-353378604D01*
X86423233Y-353423233D01*
X86378604Y-353490025D01*
X86321793Y-353546836D01*
X86291047Y-353621064D01*
X86246417Y-353687857D01*
X86230745Y-353766644D01*
X86200000Y-353840870D01*
X86200000Y-353921212D01*
X86200001Y-364168629D01*
X85546838Y-364821792D01*
X85546836Y-364821793D01*
X85490025Y-364878604D01*
X85423233Y-364923233D01*
X85378604Y-364990025D01*
X85321793Y-365046836D01*
X85291047Y-365121064D01*
X85246417Y-365187857D01*
X85230745Y-365266644D01*
X85200000Y-365340870D01*
X85200000Y-365421216D01*
X85184329Y-365500000D01*
X85200000Y-365578784D01*
X85200001Y-371700000D01*
X83961400Y-371700000D01*
X83954182Y-371697592D01*
X83942640Y-371700000D01*
X83850000Y-371700000D01*
X83811732Y-371707612D01*
X83779289Y-371729289D01*
X83775569Y-371734857D01*
X83760000Y-371738105D01*
X83760000Y-371758158D01*
X83757612Y-371761732D01*
X83750000Y-371800000D01*
X83750000Y-374820000D01*
X83160000Y-374820000D01*
X83160000Y-374800000D01*
X83140000Y-374800000D01*
X83140000Y-374200000D01*
X83160000Y-374200000D01*
X83160000Y-371738105D01*
X82965818Y-371697592D01*
X82752893Y-371768630D01*
X82405000Y-372095957D01*
X82405000Y-291840870D01*
X86200000Y-291840870D01*
X86200000Y-292159130D01*
X86200001Y-292159132D01*
X86200000Y-322840870D01*
X86200000Y-323159130D01*
X86230745Y-323233356D01*
X86246417Y-323312143D01*
X86291047Y-323378936D01*
X86321793Y-323453164D01*
X86378604Y-323509975D01*
X86423233Y-323576767D01*
X86490025Y-323621396D01*
X86546836Y-323678207D01*
X86621062Y-323708952D01*
X86687856Y-323753583D01*
X86766645Y-323769255D01*
X86840870Y-323800000D01*
X86921211Y-323800000D01*
X87000000Y-323815672D01*
X87078789Y-323800000D01*
X87159130Y-323800000D01*
X87233355Y-323769255D01*
X87312143Y-323753583D01*
X87378936Y-323708953D01*
X87453164Y-323678207D01*
X87509975Y-323621396D01*
X87576767Y-323576767D01*
X87621396Y-323509975D01*
X87678207Y-323453164D01*
X87708952Y-323378938D01*
X87753583Y-323312144D01*
X87769255Y-323233355D01*
X87800000Y-323159130D01*
X87800000Y-291840870D01*
X87769255Y-291766645D01*
X87753583Y-291687856D01*
X87708952Y-291621062D01*
X87678207Y-291546836D01*
X87621396Y-291490025D01*
X87576767Y-291423233D01*
X87509975Y-291378604D01*
X87453164Y-291321793D01*
X87378938Y-291291048D01*
X87312144Y-291246417D01*
X87233355Y-291230745D01*
X87159130Y-291200000D01*
X87078789Y-291200000D01*
X87000000Y-291184328D01*
X86921211Y-291200000D01*
X86840870Y-291200000D01*
X86766645Y-291230745D01*
X86687857Y-291246417D01*
X86621064Y-291291047D01*
X86546836Y-291321793D01*
X86490023Y-291378606D01*
X86423234Y-291423233D01*
X86378607Y-291490022D01*
X86321793Y-291546836D01*
X86291046Y-291621066D01*
X86246418Y-291687856D01*
X86230747Y-291766641D01*
X86200000Y-291840870D01*
X82405000Y-291840870D01*
X82405000Y-229840870D01*
X85700000Y-229840870D01*
X85700000Y-229921212D01*
X85700001Y-260840868D01*
X85700000Y-260840870D01*
X85700000Y-261159130D01*
X85730747Y-261233359D01*
X85746418Y-261312144D01*
X85791046Y-261378934D01*
X85821793Y-261453164D01*
X85878607Y-261509978D01*
X85923234Y-261576767D01*
X85990023Y-261621394D01*
X86046836Y-261678207D01*
X86121064Y-261708953D01*
X86187857Y-261753583D01*
X86266645Y-261769255D01*
X86340870Y-261800000D01*
X86421211Y-261800000D01*
X86500000Y-261815672D01*
X86578789Y-261800000D01*
X86659130Y-261800000D01*
X86733355Y-261769255D01*
X86812144Y-261753583D01*
X86878938Y-261708952D01*
X86953164Y-261678207D01*
X87009975Y-261621396D01*
X87076767Y-261576767D01*
X87121396Y-261509975D01*
X87178207Y-261453164D01*
X87208952Y-261378938D01*
X87253583Y-261312144D01*
X87269255Y-261233355D01*
X87300000Y-261159130D01*
X87300000Y-229840870D01*
X87269255Y-229766645D01*
X87253583Y-229687856D01*
X87208952Y-229621062D01*
X87178207Y-229546836D01*
X87121396Y-229490025D01*
X87076767Y-229423233D01*
X87009975Y-229378604D01*
X86953164Y-229321793D01*
X86878936Y-229291047D01*
X86812143Y-229246417D01*
X86733355Y-229230745D01*
X86659130Y-229200000D01*
X86578789Y-229200000D01*
X86500000Y-229184328D01*
X86421211Y-229200000D01*
X86340870Y-229200000D01*
X86266645Y-229230745D01*
X86187856Y-229246417D01*
X86121062Y-229291048D01*
X86046836Y-229321793D01*
X85990025Y-229378604D01*
X85923233Y-229423233D01*
X85878604Y-229490025D01*
X85821793Y-229546836D01*
X85791047Y-229621064D01*
X85746417Y-229687857D01*
X85730745Y-229766644D01*
X85700000Y-229840870D01*
X82405000Y-229840870D01*
X82405000Y-167840870D01*
X85700000Y-167840870D01*
X85700000Y-167921212D01*
X85700001Y-198840868D01*
X85700000Y-198840870D01*
X85700000Y-199159130D01*
X85730747Y-199233359D01*
X85746418Y-199312144D01*
X85791046Y-199378934D01*
X85821793Y-199453164D01*
X85878607Y-199509978D01*
X85923234Y-199576767D01*
X85990023Y-199621394D01*
X86046836Y-199678207D01*
X86121064Y-199708953D01*
X86187857Y-199753583D01*
X86266645Y-199769255D01*
X86340870Y-199800000D01*
X86421211Y-199800000D01*
X86500000Y-199815672D01*
X86578789Y-199800000D01*
X86659130Y-199800000D01*
X86733355Y-199769255D01*
X86812144Y-199753583D01*
X86878938Y-199708952D01*
X86953164Y-199678207D01*
X87009975Y-199621396D01*
X87076767Y-199576767D01*
X87121396Y-199509975D01*
X87178207Y-199453164D01*
X87208952Y-199378938D01*
X87253583Y-199312144D01*
X87269255Y-199233355D01*
X87300000Y-199159130D01*
X87300000Y-167840870D01*
X87269255Y-167766645D01*
X87253583Y-167687856D01*
X87208952Y-167621062D01*
X87178207Y-167546836D01*
X87121396Y-167490025D01*
X87076767Y-167423233D01*
X87009975Y-167378604D01*
X86953164Y-167321793D01*
X86878936Y-167291047D01*
X86812143Y-167246417D01*
X86733355Y-167230745D01*
X86659130Y-167200000D01*
X86578789Y-167200000D01*
X86500000Y-167184328D01*
X86421211Y-167200000D01*
X86340870Y-167200000D01*
X86266645Y-167230745D01*
X86187856Y-167246417D01*
X86121062Y-167291048D01*
X86046836Y-167321793D01*
X85990025Y-167378604D01*
X85923233Y-167423233D01*
X85878604Y-167490025D01*
X85821793Y-167546836D01*
X85791047Y-167621064D01*
X85746417Y-167687857D01*
X85730745Y-167766644D01*
X85700000Y-167840870D01*
X82405000Y-167840870D01*
X82405000Y-105840870D01*
X85700000Y-105840870D01*
X85700000Y-105921212D01*
X85700001Y-136840868D01*
X85700000Y-136840870D01*
X85700000Y-137159130D01*
X85730747Y-137233359D01*
X85746418Y-137312144D01*
X85791046Y-137378934D01*
X85821793Y-137453164D01*
X85878607Y-137509978D01*
X85923234Y-137576767D01*
X85990023Y-137621394D01*
X86046836Y-137678207D01*
X86121064Y-137708953D01*
X86187857Y-137753583D01*
X86266645Y-137769255D01*
X86340870Y-137800000D01*
X86421211Y-137800000D01*
X86500000Y-137815672D01*
X86578789Y-137800000D01*
X86659130Y-137800000D01*
X86733355Y-137769255D01*
X86812144Y-137753583D01*
X86878938Y-137708952D01*
X86953164Y-137678207D01*
X87009975Y-137621396D01*
X87076767Y-137576767D01*
X87121396Y-137509975D01*
X87178207Y-137453164D01*
X87208952Y-137378938D01*
X87253583Y-137312144D01*
X87269255Y-137233355D01*
X87300000Y-137159130D01*
X87300000Y-105840870D01*
X87269255Y-105766645D01*
X87253583Y-105687856D01*
X87208952Y-105621062D01*
X87178207Y-105546836D01*
X87121396Y-105490025D01*
X87076767Y-105423233D01*
X87009975Y-105378604D01*
X86953164Y-105321793D01*
X86878936Y-105291047D01*
X86812143Y-105246417D01*
X86733355Y-105230745D01*
X86659130Y-105200000D01*
X86578789Y-105200000D01*
X86500000Y-105184328D01*
X86421211Y-105200000D01*
X86340870Y-105200000D01*
X86266645Y-105230745D01*
X86187856Y-105246417D01*
X86121062Y-105291048D01*
X86046836Y-105321793D01*
X85990025Y-105378604D01*
X85923233Y-105423233D01*
X85878604Y-105490025D01*
X85821793Y-105546836D01*
X85791047Y-105621064D01*
X85746417Y-105687857D01*
X85730745Y-105766644D01*
X85700000Y-105840870D01*
X82405000Y-105840870D01*
X82405000Y-64500000D01*
X85184329Y-64500000D01*
X85200000Y-64578784D01*
X85200000Y-64659130D01*
X85230747Y-64733359D01*
X85246418Y-64812144D01*
X85291046Y-64878935D01*
X85321793Y-64953164D01*
X85546836Y-65178207D01*
X85546838Y-65178208D01*
X85700001Y-65331371D01*
X85700000Y-74840870D01*
X85700000Y-75159130D01*
X85730745Y-75233356D01*
X85746417Y-75312143D01*
X85791047Y-75378936D01*
X85821793Y-75453164D01*
X85878604Y-75509975D01*
X85923233Y-75576767D01*
X85990025Y-75621396D01*
X86046836Y-75678207D01*
X86121062Y-75708952D01*
X86187856Y-75753583D01*
X86266645Y-75769255D01*
X86340870Y-75800000D01*
X86421211Y-75800000D01*
X86500000Y-75815672D01*
X86578789Y-75800000D01*
X86659130Y-75800000D01*
X86733355Y-75769255D01*
X86812143Y-75753583D01*
X86878936Y-75708953D01*
X86953164Y-75678207D01*
X87009975Y-75621396D01*
X87076767Y-75576767D01*
X87121396Y-75509975D01*
X87178207Y-75453164D01*
X87208952Y-75378938D01*
X87253583Y-75312144D01*
X87269255Y-75233355D01*
X87300000Y-75159130D01*
X87300000Y-65078784D01*
X87315671Y-65000000D01*
X87300000Y-64921216D01*
X87300000Y-64921211D01*
X87253583Y-64687856D01*
X87076767Y-64423233D01*
X87009972Y-64378602D01*
X86678208Y-64046838D01*
X86678207Y-64046836D01*
X86453164Y-63821793D01*
X86378935Y-63791046D01*
X86312144Y-63746418D01*
X86233359Y-63730747D01*
X86159130Y-63700000D01*
X86078784Y-63700000D01*
X86000000Y-63684329D01*
X85921216Y-63700000D01*
X85840870Y-63700000D01*
X85766641Y-63730747D01*
X85687856Y-63746418D01*
X85621065Y-63791046D01*
X85546836Y-63821793D01*
X85490025Y-63878604D01*
X85423233Y-63923233D01*
X85378604Y-63990025D01*
X85321793Y-64046836D01*
X85291046Y-64121065D01*
X85246418Y-64187856D01*
X85230747Y-64266641D01*
X85200000Y-64340870D01*
X85200000Y-64421216D01*
X85184329Y-64500000D01*
X82405000Y-64500000D01*
X82405000Y-59879658D01*
X86895000Y-59879658D01*
X86895000Y-60120342D01*
X86987105Y-60342705D01*
X87157295Y-60512895D01*
X87379658Y-60605000D01*
X87620342Y-60605000D01*
X87842705Y-60512895D01*
X88012895Y-60342705D01*
X88105000Y-60120342D01*
X88105000Y-59879658D01*
X88012895Y-59657295D01*
X87842705Y-59487105D01*
X87620342Y-59395000D01*
X87379658Y-59395000D01*
X87157295Y-59487105D01*
X86987105Y-59657295D01*
X86895000Y-59879658D01*
X82405000Y-59879658D01*
X82405000Y-57404043D01*
X82752893Y-57731370D01*
X82965818Y-57802408D01*
X83160000Y-57761895D01*
X83160000Y-55300000D01*
X83140000Y-55300000D01*
X83140000Y-54700000D01*
X83160000Y-54700000D01*
X83160000Y-54680000D01*
X83750000Y-54680000D01*
X83750000Y-57700000D01*
G04 #@! TD*
M02*
