M48
;DRILL file {KiCad (5.0.1-3-g963ef8bb5)} date Tuesday, 05 February 2019 at 01:35:12
;FORMAT={-:-/ absolute / inch / decimal}
FMAT,2
INCH,TZ
T1C0.0157
T2C0.0197
T3C0.0394
%
G90
G05
M72
T1
X3.2858Y-2.4803
X3.2858Y-2.5394
X3.2858Y-14.311
X3.2858Y-14.3898
X3.2858Y-14.4488
X3.2874Y-2.6181
X3.3268Y-2.3622
X3.3268Y-14.5669
X3.3465Y-2.7854
X3.3465Y-2.8528
X3.3465Y-4.2732
X3.3465Y-4.3406
X3.3465Y-5.2264
X3.3465Y-5.2937
X3.3465Y-6.7142
X3.3465Y-6.7815
X3.3465Y-7.6673
X3.3465Y-7.7346
X3.3465Y-9.1551
X3.3465Y-9.2224
X3.3465Y-10.1083
X3.3465Y-10.1756
X3.3465Y-11.5961
X3.3465Y-11.6634
X3.3465Y-12.5492
X3.3465Y-12.6165
X3.3465Y-14.037
X3.3465Y-14.1043
X3.3858Y-2.5394
X3.3858Y-14.3898
X3.4055Y-2.9528
X3.4055Y-4.1732
X3.4055Y-5.3937
X3.4055Y-6.6142
X3.4055Y-7.8346
X3.4055Y-9.0551
X3.4055Y-10.2756
X3.4252Y-11.4961
X3.4252Y-12.7165
X3.4252Y-13.937
X3.4449Y-2.3622
X3.4449Y-14.5669
X3.7205Y-2.3622
X3.7205Y-14.5669
X3.7598Y-2.9528
X3.7598Y-4.1732
X3.7598Y-5.3937
X3.7598Y-6.6142
X3.7598Y-7.8346
X3.7598Y-9.0551
X3.7598Y-10.2756
X3.7598Y-11.4961
X3.7598Y-12.7165
X3.7598Y-13.937
X3.8189Y-2.7854
X3.8189Y-2.8543
X3.8189Y-4.2717
X3.8189Y-4.3406
X3.8189Y-5.2264
X3.8189Y-5.2937
X3.8189Y-6.7126
X3.8189Y-6.7815
X3.8189Y-7.6673
X3.8189Y-7.7362
X3.8189Y-9.1535
X3.8189Y-9.2224
X3.8189Y-10.1083
X3.8189Y-10.1772
X3.8189Y-11.5945
X3.8189Y-11.6634
X3.8189Y-12.5492
X3.8189Y-12.6181
X3.8189Y-14.0354
X3.8189Y-14.1043
X3.8386Y-2.3622
X3.8386Y-14.5669
X3.878Y-2.4409
X3.878Y-2.5295
X3.878Y-2.6181
X3.878Y-14.311
X3.878Y-14.3898
X3.878Y-14.4488
T2
X3.5512Y-2.1654
X3.5512Y-2.2047
X3.5512Y-2.2441
X3.5512Y-2.2835
X3.5512Y-2.3228
X3.5512Y-2.3622
X3.5512Y-4.0748
X3.5512Y-4.1142
X3.5512Y-4.1535
X3.5512Y-4.1929
X3.5512Y-4.2323
X3.5512Y-4.2717
X3.5512Y-6.5157
X3.5512Y-6.5551
X3.5512Y-6.5945
X3.5512Y-6.6339
X3.5512Y-6.6732
X3.5512Y-6.7126
X3.5512Y-8.3465
X3.5512Y-8.3858
X3.5512Y-8.4252
X3.5512Y-8.4646
X3.5512Y-8.5039
X3.5512Y-8.5433
X3.5512Y-10.1772
X3.5512Y-10.2165
X3.5512Y-10.2559
X3.5512Y-10.2953
X3.5512Y-10.3346
X3.5512Y-10.374
X3.5512Y-12.6181
X3.5512Y-12.6575
X3.5512Y-12.6969
X3.5512Y-12.7362
X3.5512Y-12.7756
X3.5512Y-12.815
X3.5512Y-14.5669
X3.5512Y-14.6063
X3.5512Y-14.6457
X3.5512Y-14.685
X3.5512Y-14.7244
X3.5512Y-14.7638
X3.6142Y-2.1654
X3.6142Y-2.2047
X3.6142Y-2.2441
X3.6142Y-2.2835
X3.6142Y-2.3228
X3.6142Y-2.3622
X3.6142Y-4.0748
X3.6142Y-4.1142
X3.6142Y-4.1535
X3.6142Y-4.1929
X3.6142Y-4.2323
X3.6142Y-4.2717
X3.6142Y-6.5157
X3.6142Y-6.5551
X3.6142Y-6.5945
X3.6142Y-6.6339
X3.6142Y-6.6732
X3.6142Y-6.7126
X3.6142Y-8.3465
X3.6142Y-8.3858
X3.6142Y-8.4252
X3.6142Y-8.4646
X3.6142Y-8.5039
X3.6142Y-8.5433
X3.6142Y-10.1772
X3.6142Y-10.2165
X3.6142Y-10.2559
X3.6142Y-10.2953
X3.6142Y-10.3346
X3.6142Y-10.374
X3.6142Y-12.6181
X3.6142Y-12.6575
X3.6142Y-12.6969
X3.6142Y-12.7362
X3.6142Y-12.7756
X3.6142Y-12.815
X3.6142Y-14.5669
X3.6142Y-14.6063
X3.6142Y-14.6457
X3.6142Y-14.685
X3.6142Y-14.7244
X3.6142Y-14.7638
T3
X3.678Y-14.7441
X3.878Y-14.7441
X3.2858Y-14.7441
X3.3858Y-14.7441
X3.4858Y-14.7441
X3.2858Y-2.1654
X3.3858Y-2.1654
X3.4858Y-2.1654
X3.6795Y-2.1654
X3.8795Y-2.1654
T0
M30
