G04 #@! TF.GenerationSoftware,KiCad,Pcbnew,(5.0.1-3-g963ef8bb5)*
G04 #@! TF.CreationDate,2019-02-05T01:35:03+01:00*
G04 #@! TF.ProjectId,WordClockStripeConnector12h,576F7264436C6F636B53747269706543,V1.1*
G04 #@! TF.SameCoordinates,Original*
G04 #@! TF.FileFunction,Copper,L1,Top,Signal*
G04 #@! TF.FilePolarity,Positive*
%FSLAX46Y46*%
G04 Gerber Fmt 4.6, Leading zero omitted, Abs format (unit mm)*
G04 Created by KiCad (PCBNEW (5.0.1-3-g963ef8bb5)) date Tuesday, 05 February 2019 at 01:35:03*
%MOMM*%
%LPD*%
G01*
G04 APERTURE LIST*
G04 #@! TA.AperFunction,SMDPad,CuDef*
%ADD10O,5.000000X1.800000*%
G04 #@! TD*
G04 #@! TA.AperFunction,SMDPad,CuDef*
%ADD11O,1.800000X5.000000*%
G04 #@! TD*
G04 #@! TA.AperFunction,ComponentPad*
%ADD12O,1.800000X5.000000*%
G04 #@! TD*
G04 #@! TA.AperFunction,ViaPad*
%ADD13C,0.501000*%
G04 #@! TD*
G04 #@! TA.AperFunction,ViaPad*
%ADD14C,0.410000*%
G04 #@! TD*
G04 #@! TA.AperFunction,ViaPad*
%ADD15C,0.800000*%
G04 #@! TD*
G04 #@! TA.AperFunction,Conductor*
%ADD16C,0.800000*%
G04 #@! TD*
G04 #@! TA.AperFunction,Conductor*
%ADD17C,0.250000*%
G04 #@! TD*
G04 #@! TA.AperFunction,Conductor*
%ADD18C,0.200000*%
G04 #@! TD*
G04 APERTURE END LIST*
D10*
G04 #@! TO.P,J105,3*
G04 #@! TO.N,Net-(J101-Pad3)*
X84850000Y-201540000D03*
G04 #@! TO.P,J105,2*
G04 #@! TO.N,Net-(J104-Pad2)*
X84850000Y-199000000D03*
G04 #@! TO.P,J105,1*
G04 #@! TO.N,Net-(J101-Pad1)*
X84850000Y-196460000D03*
G04 #@! TD*
G04 #@! TO.P,J101,3*
G04 #@! TO.N,Net-(J101-Pad3)*
X84850000Y-77540000D03*
G04 #@! TO.P,J101,2*
G04 #@! TO.N,Net-(J101-Pad2)*
X84850000Y-75000000D03*
G04 #@! TO.P,J101,1*
G04 #@! TO.N,Net-(J101-Pad1)*
X84850000Y-72460000D03*
G04 #@! TD*
G04 #@! TO.P,J104,1*
G04 #@! TO.N,Net-(J101-Pad1)*
X84850000Y-170540000D03*
G04 #@! TO.P,J104,2*
G04 #@! TO.N,Net-(J104-Pad2)*
X84850000Y-168000000D03*
G04 #@! TO.P,J104,3*
G04 #@! TO.N,Net-(J101-Pad3)*
X84850000Y-165460000D03*
G04 #@! TD*
G04 #@! TO.P,J103,1*
G04 #@! TO.N,Net-(J101-Pad1)*
X84850000Y-134460000D03*
G04 #@! TO.P,J103,2*
G04 #@! TO.N,Net-(J102-Pad2)*
X84850000Y-137000000D03*
G04 #@! TO.P,J103,3*
G04 #@! TO.N,Net-(J101-Pad3)*
X84850000Y-139540000D03*
G04 #@! TD*
G04 #@! TO.P,J102,1*
G04 #@! TO.N,Net-(J101-Pad1)*
X84850000Y-108540000D03*
G04 #@! TO.P,J102,2*
G04 #@! TO.N,Net-(J102-Pad2)*
X84850000Y-106000000D03*
G04 #@! TO.P,J102,3*
G04 #@! TO.N,Net-(J101-Pad3)*
X84850000Y-103460000D03*
G04 #@! TD*
G04 #@! TO.P,J107,1*
G04 #@! TO.N,Net-(J101-Pad1)*
X84850000Y-258460000D03*
G04 #@! TO.P,J107,2*
G04 #@! TO.N,Net-(J106-Pad2)*
X84850000Y-261000000D03*
G04 #@! TO.P,J107,3*
G04 #@! TO.N,Net-(J101-Pad3)*
X84850000Y-263540000D03*
G04 #@! TD*
G04 #@! TO.P,J109,3*
G04 #@! TO.N,Net-(J101-Pad3)*
X84850000Y-325540000D03*
G04 #@! TO.P,J109,2*
G04 #@! TO.N,Net-(J108-Pad2)*
X84850000Y-323000000D03*
G04 #@! TO.P,J109,1*
G04 #@! TO.N,Net-(J101-Pad1)*
X84850000Y-320460000D03*
G04 #@! TD*
D11*
G04 #@! TO.P,J13,3*
G04 #@! TO.N,Net-(J101-Pad3)*
X88540000Y-367000000D03*
G04 #@! TO.P,J13,2*
G04 #@! TO.N,Net-(J110-Pad2)*
X86000000Y-367000000D03*
G04 #@! TO.P,J13,1*
G04 #@! TO.N,Net-(J101-Pad1)*
X83460000Y-367000000D03*
G04 #@! TD*
D10*
G04 #@! TO.P,J110,1*
G04 #@! TO.N,Net-(J101-Pad1)*
X84850000Y-356540000D03*
G04 #@! TO.P,J110,2*
G04 #@! TO.N,Net-(J110-Pad2)*
X84850000Y-354000000D03*
G04 #@! TO.P,J110,3*
G04 #@! TO.N,Net-(J101-Pad3)*
X84850000Y-351460000D03*
G04 #@! TD*
G04 #@! TO.P,J106,3*
G04 #@! TO.N,Net-(J101-Pad3)*
X84850000Y-227460000D03*
G04 #@! TO.P,J106,2*
G04 #@! TO.N,Net-(J106-Pad2)*
X84850000Y-230000000D03*
G04 #@! TO.P,J106,1*
G04 #@! TO.N,Net-(J101-Pad1)*
X84850000Y-232540000D03*
G04 #@! TD*
D12*
G04 #@! TO.P,J14,3*
G04 #@! TO.N,Net-(J101-Pad3)*
X88540000Y-374500000D03*
G04 #@! TO.P,J14,2*
G04 #@! TO.N,Net-(J110-Pad2)*
X86000000Y-374500000D03*
G04 #@! TO.P,J14,1*
G04 #@! TO.N,Net-(J101-Pad1)*
X83460000Y-374500000D03*
G04 #@! TD*
D11*
G04 #@! TO.P,J11,3*
G04 #@! TO.N,Net-(J101-Pad3)*
X88540000Y-63000000D03*
G04 #@! TO.P,J11,2*
G04 #@! TO.N,Net-(J101-Pad2)*
X86000000Y-63000000D03*
G04 #@! TO.P,J11,1*
G04 #@! TO.N,Net-(J101-Pad1)*
X83460000Y-63000000D03*
G04 #@! TD*
D10*
G04 #@! TO.P,J108,3*
G04 #@! TO.N,Net-(J108-Pad3)*
X84850000Y-289460000D03*
G04 #@! TO.P,J108,2*
G04 #@! TO.N,Net-(J108-Pad2)*
X84850000Y-292000000D03*
G04 #@! TO.P,J108,1*
G04 #@! TO.N,Net-(J101-Pad1)*
X84850000Y-294540000D03*
G04 #@! TD*
D12*
G04 #@! TO.P,J12,3*
G04 #@! TO.N,Net-(J101-Pad3)*
X88540000Y-55000000D03*
G04 #@! TO.P,J12,2*
G04 #@! TO.N,Net-(J101-Pad2)*
X86000000Y-55000000D03*
G04 #@! TO.P,J12,1*
G04 #@! TO.N,Net-(J101-Pad1)*
X83460000Y-55000000D03*
G04 #@! TD*
D10*
G04 #@! TO.P,J201,3*
G04 #@! TO.N,Net-(J201-Pad3)*
X97150000Y-77540000D03*
G04 #@! TO.P,J201,2*
G04 #@! TO.N,Net-(J201-Pad2)*
X97150000Y-75000000D03*
G04 #@! TO.P,J201,1*
G04 #@! TO.N,Net-(J201-Pad1)*
X97150000Y-72460000D03*
G04 #@! TD*
G04 #@! TO.P,J207,3*
G04 #@! TO.N,Net-(J201-Pad3)*
X97150000Y-263540000D03*
G04 #@! TO.P,J207,2*
G04 #@! TO.N,Net-(J207-Pad2)*
X97150000Y-261000000D03*
G04 #@! TO.P,J207,1*
G04 #@! TO.N,Net-(J201-Pad1)*
X97150000Y-258460000D03*
G04 #@! TD*
G04 #@! TO.P,J205,3*
G04 #@! TO.N,Net-(J201-Pad3)*
X97150000Y-201540000D03*
G04 #@! TO.P,J205,2*
G04 #@! TO.N,Net-(J205-Pad2)*
X97150000Y-199000000D03*
G04 #@! TO.P,J205,1*
G04 #@! TO.N,Net-(J201-Pad1)*
X97150000Y-196460000D03*
G04 #@! TD*
G04 #@! TO.P,J203,1*
G04 #@! TO.N,Net-(J201-Pad1)*
X97150000Y-134460000D03*
G04 #@! TO.P,J203,2*
G04 #@! TO.N,Net-(J203-Pad2)*
X97150000Y-137000000D03*
G04 #@! TO.P,J203,3*
G04 #@! TO.N,Net-(J201-Pad3)*
X97150000Y-139540000D03*
G04 #@! TD*
D11*
G04 #@! TO.P,J23,2*
G04 #@! TO.N,Net-(J201-Pad3)*
X93460000Y-367000000D03*
G04 #@! TO.P,J23,1*
G04 #@! TO.N,Net-(J201-Pad1)*
X98540000Y-367000000D03*
G04 #@! TD*
D10*
G04 #@! TO.P,J204,3*
G04 #@! TO.N,Net-(J201-Pad3)*
X97150000Y-165460000D03*
G04 #@! TO.P,J204,2*
G04 #@! TO.N,Net-(J203-Pad2)*
X97150000Y-168000000D03*
G04 #@! TO.P,J204,1*
G04 #@! TO.N,Net-(J201-Pad1)*
X97150000Y-170540000D03*
G04 #@! TD*
G04 #@! TO.P,J202,1*
G04 #@! TO.N,Net-(J201-Pad1)*
X97150000Y-108540000D03*
G04 #@! TO.P,J202,2*
G04 #@! TO.N,Net-(J201-Pad2)*
X97150000Y-106000000D03*
G04 #@! TO.P,J202,3*
G04 #@! TO.N,Net-(J201-Pad3)*
X97150000Y-103460000D03*
G04 #@! TD*
G04 #@! TO.P,J209,1*
G04 #@! TO.N,Net-(J201-Pad1)*
X97150000Y-320460000D03*
G04 #@! TO.P,J209,2*
G04 #@! TO.N,Net-(J209-Pad2)*
X97150000Y-323000000D03*
G04 #@! TO.P,J209,3*
G04 #@! TO.N,Net-(J201-Pad3)*
X97150000Y-325540000D03*
G04 #@! TD*
G04 #@! TO.P,J208,3*
G04 #@! TO.N,Net-(J201-Pad3)*
X97150000Y-289460000D03*
G04 #@! TO.P,J208,2*
G04 #@! TO.N,Net-(J207-Pad2)*
X97150000Y-292000000D03*
G04 #@! TO.P,J208,1*
G04 #@! TO.N,Net-(J201-Pad1)*
X97150000Y-294540000D03*
G04 #@! TD*
D11*
G04 #@! TO.P,J21,2*
G04 #@! TO.N,Net-(J201-Pad3)*
X93460000Y-63000000D03*
G04 #@! TO.P,J21,1*
G04 #@! TO.N,Net-(J201-Pad1)*
X98540000Y-63000000D03*
G04 #@! TD*
D10*
G04 #@! TO.P,J210,1*
G04 #@! TO.N,Net-(J201-Pad1)*
X97150000Y-356490000D03*
G04 #@! TO.P,J210,2*
G04 #@! TO.N,Net-(J209-Pad2)*
X97150000Y-353950000D03*
G04 #@! TO.P,J210,3*
G04 #@! TO.N,Net-(J201-Pad3)*
X97150000Y-351410000D03*
G04 #@! TD*
D12*
G04 #@! TO.P,J24,2*
G04 #@! TO.N,Net-(J201-Pad3)*
X93420000Y-374500000D03*
G04 #@! TO.P,J24,1*
G04 #@! TO.N,Net-(J201-Pad1)*
X98500000Y-374500000D03*
G04 #@! TD*
G04 #@! TO.P,J22,2*
G04 #@! TO.N,Net-(J201-Pad3)*
X93460000Y-55000000D03*
G04 #@! TO.P,J22,1*
G04 #@! TO.N,Net-(J201-Pad1)*
X98540000Y-55000000D03*
G04 #@! TD*
D10*
G04 #@! TO.P,J206,1*
G04 #@! TO.N,Net-(J201-Pad1)*
X97150000Y-232540000D03*
G04 #@! TO.P,J206,2*
G04 #@! TO.N,Net-(J205-Pad2)*
X97150000Y-230000000D03*
G04 #@! TO.P,J206,3*
G04 #@! TO.N,Net-(J201-Pad3)*
X97150000Y-227460000D03*
G04 #@! TD*
D13*
G04 #@! TO.N,*
X90200000Y-55000000D03*
X90200000Y-56000000D03*
X90200000Y-57000000D03*
X90200000Y-58000000D03*
X90200000Y-59000000D03*
X90200000Y-60000000D03*
X91800000Y-60000000D03*
X91800000Y-58000000D03*
X91800000Y-57000000D03*
X91800000Y-56000000D03*
X91800000Y-59000000D03*
X91800000Y-55000000D03*
X91800000Y-374000000D03*
X90200000Y-371000000D03*
X91800000Y-372000000D03*
X91800000Y-375000000D03*
X90200000Y-372000000D03*
X91800000Y-370000000D03*
X90200000Y-375000000D03*
X90200000Y-374000000D03*
X90200000Y-373000000D03*
X90200000Y-370000000D03*
X91800000Y-373000000D03*
X91800000Y-371000000D03*
X90200000Y-323500000D03*
X90200000Y-320500000D03*
X90200000Y-325500000D03*
X90200000Y-324500000D03*
X90200000Y-322500000D03*
X91800000Y-320500000D03*
X90200000Y-321500000D03*
X91800000Y-323500000D03*
X91800000Y-322500000D03*
X91800000Y-324500000D03*
X91800000Y-321500000D03*
X91800000Y-325500000D03*
X90200000Y-263500000D03*
X91800000Y-262500000D03*
X91800000Y-258500000D03*
X91800000Y-263500000D03*
X90200000Y-261500000D03*
X91800000Y-261500000D03*
X90200000Y-260500000D03*
X90200000Y-258500000D03*
X91800000Y-259500000D03*
X90200000Y-262500000D03*
X90200000Y-259500000D03*
X91800000Y-260500000D03*
X90200000Y-104500000D03*
X91800000Y-108500000D03*
X90200000Y-108500000D03*
X91800000Y-104500000D03*
X90200000Y-106500000D03*
X91800000Y-107500000D03*
X90200000Y-107500000D03*
X90200000Y-105500000D03*
X91800000Y-105500000D03*
X91800000Y-103500000D03*
X91800000Y-106500000D03*
X90200000Y-103500000D03*
X90200000Y-165500000D03*
X91800000Y-165500000D03*
X91800000Y-166500000D03*
X90200000Y-166500000D03*
X90200000Y-167500000D03*
X91800000Y-167500000D03*
X91800000Y-168500000D03*
X90200000Y-168500000D03*
X90200000Y-169500000D03*
X91800000Y-169500000D03*
X91800000Y-170500000D03*
X90200000Y-170500000D03*
X91800000Y-212000000D03*
X91800000Y-213000000D03*
X91800000Y-214000000D03*
X91800000Y-215000000D03*
X91800000Y-216000000D03*
X91800000Y-217000000D03*
X90200000Y-217000000D03*
X90200000Y-216000000D03*
X90200000Y-215000000D03*
X90200000Y-214000000D03*
X90200000Y-213000000D03*
X90200000Y-212000000D03*
D14*
G04 #@! TO.N,Net-(J101-Pad3)*
X87500000Y-370000000D03*
X87500000Y-60000000D03*
D15*
G04 #@! TO.N,Net-(J101-Pad2)*
X86000000Y-64500000D03*
X86500000Y-75000000D03*
G04 #@! TO.N,Net-(J101-Pad1)*
X83460000Y-63000000D03*
X85000000Y-196460000D03*
X85000000Y-232540000D03*
X85000000Y-258460000D03*
X85000000Y-320460000D03*
X85000000Y-294540000D03*
X85000000Y-356540000D03*
X85000000Y-72460000D03*
X85000000Y-134460000D03*
X85000000Y-108540000D03*
X85000000Y-256750000D03*
X83500000Y-66500000D03*
X83460000Y-367000000D03*
X83460000Y-365500000D03*
X85000000Y-170540000D03*
D14*
X84500000Y-370000000D03*
X84500000Y-60000000D03*
D15*
X85000000Y-234250000D03*
X85000000Y-70750000D03*
X85000000Y-110250000D03*
X85000000Y-318750000D03*
X83460000Y-64500000D03*
X85000000Y-132750000D03*
X85000000Y-172250000D03*
X85000000Y-194750000D03*
X85000000Y-296250000D03*
X83460000Y-363500000D03*
X85000000Y-358250000D03*
G04 #@! TO.N,Net-(J110-Pad2)*
X87000000Y-354000000D03*
X86000000Y-365500000D03*
G04 #@! TO.N,Net-(J201-Pad1)*
X97000000Y-358250000D03*
X97000000Y-356500000D03*
X98500000Y-365500000D03*
X97000000Y-320500000D03*
X97000000Y-294500000D03*
X97000000Y-258500000D03*
X97000000Y-232500000D03*
X97000000Y-196500000D03*
X97000000Y-170500000D03*
X97000000Y-108500000D03*
X97000000Y-72500000D03*
X98500000Y-62000000D03*
X98500000Y-64250000D03*
X97000000Y-318750000D03*
X97000000Y-256750000D03*
X97000000Y-234250000D03*
X97000000Y-194750000D03*
X97000000Y-172250000D03*
X97000000Y-110250000D03*
X97000000Y-132750000D03*
X97000000Y-70750000D03*
X98500000Y-66500000D03*
X97000000Y-134460000D03*
X98500000Y-367000000D03*
X98500000Y-363500000D03*
D14*
X97500000Y-370000000D03*
X97500000Y-60000000D03*
D15*
X97000000Y-296250000D03*
D14*
G04 #@! TO.N,Net-(J201-Pad3)*
X94500000Y-370000000D03*
X94500000Y-60000000D03*
D15*
G04 #@! TO.N,Net-(J102-Pad2)*
X86500000Y-137000000D03*
X86500000Y-106000000D03*
G04 #@! TO.N,Net-(J104-Pad2)*
X86500000Y-168000000D03*
X86500000Y-199000000D03*
G04 #@! TO.N,Net-(J106-Pad2)*
X86500000Y-230000000D03*
X86500000Y-261000000D03*
G04 #@! TO.N,Net-(J108-Pad2)*
X87000000Y-292000000D03*
X87000000Y-323000000D03*
G04 #@! TO.N,Net-(J201-Pad2)*
X95500000Y-75000000D03*
X95500000Y-106000000D03*
G04 #@! TO.N,Net-(J203-Pad2)*
X95500000Y-137000000D03*
X95500000Y-168000000D03*
G04 #@! TO.N,Net-(J205-Pad2)*
X95500000Y-199000000D03*
X95500000Y-230000000D03*
G04 #@! TO.N,Net-(J207-Pad2)*
X95500000Y-261000000D03*
X95500000Y-292000000D03*
G04 #@! TO.N,Net-(J209-Pad2)*
X95500000Y-323000000D03*
X95500000Y-354000000D03*
G04 #@! TD*
D16*
G04 #@! TO.N,Net-(J101-Pad3)*
X88540000Y-374500000D02*
X88540000Y-361040000D01*
X88540000Y-63000000D02*
X88540000Y-66960000D01*
G04 #@! TO.N,Net-(J101-Pad2)*
X86000000Y-63000000D02*
X86000000Y-55000000D01*
D17*
G04 #@! TO.N,Net-(J101-Pad1)*
X85000000Y-72460000D02*
X85000000Y-72460000D01*
X85000000Y-108540000D02*
X85000000Y-108540000D01*
D16*
X83460000Y-367000000D02*
X83460000Y-367000000D01*
D17*
X85000000Y-170540000D02*
X85000000Y-172500000D01*
X85000000Y-196460000D02*
X85000000Y-194500000D01*
X85000000Y-232540000D02*
X85000000Y-234250000D01*
X85000000Y-258460000D02*
X85000000Y-256750000D01*
X85000000Y-320460000D02*
X85000000Y-318500000D01*
X85000000Y-294540000D02*
X85000000Y-296500000D01*
X85000000Y-356540000D02*
X85000000Y-356540000D01*
X85000000Y-134460000D02*
X85000000Y-134460000D01*
X85000000Y-256750000D02*
X85000000Y-256500000D01*
D16*
X83460000Y-374500000D02*
X83460000Y-361540000D01*
D17*
X85000000Y-234250000D02*
X85000000Y-234500000D01*
X83460000Y-64250000D02*
X83460000Y-63000000D01*
X85000000Y-320460000D02*
X85000000Y-320460000D01*
X85000000Y-132500000D02*
X85000000Y-134460000D01*
X85000000Y-108540000D02*
X85000000Y-110500000D01*
X85000000Y-170540000D02*
X85000000Y-170540000D01*
X85000000Y-196460000D02*
X85000000Y-196460000D01*
X85000000Y-232540000D02*
X85000000Y-232540000D01*
X85000000Y-258460000D02*
X85000000Y-258460000D01*
X85000000Y-294540000D02*
X85000000Y-294540000D01*
X85000000Y-356540000D02*
X85000000Y-358250000D01*
D16*
G04 #@! TO.N,Net-(J110-Pad2)*
X86000000Y-374500000D02*
X86000000Y-367000000D01*
D17*
G04 #@! TO.N,Net-(J201-Pad1)*
X97000000Y-134460000D02*
X97000000Y-134460000D01*
D16*
X98540000Y-55000000D02*
X98540000Y-67460000D01*
X98500000Y-374500000D02*
X98500000Y-362500000D01*
X98500000Y-366960000D02*
X98540000Y-367000000D01*
D17*
X97000000Y-358500000D02*
X97000000Y-356500000D01*
D16*
G04 #@! TO.N,Net-(J201-Pad3)*
X93460000Y-55000000D02*
X93460000Y-66960000D01*
X93420000Y-374500000D02*
X93420000Y-361580000D01*
D17*
X97000000Y-263540000D02*
X97000000Y-289460000D01*
X97000000Y-201540000D02*
X97000000Y-202690000D01*
X97000000Y-139540000D02*
X97000000Y-140690000D01*
G04 #@! TO.N,Net-(J102-Pad2)*
X85000000Y-137000000D02*
X86500000Y-137000000D01*
X85000000Y-106000000D02*
X86500000Y-106000000D01*
G04 #@! TO.N,Net-(J201-Pad2)*
X97000000Y-106000000D02*
X95500000Y-106000000D01*
G04 #@! TD*
D18*
G04 #@! TO.N,Net-(J201-Pad1)*
G36*
X97453762Y-52625348D02*
X97240000Y-53100000D01*
X97240000Y-54700000D01*
X98240000Y-54700000D01*
X98240000Y-54680000D01*
X98840000Y-54680000D01*
X98840000Y-54700000D01*
X98860000Y-54700000D01*
X98860000Y-55300000D01*
X98840000Y-55300000D01*
X98840000Y-57761895D01*
X99034182Y-57802408D01*
X99247107Y-57731370D01*
X99595000Y-57404043D01*
X99595000Y-60595957D01*
X99247107Y-60268630D01*
X99034182Y-60197592D01*
X98840000Y-60238105D01*
X98840000Y-62700000D01*
X98860000Y-62700000D01*
X98860000Y-63300000D01*
X98840000Y-63300000D01*
X98840000Y-65761895D01*
X99034182Y-65802408D01*
X99247107Y-65731370D01*
X99595000Y-65404043D01*
X99595000Y-71150000D01*
X98750000Y-71150000D01*
X98711732Y-71157612D01*
X98708158Y-71160000D01*
X97450000Y-71160000D01*
X97450000Y-72160000D01*
X97470000Y-72160000D01*
X97470000Y-72350000D01*
X96830000Y-72350000D01*
X96830000Y-72160000D01*
X96850000Y-72160000D01*
X96850000Y-71160000D01*
X96600000Y-71160000D01*
X96600000Y-63300000D01*
X97240000Y-63300000D01*
X97240000Y-64900000D01*
X97453762Y-65374652D01*
X97832893Y-65731370D01*
X98045818Y-65802408D01*
X98240000Y-65761895D01*
X98240000Y-63300000D01*
X97240000Y-63300000D01*
X96600000Y-63300000D01*
X96600000Y-61100000D01*
X97240000Y-61100000D01*
X97240000Y-62700000D01*
X98240000Y-62700000D01*
X98240000Y-60238105D01*
X98045818Y-60197592D01*
X97832893Y-60268630D01*
X97453762Y-60625348D01*
X97240000Y-61100000D01*
X96600000Y-61100000D01*
X96600000Y-55300000D01*
X97240000Y-55300000D01*
X97240000Y-56900000D01*
X97453762Y-57374652D01*
X97832893Y-57731370D01*
X98045818Y-57802408D01*
X98240000Y-57761895D01*
X98240000Y-55300000D01*
X97240000Y-55300000D01*
X96600000Y-55300000D01*
X96600000Y-52405000D01*
X97687955Y-52405000D01*
X97453762Y-52625348D01*
X97453762Y-52625348D01*
G37*
X97453762Y-52625348D02*
X97240000Y-53100000D01*
X97240000Y-54700000D01*
X98240000Y-54700000D01*
X98240000Y-54680000D01*
X98840000Y-54680000D01*
X98840000Y-54700000D01*
X98860000Y-54700000D01*
X98860000Y-55300000D01*
X98840000Y-55300000D01*
X98840000Y-57761895D01*
X99034182Y-57802408D01*
X99247107Y-57731370D01*
X99595000Y-57404043D01*
X99595000Y-60595957D01*
X99247107Y-60268630D01*
X99034182Y-60197592D01*
X98840000Y-60238105D01*
X98840000Y-62700000D01*
X98860000Y-62700000D01*
X98860000Y-63300000D01*
X98840000Y-63300000D01*
X98840000Y-65761895D01*
X99034182Y-65802408D01*
X99247107Y-65731370D01*
X99595000Y-65404043D01*
X99595000Y-71150000D01*
X98750000Y-71150000D01*
X98711732Y-71157612D01*
X98708158Y-71160000D01*
X97450000Y-71160000D01*
X97450000Y-72160000D01*
X97470000Y-72160000D01*
X97470000Y-72350000D01*
X96830000Y-72350000D01*
X96830000Y-72160000D01*
X96850000Y-72160000D01*
X96850000Y-71160000D01*
X96600000Y-71160000D01*
X96600000Y-63300000D01*
X97240000Y-63300000D01*
X97240000Y-64900000D01*
X97453762Y-65374652D01*
X97832893Y-65731370D01*
X98045818Y-65802408D01*
X98240000Y-65761895D01*
X98240000Y-63300000D01*
X97240000Y-63300000D01*
X96600000Y-63300000D01*
X96600000Y-61100000D01*
X97240000Y-61100000D01*
X97240000Y-62700000D01*
X98240000Y-62700000D01*
X98240000Y-60238105D01*
X98045818Y-60197592D01*
X97832893Y-60268630D01*
X97453762Y-60625348D01*
X97240000Y-61100000D01*
X96600000Y-61100000D01*
X96600000Y-55300000D01*
X97240000Y-55300000D01*
X97240000Y-56900000D01*
X97453762Y-57374652D01*
X97832893Y-57731370D01*
X98045818Y-57802408D01*
X98240000Y-57761895D01*
X98240000Y-55300000D01*
X97240000Y-55300000D01*
X96600000Y-55300000D01*
X96600000Y-52405000D01*
X97687955Y-52405000D01*
X97453762Y-52625348D01*
G36*
X97470000Y-356790000D02*
X97450000Y-356790000D01*
X97450000Y-357790000D01*
X98708158Y-357790000D01*
X98711732Y-357792388D01*
X98750000Y-357800000D01*
X99595001Y-357800000D01*
X99595001Y-364595958D01*
X99247107Y-364268630D01*
X99034182Y-364197592D01*
X98840000Y-364238105D01*
X98840000Y-366700000D01*
X98860000Y-366700000D01*
X98860000Y-367300000D01*
X98840000Y-367300000D01*
X98840000Y-369761895D01*
X99034182Y-369802408D01*
X99247107Y-369731370D01*
X99595001Y-369404042D01*
X99595001Y-372144806D01*
X99586238Y-372125348D01*
X99207107Y-371768630D01*
X98994182Y-371697592D01*
X98800000Y-371738105D01*
X98800000Y-374200000D01*
X98820000Y-374200000D01*
X98820000Y-374800000D01*
X98800000Y-374800000D01*
X98800000Y-374820000D01*
X98200000Y-374820000D01*
X98200000Y-374800000D01*
X97200000Y-374800000D01*
X97200000Y-376400000D01*
X97413762Y-376874652D01*
X97647955Y-377095000D01*
X96600000Y-377095000D01*
X96600000Y-372600000D01*
X97200000Y-372600000D01*
X97200000Y-374200000D01*
X98200000Y-374200000D01*
X98200000Y-371738105D01*
X98005818Y-371697592D01*
X97792893Y-371768630D01*
X97413762Y-372125348D01*
X97200000Y-372600000D01*
X96600000Y-372600000D01*
X96600000Y-367300000D01*
X97240000Y-367300000D01*
X97240000Y-368900000D01*
X97453762Y-369374652D01*
X97832893Y-369731370D01*
X98045818Y-369802408D01*
X98240000Y-369761895D01*
X98240000Y-367300000D01*
X97240000Y-367300000D01*
X96600000Y-367300000D01*
X96600000Y-365100000D01*
X97240000Y-365100000D01*
X97240000Y-366700000D01*
X98240000Y-366700000D01*
X98240000Y-364238105D01*
X98045818Y-364197592D01*
X97832893Y-364268630D01*
X97453762Y-364625348D01*
X97240000Y-365100000D01*
X96600000Y-365100000D01*
X96600000Y-357790000D01*
X96850000Y-357790000D01*
X96850000Y-356790000D01*
X96830000Y-356790000D01*
X96830000Y-356600000D01*
X97470000Y-356600000D01*
X97470000Y-356790000D01*
X97470000Y-356790000D01*
G37*
X97470000Y-356790000D02*
X97450000Y-356790000D01*
X97450000Y-357790000D01*
X98708158Y-357790000D01*
X98711732Y-357792388D01*
X98750000Y-357800000D01*
X99595001Y-357800000D01*
X99595001Y-364595958D01*
X99247107Y-364268630D01*
X99034182Y-364197592D01*
X98840000Y-364238105D01*
X98840000Y-366700000D01*
X98860000Y-366700000D01*
X98860000Y-367300000D01*
X98840000Y-367300000D01*
X98840000Y-369761895D01*
X99034182Y-369802408D01*
X99247107Y-369731370D01*
X99595001Y-369404042D01*
X99595001Y-372144806D01*
X99586238Y-372125348D01*
X99207107Y-371768630D01*
X98994182Y-371697592D01*
X98800000Y-371738105D01*
X98800000Y-374200000D01*
X98820000Y-374200000D01*
X98820000Y-374800000D01*
X98800000Y-374800000D01*
X98800000Y-374820000D01*
X98200000Y-374820000D01*
X98200000Y-374800000D01*
X97200000Y-374800000D01*
X97200000Y-376400000D01*
X97413762Y-376874652D01*
X97647955Y-377095000D01*
X96600000Y-377095000D01*
X96600000Y-372600000D01*
X97200000Y-372600000D01*
X97200000Y-374200000D01*
X98200000Y-374200000D01*
X98200000Y-371738105D01*
X98005818Y-371697592D01*
X97792893Y-371768630D01*
X97413762Y-372125348D01*
X97200000Y-372600000D01*
X96600000Y-372600000D01*
X96600000Y-367300000D01*
X97240000Y-367300000D01*
X97240000Y-368900000D01*
X97453762Y-369374652D01*
X97832893Y-369731370D01*
X98045818Y-369802408D01*
X98240000Y-369761895D01*
X98240000Y-367300000D01*
X97240000Y-367300000D01*
X96600000Y-367300000D01*
X96600000Y-365100000D01*
X97240000Y-365100000D01*
X97240000Y-366700000D01*
X98240000Y-366700000D01*
X98240000Y-364238105D01*
X98045818Y-364197592D01*
X97832893Y-364268630D01*
X97453762Y-364625348D01*
X97240000Y-365100000D01*
X96600000Y-365100000D01*
X96600000Y-357790000D01*
X96850000Y-357790000D01*
X96850000Y-356790000D01*
X96830000Y-356790000D01*
X96830000Y-356600000D01*
X97470000Y-356600000D01*
X97470000Y-356790000D01*
G36*
X97470000Y-294840000D02*
X97450000Y-294840000D01*
X97450000Y-295840000D01*
X98708158Y-295840000D01*
X98711732Y-295842388D01*
X98750000Y-295850000D01*
X99595001Y-295850000D01*
X99595001Y-319150000D01*
X98750000Y-319150000D01*
X98711732Y-319157612D01*
X98708158Y-319160000D01*
X97450000Y-319160000D01*
X97450000Y-320160000D01*
X97470000Y-320160000D01*
X97470000Y-320350000D01*
X96830000Y-320350000D01*
X96830000Y-320160000D01*
X96850000Y-320160000D01*
X96850000Y-319160000D01*
X96600000Y-319160000D01*
X96600000Y-295840000D01*
X96850000Y-295840000D01*
X96850000Y-294840000D01*
X96830000Y-294840000D01*
X96830000Y-294650000D01*
X97470000Y-294650000D01*
X97470000Y-294840000D01*
X97470000Y-294840000D01*
G37*
X97470000Y-294840000D02*
X97450000Y-294840000D01*
X97450000Y-295840000D01*
X98708158Y-295840000D01*
X98711732Y-295842388D01*
X98750000Y-295850000D01*
X99595001Y-295850000D01*
X99595001Y-319150000D01*
X98750000Y-319150000D01*
X98711732Y-319157612D01*
X98708158Y-319160000D01*
X97450000Y-319160000D01*
X97450000Y-320160000D01*
X97470000Y-320160000D01*
X97470000Y-320350000D01*
X96830000Y-320350000D01*
X96830000Y-320160000D01*
X96850000Y-320160000D01*
X96850000Y-319160000D01*
X96600000Y-319160000D01*
X96600000Y-295840000D01*
X96850000Y-295840000D01*
X96850000Y-294840000D01*
X96830000Y-294840000D01*
X96830000Y-294650000D01*
X97470000Y-294650000D01*
X97470000Y-294840000D01*
G36*
X97470000Y-108840000D02*
X97450000Y-108840000D01*
X97450000Y-109840000D01*
X98708158Y-109840000D01*
X98711732Y-109842388D01*
X98750000Y-109850000D01*
X99595000Y-109850000D01*
X99595000Y-133150000D01*
X98750000Y-133150000D01*
X98711732Y-133157612D01*
X98708158Y-133160000D01*
X97450000Y-133160000D01*
X97450000Y-134160000D01*
X97470000Y-134160000D01*
X97470000Y-134350000D01*
X96830000Y-134350000D01*
X96830000Y-134160000D01*
X96850000Y-134160000D01*
X96850000Y-133160000D01*
X96600000Y-133160000D01*
X96600000Y-109840000D01*
X96850000Y-109840000D01*
X96850000Y-108840000D01*
X96830000Y-108840000D01*
X96830000Y-108650000D01*
X97470000Y-108650000D01*
X97470000Y-108840000D01*
X97470000Y-108840000D01*
G37*
X97470000Y-108840000D02*
X97450000Y-108840000D01*
X97450000Y-109840000D01*
X98708158Y-109840000D01*
X98711732Y-109842388D01*
X98750000Y-109850000D01*
X99595000Y-109850000D01*
X99595000Y-133150000D01*
X98750000Y-133150000D01*
X98711732Y-133157612D01*
X98708158Y-133160000D01*
X97450000Y-133160000D01*
X97450000Y-134160000D01*
X97470000Y-134160000D01*
X97470000Y-134350000D01*
X96830000Y-134350000D01*
X96830000Y-134160000D01*
X96850000Y-134160000D01*
X96850000Y-133160000D01*
X96600000Y-133160000D01*
X96600000Y-109840000D01*
X96850000Y-109840000D01*
X96850000Y-108840000D01*
X96830000Y-108840000D01*
X96830000Y-108650000D01*
X97470000Y-108650000D01*
X97470000Y-108840000D01*
G36*
X97470000Y-232840000D02*
X97450000Y-232840000D01*
X97450000Y-233840000D01*
X98708158Y-233840000D01*
X98711732Y-233842388D01*
X98750000Y-233850000D01*
X99595001Y-233850000D01*
X99595001Y-257150000D01*
X98750000Y-257150000D01*
X98711732Y-257157612D01*
X98708158Y-257160000D01*
X97450000Y-257160000D01*
X97450000Y-258160000D01*
X97470000Y-258160000D01*
X97470000Y-258350000D01*
X96830000Y-258350000D01*
X96830000Y-258160000D01*
X96850000Y-258160000D01*
X96850000Y-257160000D01*
X96600000Y-257160000D01*
X96600000Y-233840000D01*
X96850000Y-233840000D01*
X96850000Y-232840000D01*
X96830000Y-232840000D01*
X96830000Y-232650000D01*
X97470000Y-232650000D01*
X97470000Y-232840000D01*
X97470000Y-232840000D01*
G37*
X97470000Y-232840000D02*
X97450000Y-232840000D01*
X97450000Y-233840000D01*
X98708158Y-233840000D01*
X98711732Y-233842388D01*
X98750000Y-233850000D01*
X99595001Y-233850000D01*
X99595001Y-257150000D01*
X98750000Y-257150000D01*
X98711732Y-257157612D01*
X98708158Y-257160000D01*
X97450000Y-257160000D01*
X97450000Y-258160000D01*
X97470000Y-258160000D01*
X97470000Y-258350000D01*
X96830000Y-258350000D01*
X96830000Y-258160000D01*
X96850000Y-258160000D01*
X96850000Y-257160000D01*
X96600000Y-257160000D01*
X96600000Y-233840000D01*
X96850000Y-233840000D01*
X96850000Y-232840000D01*
X96830000Y-232840000D01*
X96830000Y-232650000D01*
X97470000Y-232650000D01*
X97470000Y-232840000D01*
G04 #@! TO.N,Net-(J201-Pad3)*
G36*
X96100000Y-71160000D02*
X95421963Y-71160000D01*
X95042765Y-71235427D01*
X94612753Y-71522753D01*
X94325427Y-71952765D01*
X94224532Y-72460000D01*
X94250000Y-72588037D01*
X94250000Y-74871963D01*
X94224532Y-75000000D01*
X94250000Y-75128037D01*
X94250000Y-77250000D01*
X94257612Y-77288268D01*
X94279289Y-77320711D01*
X94311732Y-77342388D01*
X94350000Y-77350000D01*
X97404337Y-77350000D01*
X97470000Y-77425765D01*
X97470000Y-77840000D01*
X97450000Y-77840000D01*
X97450000Y-78840000D01*
X98708420Y-78840000D01*
X98711732Y-78842388D01*
X98750000Y-78850000D01*
X99595000Y-78850000D01*
X99595000Y-102150000D01*
X98750000Y-102150000D01*
X98711732Y-102157612D01*
X98708158Y-102160000D01*
X97450000Y-102160000D01*
X97450000Y-103160000D01*
X97470000Y-103160000D01*
X97470000Y-103388578D01*
X97208578Y-103650000D01*
X94350000Y-103650000D01*
X94311732Y-103657612D01*
X94279289Y-103679289D01*
X94257612Y-103711732D01*
X94250000Y-103750000D01*
X94250000Y-105871963D01*
X94224532Y-106000000D01*
X94250000Y-106128037D01*
X94250000Y-108411963D01*
X94224532Y-108540000D01*
X94325427Y-109047235D01*
X94612753Y-109477247D01*
X95042765Y-109764573D01*
X95421963Y-109840000D01*
X96100000Y-109840000D01*
X96100000Y-133160000D01*
X95421963Y-133160000D01*
X95042765Y-133235427D01*
X94612753Y-133522753D01*
X94325427Y-133952765D01*
X94224532Y-134460000D01*
X94250000Y-134588037D01*
X94250000Y-136871963D01*
X94224532Y-137000000D01*
X94250000Y-137128037D01*
X94250000Y-139250000D01*
X94257612Y-139288268D01*
X94279289Y-139320711D01*
X94311732Y-139342388D01*
X94350000Y-139350000D01*
X97404337Y-139350000D01*
X97470000Y-139425765D01*
X97470000Y-139840000D01*
X97450000Y-139840000D01*
X97450000Y-140840000D01*
X98708420Y-140840000D01*
X98711732Y-140842388D01*
X98750000Y-140850000D01*
X99595000Y-140850000D01*
X99595000Y-164150000D01*
X98750000Y-164150000D01*
X98711732Y-164157612D01*
X98708158Y-164160000D01*
X97450000Y-164160000D01*
X97450000Y-165160000D01*
X97470000Y-165160000D01*
X97470000Y-165388578D01*
X97208578Y-165650000D01*
X94350000Y-165650000D01*
X94311732Y-165657612D01*
X94279289Y-165679289D01*
X94257612Y-165711732D01*
X94250000Y-165750000D01*
X94250000Y-167871963D01*
X94224532Y-168000000D01*
X94250000Y-168128037D01*
X94250000Y-170411963D01*
X94224532Y-170540000D01*
X94325427Y-171047235D01*
X94612753Y-171477247D01*
X95042765Y-171764573D01*
X95421963Y-171840000D01*
X96100000Y-171840000D01*
X96100000Y-195160000D01*
X95421963Y-195160000D01*
X95042765Y-195235427D01*
X94612753Y-195522753D01*
X94325427Y-195952765D01*
X94224532Y-196460000D01*
X94250000Y-196588037D01*
X94250000Y-198871963D01*
X94224532Y-199000000D01*
X94250000Y-199128037D01*
X94250000Y-201250000D01*
X94257612Y-201288268D01*
X94279289Y-201320711D01*
X94311732Y-201342388D01*
X94350000Y-201350000D01*
X97404337Y-201350000D01*
X97470000Y-201425765D01*
X97470000Y-201840000D01*
X97450000Y-201840000D01*
X97450000Y-202840000D01*
X98708420Y-202840000D01*
X98711732Y-202842388D01*
X98750000Y-202850000D01*
X99595000Y-202850000D01*
X99595001Y-226150000D01*
X98750000Y-226150000D01*
X98710171Y-226158274D01*
X98707680Y-226160000D01*
X97450000Y-226160000D01*
X97450000Y-227160000D01*
X97470000Y-227160000D01*
X97470000Y-227430257D01*
X97257582Y-227650000D01*
X94350000Y-227650000D01*
X94311732Y-227657612D01*
X94279289Y-227679289D01*
X94257612Y-227711732D01*
X94250000Y-227750000D01*
X94250000Y-229871963D01*
X94224532Y-230000000D01*
X94250000Y-230128037D01*
X94250000Y-232411963D01*
X94224532Y-232540000D01*
X94325427Y-233047235D01*
X94612753Y-233477247D01*
X95042765Y-233764573D01*
X95421963Y-233840000D01*
X96100000Y-233840000D01*
X96100000Y-257160000D01*
X95421963Y-257160000D01*
X95042765Y-257235427D01*
X94612753Y-257522753D01*
X94325427Y-257952765D01*
X94224532Y-258460000D01*
X94250000Y-258588037D01*
X94250000Y-260871963D01*
X94224532Y-261000000D01*
X94250000Y-261128037D01*
X94250000Y-263250000D01*
X94257612Y-263288268D01*
X94279289Y-263320711D01*
X94311732Y-263342388D01*
X94350000Y-263350000D01*
X97404337Y-263350000D01*
X97470000Y-263425765D01*
X97470000Y-263840000D01*
X97450000Y-263840000D01*
X97450000Y-264840000D01*
X98708420Y-264840000D01*
X98711732Y-264842388D01*
X98750000Y-264850000D01*
X99595001Y-264850000D01*
X99595001Y-288150000D01*
X98750000Y-288150000D01*
X98711732Y-288157612D01*
X98708158Y-288160000D01*
X97450000Y-288160000D01*
X97450000Y-289160000D01*
X97470000Y-289160000D01*
X97470000Y-289388578D01*
X97208578Y-289650000D01*
X94350000Y-289650000D01*
X94311732Y-289657612D01*
X94279289Y-289679289D01*
X94257612Y-289711732D01*
X94250000Y-289750000D01*
X94250000Y-291871963D01*
X94224532Y-292000000D01*
X94250000Y-292128037D01*
X94250000Y-294411963D01*
X94224532Y-294540000D01*
X94325427Y-295047235D01*
X94612753Y-295477247D01*
X95042765Y-295764573D01*
X95421963Y-295840000D01*
X96100000Y-295840000D01*
X96100000Y-319160000D01*
X95421963Y-319160000D01*
X95042765Y-319235427D01*
X94612753Y-319522753D01*
X94325427Y-319952765D01*
X94224532Y-320460000D01*
X94250000Y-320588037D01*
X94250000Y-322871963D01*
X94224532Y-323000000D01*
X94250000Y-323128037D01*
X94250000Y-325250000D01*
X94257612Y-325288268D01*
X94279289Y-325320711D01*
X94311732Y-325342388D01*
X94350000Y-325350000D01*
X97404337Y-325350000D01*
X97470000Y-325425765D01*
X97470000Y-325840000D01*
X97450000Y-325840000D01*
X97450000Y-326840000D01*
X98708420Y-326840000D01*
X98711732Y-326842388D01*
X98750000Y-326850000D01*
X99595001Y-326850000D01*
X99595001Y-350100000D01*
X98750000Y-350100000D01*
X98711732Y-350107612D01*
X98708158Y-350110000D01*
X97450000Y-350110000D01*
X97450000Y-351110000D01*
X97470000Y-351110000D01*
X97470000Y-351338578D01*
X97208578Y-351600000D01*
X94350000Y-351600000D01*
X94311732Y-351607612D01*
X94279289Y-351629289D01*
X94257612Y-351661732D01*
X94250000Y-351700000D01*
X94250000Y-353821963D01*
X94224532Y-353950000D01*
X94250000Y-354078037D01*
X94250000Y-356361963D01*
X94224532Y-356490000D01*
X94325427Y-356997235D01*
X94612753Y-357427247D01*
X95042765Y-357714573D01*
X95421963Y-357790000D01*
X96100000Y-357790000D01*
X96100000Y-377095000D01*
X94272045Y-377095000D01*
X94506238Y-376874652D01*
X94720000Y-376400000D01*
X94720000Y-374800000D01*
X93720000Y-374800000D01*
X93720000Y-374820000D01*
X93120000Y-374820000D01*
X93120000Y-374800000D01*
X93100000Y-374800000D01*
X93100000Y-374200000D01*
X93120000Y-374200000D01*
X93120000Y-371738105D01*
X93720000Y-371738105D01*
X93720000Y-374200000D01*
X94720000Y-374200000D01*
X94720000Y-372600000D01*
X94506238Y-372125348D01*
X94127107Y-371768630D01*
X93914182Y-371697592D01*
X93720000Y-371738105D01*
X93120000Y-371738105D01*
X92925818Y-371697592D01*
X92712893Y-371768630D01*
X92450500Y-372015511D01*
X92450500Y-371870608D01*
X92450000Y-371869401D01*
X92450000Y-371130599D01*
X92450500Y-371129392D01*
X92450500Y-370870608D01*
X92450000Y-370869401D01*
X92450000Y-370130599D01*
X92450500Y-370129392D01*
X92450500Y-369870608D01*
X92450000Y-369869401D01*
X92450000Y-369446383D01*
X92752893Y-369731370D01*
X92965818Y-369802408D01*
X93160000Y-369761895D01*
X93160000Y-367300000D01*
X93760000Y-367300000D01*
X93760000Y-369761895D01*
X93954182Y-369802408D01*
X94167107Y-369731370D01*
X94546238Y-369374652D01*
X94760000Y-368900000D01*
X94760000Y-367300000D01*
X93760000Y-367300000D01*
X93160000Y-367300000D01*
X93140000Y-367300000D01*
X93140000Y-366700000D01*
X93160000Y-366700000D01*
X93160000Y-364238105D01*
X93760000Y-364238105D01*
X93760000Y-366700000D01*
X94760000Y-366700000D01*
X94760000Y-365100000D01*
X94546238Y-364625348D01*
X94167107Y-364268630D01*
X93954182Y-364197592D01*
X93760000Y-364238105D01*
X93160000Y-364238105D01*
X92965818Y-364197592D01*
X92752893Y-364268630D01*
X92450000Y-364553617D01*
X92450000Y-350915818D01*
X94347592Y-350915818D01*
X94388105Y-351110000D01*
X96850000Y-351110000D01*
X96850000Y-350110000D01*
X95250000Y-350110000D01*
X94775348Y-350323762D01*
X94418630Y-350702893D01*
X94347592Y-350915818D01*
X92450000Y-350915818D01*
X92450000Y-326034182D01*
X94347592Y-326034182D01*
X94418630Y-326247107D01*
X94775348Y-326626238D01*
X95250000Y-326840000D01*
X96850000Y-326840000D01*
X96850000Y-325840000D01*
X94388105Y-325840000D01*
X94347592Y-326034182D01*
X92450000Y-326034182D01*
X92450000Y-325630599D01*
X92450500Y-325629392D01*
X92450500Y-325370608D01*
X92450000Y-325369401D01*
X92450000Y-324630599D01*
X92450500Y-324629392D01*
X92450500Y-324370608D01*
X92450000Y-324369401D01*
X92450000Y-323630599D01*
X92450500Y-323629392D01*
X92450500Y-323370608D01*
X92450000Y-323369401D01*
X92450000Y-322630599D01*
X92450500Y-322629392D01*
X92450500Y-322370608D01*
X92450000Y-322369401D01*
X92450000Y-321630599D01*
X92450500Y-321629392D01*
X92450500Y-321370608D01*
X92450000Y-321369401D01*
X92450000Y-320630599D01*
X92450500Y-320629392D01*
X92450500Y-320370608D01*
X92450000Y-320369401D01*
X92450000Y-288965818D01*
X94347592Y-288965818D01*
X94388105Y-289160000D01*
X96850000Y-289160000D01*
X96850000Y-288160000D01*
X95250000Y-288160000D01*
X94775348Y-288373762D01*
X94418630Y-288752893D01*
X94347592Y-288965818D01*
X92450000Y-288965818D01*
X92450000Y-264034182D01*
X94347592Y-264034182D01*
X94418630Y-264247107D01*
X94775348Y-264626238D01*
X95250000Y-264840000D01*
X96850000Y-264840000D01*
X96850000Y-263840000D01*
X94388105Y-263840000D01*
X94347592Y-264034182D01*
X92450000Y-264034182D01*
X92450000Y-263630599D01*
X92450500Y-263629392D01*
X92450500Y-263370608D01*
X92450000Y-263369401D01*
X92450000Y-262630599D01*
X92450500Y-262629392D01*
X92450500Y-262370608D01*
X92450000Y-262369401D01*
X92450000Y-261630599D01*
X92450500Y-261629392D01*
X92450500Y-261370608D01*
X92450000Y-261369401D01*
X92450000Y-260630599D01*
X92450500Y-260629392D01*
X92450500Y-260370608D01*
X92450000Y-260369401D01*
X92450000Y-259630599D01*
X92450500Y-259629392D01*
X92450500Y-259370608D01*
X92450000Y-259369401D01*
X92450000Y-258630599D01*
X92450500Y-258629392D01*
X92450500Y-258370608D01*
X92450000Y-258369401D01*
X92450000Y-226965818D01*
X94347592Y-226965818D01*
X94388105Y-227160000D01*
X96850000Y-227160000D01*
X96850000Y-226160000D01*
X95250000Y-226160000D01*
X94775348Y-226373762D01*
X94418630Y-226752893D01*
X94347592Y-226965818D01*
X92450000Y-226965818D01*
X92450000Y-217130599D01*
X92450500Y-217129392D01*
X92450500Y-216870608D01*
X92450000Y-216869401D01*
X92450000Y-216130599D01*
X92450500Y-216129392D01*
X92450500Y-215870608D01*
X92450000Y-215869401D01*
X92450000Y-215130599D01*
X92450500Y-215129392D01*
X92450500Y-214870608D01*
X92450000Y-214869401D01*
X92450000Y-214130599D01*
X92450500Y-214129392D01*
X92450500Y-213870608D01*
X92450000Y-213869401D01*
X92450000Y-213130599D01*
X92450500Y-213129392D01*
X92450500Y-212870608D01*
X92450000Y-212869401D01*
X92450000Y-212130599D01*
X92450500Y-212129392D01*
X92450500Y-211870608D01*
X92450000Y-211869401D01*
X92450000Y-202034182D01*
X94347592Y-202034182D01*
X94418630Y-202247107D01*
X94775348Y-202626238D01*
X95250000Y-202840000D01*
X96850000Y-202840000D01*
X96850000Y-201840000D01*
X94388105Y-201840000D01*
X94347592Y-202034182D01*
X92450000Y-202034182D01*
X92450000Y-170630599D01*
X92450500Y-170629392D01*
X92450500Y-170370608D01*
X92450000Y-170369401D01*
X92450000Y-169630599D01*
X92450500Y-169629392D01*
X92450500Y-169370608D01*
X92450000Y-169369401D01*
X92450000Y-168630599D01*
X92450500Y-168629392D01*
X92450500Y-168370608D01*
X92450000Y-168369401D01*
X92450000Y-167630599D01*
X92450500Y-167629392D01*
X92450500Y-167370608D01*
X92450000Y-167369401D01*
X92450000Y-166630599D01*
X92450500Y-166629392D01*
X92450500Y-166370608D01*
X92450000Y-166369401D01*
X92450000Y-165630599D01*
X92450500Y-165629392D01*
X92450500Y-165370608D01*
X92450000Y-165369401D01*
X92450000Y-164965818D01*
X94347592Y-164965818D01*
X94388105Y-165160000D01*
X96850000Y-165160000D01*
X96850000Y-164160000D01*
X95250000Y-164160000D01*
X94775348Y-164373762D01*
X94418630Y-164752893D01*
X94347592Y-164965818D01*
X92450000Y-164965818D01*
X92450000Y-140034182D01*
X94347592Y-140034182D01*
X94418630Y-140247107D01*
X94775348Y-140626238D01*
X95250000Y-140840000D01*
X96850000Y-140840000D01*
X96850000Y-139840000D01*
X94388105Y-139840000D01*
X94347592Y-140034182D01*
X92450000Y-140034182D01*
X92450000Y-108630599D01*
X92450500Y-108629392D01*
X92450500Y-108370608D01*
X92450000Y-108369401D01*
X92450000Y-107630599D01*
X92450500Y-107629392D01*
X92450500Y-107370608D01*
X92450000Y-107369401D01*
X92450000Y-106630599D01*
X92450500Y-106629392D01*
X92450500Y-106370608D01*
X92450000Y-106369401D01*
X92450000Y-105630599D01*
X92450500Y-105629392D01*
X92450500Y-105370608D01*
X92450000Y-105369401D01*
X92450000Y-104630599D01*
X92450500Y-104629392D01*
X92450500Y-104370608D01*
X92450000Y-104369401D01*
X92450000Y-103630599D01*
X92450500Y-103629392D01*
X92450500Y-103370608D01*
X92450000Y-103369401D01*
X92450000Y-102965818D01*
X94347592Y-102965818D01*
X94388105Y-103160000D01*
X96850000Y-103160000D01*
X96850000Y-102160000D01*
X95250000Y-102160000D01*
X94775348Y-102373762D01*
X94418630Y-102752893D01*
X94347592Y-102965818D01*
X92450000Y-102965818D01*
X92450000Y-78034182D01*
X94347592Y-78034182D01*
X94418630Y-78247107D01*
X94775348Y-78626238D01*
X95250000Y-78840000D01*
X96850000Y-78840000D01*
X96850000Y-77840000D01*
X94388105Y-77840000D01*
X94347592Y-78034182D01*
X92450000Y-78034182D01*
X92450000Y-65446383D01*
X92752893Y-65731370D01*
X92965818Y-65802408D01*
X93160000Y-65761895D01*
X93160000Y-63300000D01*
X93760000Y-63300000D01*
X93760000Y-65761895D01*
X93954182Y-65802408D01*
X94167107Y-65731370D01*
X94546238Y-65374652D01*
X94760000Y-64900000D01*
X94760000Y-63300000D01*
X93760000Y-63300000D01*
X93160000Y-63300000D01*
X93140000Y-63300000D01*
X93140000Y-62700000D01*
X93160000Y-62700000D01*
X93160000Y-60238105D01*
X93760000Y-60238105D01*
X93760000Y-62700000D01*
X94760000Y-62700000D01*
X94760000Y-61100000D01*
X94546238Y-60625348D01*
X94167107Y-60268630D01*
X93954182Y-60197592D01*
X93760000Y-60238105D01*
X93160000Y-60238105D01*
X92965818Y-60197592D01*
X92752893Y-60268630D01*
X92450000Y-60553617D01*
X92450000Y-60130599D01*
X92450500Y-60129392D01*
X92450500Y-59870608D01*
X92450000Y-59869401D01*
X92450000Y-59130599D01*
X92450500Y-59129392D01*
X92450500Y-58870608D01*
X92450000Y-58869401D01*
X92450000Y-58130599D01*
X92450500Y-58129392D01*
X92450500Y-57870608D01*
X92450000Y-57869401D01*
X92450000Y-57446383D01*
X92752893Y-57731370D01*
X92965818Y-57802408D01*
X93160000Y-57761895D01*
X93160000Y-55300000D01*
X93760000Y-55300000D01*
X93760000Y-57761895D01*
X93954182Y-57802408D01*
X94167107Y-57731370D01*
X94546238Y-57374652D01*
X94760000Y-56900000D01*
X94760000Y-55300000D01*
X93760000Y-55300000D01*
X93160000Y-55300000D01*
X93140000Y-55300000D01*
X93140000Y-54700000D01*
X93160000Y-54700000D01*
X93160000Y-54680000D01*
X93760000Y-54680000D01*
X93760000Y-54700000D01*
X94760000Y-54700000D01*
X94760000Y-53100000D01*
X94546238Y-52625348D01*
X94312045Y-52405000D01*
X96100000Y-52405000D01*
X96100000Y-71160000D01*
X96100000Y-71160000D01*
G37*
X96100000Y-71160000D02*
X95421963Y-71160000D01*
X95042765Y-71235427D01*
X94612753Y-71522753D01*
X94325427Y-71952765D01*
X94224532Y-72460000D01*
X94250000Y-72588037D01*
X94250000Y-74871963D01*
X94224532Y-75000000D01*
X94250000Y-75128037D01*
X94250000Y-77250000D01*
X94257612Y-77288268D01*
X94279289Y-77320711D01*
X94311732Y-77342388D01*
X94350000Y-77350000D01*
X97404337Y-77350000D01*
X97470000Y-77425765D01*
X97470000Y-77840000D01*
X97450000Y-77840000D01*
X97450000Y-78840000D01*
X98708420Y-78840000D01*
X98711732Y-78842388D01*
X98750000Y-78850000D01*
X99595000Y-78850000D01*
X99595000Y-102150000D01*
X98750000Y-102150000D01*
X98711732Y-102157612D01*
X98708158Y-102160000D01*
X97450000Y-102160000D01*
X97450000Y-103160000D01*
X97470000Y-103160000D01*
X97470000Y-103388578D01*
X97208578Y-103650000D01*
X94350000Y-103650000D01*
X94311732Y-103657612D01*
X94279289Y-103679289D01*
X94257612Y-103711732D01*
X94250000Y-103750000D01*
X94250000Y-105871963D01*
X94224532Y-106000000D01*
X94250000Y-106128037D01*
X94250000Y-108411963D01*
X94224532Y-108540000D01*
X94325427Y-109047235D01*
X94612753Y-109477247D01*
X95042765Y-109764573D01*
X95421963Y-109840000D01*
X96100000Y-109840000D01*
X96100000Y-133160000D01*
X95421963Y-133160000D01*
X95042765Y-133235427D01*
X94612753Y-133522753D01*
X94325427Y-133952765D01*
X94224532Y-134460000D01*
X94250000Y-134588037D01*
X94250000Y-136871963D01*
X94224532Y-137000000D01*
X94250000Y-137128037D01*
X94250000Y-139250000D01*
X94257612Y-139288268D01*
X94279289Y-139320711D01*
X94311732Y-139342388D01*
X94350000Y-139350000D01*
X97404337Y-139350000D01*
X97470000Y-139425765D01*
X97470000Y-139840000D01*
X97450000Y-139840000D01*
X97450000Y-140840000D01*
X98708420Y-140840000D01*
X98711732Y-140842388D01*
X98750000Y-140850000D01*
X99595000Y-140850000D01*
X99595000Y-164150000D01*
X98750000Y-164150000D01*
X98711732Y-164157612D01*
X98708158Y-164160000D01*
X97450000Y-164160000D01*
X97450000Y-165160000D01*
X97470000Y-165160000D01*
X97470000Y-165388578D01*
X97208578Y-165650000D01*
X94350000Y-165650000D01*
X94311732Y-165657612D01*
X94279289Y-165679289D01*
X94257612Y-165711732D01*
X94250000Y-165750000D01*
X94250000Y-167871963D01*
X94224532Y-168000000D01*
X94250000Y-168128037D01*
X94250000Y-170411963D01*
X94224532Y-170540000D01*
X94325427Y-171047235D01*
X94612753Y-171477247D01*
X95042765Y-171764573D01*
X95421963Y-171840000D01*
X96100000Y-171840000D01*
X96100000Y-195160000D01*
X95421963Y-195160000D01*
X95042765Y-195235427D01*
X94612753Y-195522753D01*
X94325427Y-195952765D01*
X94224532Y-196460000D01*
X94250000Y-196588037D01*
X94250000Y-198871963D01*
X94224532Y-199000000D01*
X94250000Y-199128037D01*
X94250000Y-201250000D01*
X94257612Y-201288268D01*
X94279289Y-201320711D01*
X94311732Y-201342388D01*
X94350000Y-201350000D01*
X97404337Y-201350000D01*
X97470000Y-201425765D01*
X97470000Y-201840000D01*
X97450000Y-201840000D01*
X97450000Y-202840000D01*
X98708420Y-202840000D01*
X98711732Y-202842388D01*
X98750000Y-202850000D01*
X99595000Y-202850000D01*
X99595001Y-226150000D01*
X98750000Y-226150000D01*
X98710171Y-226158274D01*
X98707680Y-226160000D01*
X97450000Y-226160000D01*
X97450000Y-227160000D01*
X97470000Y-227160000D01*
X97470000Y-227430257D01*
X97257582Y-227650000D01*
X94350000Y-227650000D01*
X94311732Y-227657612D01*
X94279289Y-227679289D01*
X94257612Y-227711732D01*
X94250000Y-227750000D01*
X94250000Y-229871963D01*
X94224532Y-230000000D01*
X94250000Y-230128037D01*
X94250000Y-232411963D01*
X94224532Y-232540000D01*
X94325427Y-233047235D01*
X94612753Y-233477247D01*
X95042765Y-233764573D01*
X95421963Y-233840000D01*
X96100000Y-233840000D01*
X96100000Y-257160000D01*
X95421963Y-257160000D01*
X95042765Y-257235427D01*
X94612753Y-257522753D01*
X94325427Y-257952765D01*
X94224532Y-258460000D01*
X94250000Y-258588037D01*
X94250000Y-260871963D01*
X94224532Y-261000000D01*
X94250000Y-261128037D01*
X94250000Y-263250000D01*
X94257612Y-263288268D01*
X94279289Y-263320711D01*
X94311732Y-263342388D01*
X94350000Y-263350000D01*
X97404337Y-263350000D01*
X97470000Y-263425765D01*
X97470000Y-263840000D01*
X97450000Y-263840000D01*
X97450000Y-264840000D01*
X98708420Y-264840000D01*
X98711732Y-264842388D01*
X98750000Y-264850000D01*
X99595001Y-264850000D01*
X99595001Y-288150000D01*
X98750000Y-288150000D01*
X98711732Y-288157612D01*
X98708158Y-288160000D01*
X97450000Y-288160000D01*
X97450000Y-289160000D01*
X97470000Y-289160000D01*
X97470000Y-289388578D01*
X97208578Y-289650000D01*
X94350000Y-289650000D01*
X94311732Y-289657612D01*
X94279289Y-289679289D01*
X94257612Y-289711732D01*
X94250000Y-289750000D01*
X94250000Y-291871963D01*
X94224532Y-292000000D01*
X94250000Y-292128037D01*
X94250000Y-294411963D01*
X94224532Y-294540000D01*
X94325427Y-295047235D01*
X94612753Y-295477247D01*
X95042765Y-295764573D01*
X95421963Y-295840000D01*
X96100000Y-295840000D01*
X96100000Y-319160000D01*
X95421963Y-319160000D01*
X95042765Y-319235427D01*
X94612753Y-319522753D01*
X94325427Y-319952765D01*
X94224532Y-320460000D01*
X94250000Y-320588037D01*
X94250000Y-322871963D01*
X94224532Y-323000000D01*
X94250000Y-323128037D01*
X94250000Y-325250000D01*
X94257612Y-325288268D01*
X94279289Y-325320711D01*
X94311732Y-325342388D01*
X94350000Y-325350000D01*
X97404337Y-325350000D01*
X97470000Y-325425765D01*
X97470000Y-325840000D01*
X97450000Y-325840000D01*
X97450000Y-326840000D01*
X98708420Y-326840000D01*
X98711732Y-326842388D01*
X98750000Y-326850000D01*
X99595001Y-326850000D01*
X99595001Y-350100000D01*
X98750000Y-350100000D01*
X98711732Y-350107612D01*
X98708158Y-350110000D01*
X97450000Y-350110000D01*
X97450000Y-351110000D01*
X97470000Y-351110000D01*
X97470000Y-351338578D01*
X97208578Y-351600000D01*
X94350000Y-351600000D01*
X94311732Y-351607612D01*
X94279289Y-351629289D01*
X94257612Y-351661732D01*
X94250000Y-351700000D01*
X94250000Y-353821963D01*
X94224532Y-353950000D01*
X94250000Y-354078037D01*
X94250000Y-356361963D01*
X94224532Y-356490000D01*
X94325427Y-356997235D01*
X94612753Y-357427247D01*
X95042765Y-357714573D01*
X95421963Y-357790000D01*
X96100000Y-357790000D01*
X96100000Y-377095000D01*
X94272045Y-377095000D01*
X94506238Y-376874652D01*
X94720000Y-376400000D01*
X94720000Y-374800000D01*
X93720000Y-374800000D01*
X93720000Y-374820000D01*
X93120000Y-374820000D01*
X93120000Y-374800000D01*
X93100000Y-374800000D01*
X93100000Y-374200000D01*
X93120000Y-374200000D01*
X93120000Y-371738105D01*
X93720000Y-371738105D01*
X93720000Y-374200000D01*
X94720000Y-374200000D01*
X94720000Y-372600000D01*
X94506238Y-372125348D01*
X94127107Y-371768630D01*
X93914182Y-371697592D01*
X93720000Y-371738105D01*
X93120000Y-371738105D01*
X92925818Y-371697592D01*
X92712893Y-371768630D01*
X92450500Y-372015511D01*
X92450500Y-371870608D01*
X92450000Y-371869401D01*
X92450000Y-371130599D01*
X92450500Y-371129392D01*
X92450500Y-370870608D01*
X92450000Y-370869401D01*
X92450000Y-370130599D01*
X92450500Y-370129392D01*
X92450500Y-369870608D01*
X92450000Y-369869401D01*
X92450000Y-369446383D01*
X92752893Y-369731370D01*
X92965818Y-369802408D01*
X93160000Y-369761895D01*
X93160000Y-367300000D01*
X93760000Y-367300000D01*
X93760000Y-369761895D01*
X93954182Y-369802408D01*
X94167107Y-369731370D01*
X94546238Y-369374652D01*
X94760000Y-368900000D01*
X94760000Y-367300000D01*
X93760000Y-367300000D01*
X93160000Y-367300000D01*
X93140000Y-367300000D01*
X93140000Y-366700000D01*
X93160000Y-366700000D01*
X93160000Y-364238105D01*
X93760000Y-364238105D01*
X93760000Y-366700000D01*
X94760000Y-366700000D01*
X94760000Y-365100000D01*
X94546238Y-364625348D01*
X94167107Y-364268630D01*
X93954182Y-364197592D01*
X93760000Y-364238105D01*
X93160000Y-364238105D01*
X92965818Y-364197592D01*
X92752893Y-364268630D01*
X92450000Y-364553617D01*
X92450000Y-350915818D01*
X94347592Y-350915818D01*
X94388105Y-351110000D01*
X96850000Y-351110000D01*
X96850000Y-350110000D01*
X95250000Y-350110000D01*
X94775348Y-350323762D01*
X94418630Y-350702893D01*
X94347592Y-350915818D01*
X92450000Y-350915818D01*
X92450000Y-326034182D01*
X94347592Y-326034182D01*
X94418630Y-326247107D01*
X94775348Y-326626238D01*
X95250000Y-326840000D01*
X96850000Y-326840000D01*
X96850000Y-325840000D01*
X94388105Y-325840000D01*
X94347592Y-326034182D01*
X92450000Y-326034182D01*
X92450000Y-325630599D01*
X92450500Y-325629392D01*
X92450500Y-325370608D01*
X92450000Y-325369401D01*
X92450000Y-324630599D01*
X92450500Y-324629392D01*
X92450500Y-324370608D01*
X92450000Y-324369401D01*
X92450000Y-323630599D01*
X92450500Y-323629392D01*
X92450500Y-323370608D01*
X92450000Y-323369401D01*
X92450000Y-322630599D01*
X92450500Y-322629392D01*
X92450500Y-322370608D01*
X92450000Y-322369401D01*
X92450000Y-321630599D01*
X92450500Y-321629392D01*
X92450500Y-321370608D01*
X92450000Y-321369401D01*
X92450000Y-320630599D01*
X92450500Y-320629392D01*
X92450500Y-320370608D01*
X92450000Y-320369401D01*
X92450000Y-288965818D01*
X94347592Y-288965818D01*
X94388105Y-289160000D01*
X96850000Y-289160000D01*
X96850000Y-288160000D01*
X95250000Y-288160000D01*
X94775348Y-288373762D01*
X94418630Y-288752893D01*
X94347592Y-288965818D01*
X92450000Y-288965818D01*
X92450000Y-264034182D01*
X94347592Y-264034182D01*
X94418630Y-264247107D01*
X94775348Y-264626238D01*
X95250000Y-264840000D01*
X96850000Y-264840000D01*
X96850000Y-263840000D01*
X94388105Y-263840000D01*
X94347592Y-264034182D01*
X92450000Y-264034182D01*
X92450000Y-263630599D01*
X92450500Y-263629392D01*
X92450500Y-263370608D01*
X92450000Y-263369401D01*
X92450000Y-262630599D01*
X92450500Y-262629392D01*
X92450500Y-262370608D01*
X92450000Y-262369401D01*
X92450000Y-261630599D01*
X92450500Y-261629392D01*
X92450500Y-261370608D01*
X92450000Y-261369401D01*
X92450000Y-260630599D01*
X92450500Y-260629392D01*
X92450500Y-260370608D01*
X92450000Y-260369401D01*
X92450000Y-259630599D01*
X92450500Y-259629392D01*
X92450500Y-259370608D01*
X92450000Y-259369401D01*
X92450000Y-258630599D01*
X92450500Y-258629392D01*
X92450500Y-258370608D01*
X92450000Y-258369401D01*
X92450000Y-226965818D01*
X94347592Y-226965818D01*
X94388105Y-227160000D01*
X96850000Y-227160000D01*
X96850000Y-226160000D01*
X95250000Y-226160000D01*
X94775348Y-226373762D01*
X94418630Y-226752893D01*
X94347592Y-226965818D01*
X92450000Y-226965818D01*
X92450000Y-217130599D01*
X92450500Y-217129392D01*
X92450500Y-216870608D01*
X92450000Y-216869401D01*
X92450000Y-216130599D01*
X92450500Y-216129392D01*
X92450500Y-215870608D01*
X92450000Y-215869401D01*
X92450000Y-215130599D01*
X92450500Y-215129392D01*
X92450500Y-214870608D01*
X92450000Y-214869401D01*
X92450000Y-214130599D01*
X92450500Y-214129392D01*
X92450500Y-213870608D01*
X92450000Y-213869401D01*
X92450000Y-213130599D01*
X92450500Y-213129392D01*
X92450500Y-212870608D01*
X92450000Y-212869401D01*
X92450000Y-212130599D01*
X92450500Y-212129392D01*
X92450500Y-211870608D01*
X92450000Y-211869401D01*
X92450000Y-202034182D01*
X94347592Y-202034182D01*
X94418630Y-202247107D01*
X94775348Y-202626238D01*
X95250000Y-202840000D01*
X96850000Y-202840000D01*
X96850000Y-201840000D01*
X94388105Y-201840000D01*
X94347592Y-202034182D01*
X92450000Y-202034182D01*
X92450000Y-170630599D01*
X92450500Y-170629392D01*
X92450500Y-170370608D01*
X92450000Y-170369401D01*
X92450000Y-169630599D01*
X92450500Y-169629392D01*
X92450500Y-169370608D01*
X92450000Y-169369401D01*
X92450000Y-168630599D01*
X92450500Y-168629392D01*
X92450500Y-168370608D01*
X92450000Y-168369401D01*
X92450000Y-167630599D01*
X92450500Y-167629392D01*
X92450500Y-167370608D01*
X92450000Y-167369401D01*
X92450000Y-166630599D01*
X92450500Y-166629392D01*
X92450500Y-166370608D01*
X92450000Y-166369401D01*
X92450000Y-165630599D01*
X92450500Y-165629392D01*
X92450500Y-165370608D01*
X92450000Y-165369401D01*
X92450000Y-164965818D01*
X94347592Y-164965818D01*
X94388105Y-165160000D01*
X96850000Y-165160000D01*
X96850000Y-164160000D01*
X95250000Y-164160000D01*
X94775348Y-164373762D01*
X94418630Y-164752893D01*
X94347592Y-164965818D01*
X92450000Y-164965818D01*
X92450000Y-140034182D01*
X94347592Y-140034182D01*
X94418630Y-140247107D01*
X94775348Y-140626238D01*
X95250000Y-140840000D01*
X96850000Y-140840000D01*
X96850000Y-139840000D01*
X94388105Y-139840000D01*
X94347592Y-140034182D01*
X92450000Y-140034182D01*
X92450000Y-108630599D01*
X92450500Y-108629392D01*
X92450500Y-108370608D01*
X92450000Y-108369401D01*
X92450000Y-107630599D01*
X92450500Y-107629392D01*
X92450500Y-107370608D01*
X92450000Y-107369401D01*
X92450000Y-106630599D01*
X92450500Y-106629392D01*
X92450500Y-106370608D01*
X92450000Y-106369401D01*
X92450000Y-105630599D01*
X92450500Y-105629392D01*
X92450500Y-105370608D01*
X92450000Y-105369401D01*
X92450000Y-104630599D01*
X92450500Y-104629392D01*
X92450500Y-104370608D01*
X92450000Y-104369401D01*
X92450000Y-103630599D01*
X92450500Y-103629392D01*
X92450500Y-103370608D01*
X92450000Y-103369401D01*
X92450000Y-102965818D01*
X94347592Y-102965818D01*
X94388105Y-103160000D01*
X96850000Y-103160000D01*
X96850000Y-102160000D01*
X95250000Y-102160000D01*
X94775348Y-102373762D01*
X94418630Y-102752893D01*
X94347592Y-102965818D01*
X92450000Y-102965818D01*
X92450000Y-78034182D01*
X94347592Y-78034182D01*
X94418630Y-78247107D01*
X94775348Y-78626238D01*
X95250000Y-78840000D01*
X96850000Y-78840000D01*
X96850000Y-77840000D01*
X94388105Y-77840000D01*
X94347592Y-78034182D01*
X92450000Y-78034182D01*
X92450000Y-65446383D01*
X92752893Y-65731370D01*
X92965818Y-65802408D01*
X93160000Y-65761895D01*
X93160000Y-63300000D01*
X93760000Y-63300000D01*
X93760000Y-65761895D01*
X93954182Y-65802408D01*
X94167107Y-65731370D01*
X94546238Y-65374652D01*
X94760000Y-64900000D01*
X94760000Y-63300000D01*
X93760000Y-63300000D01*
X93160000Y-63300000D01*
X93140000Y-63300000D01*
X93140000Y-62700000D01*
X93160000Y-62700000D01*
X93160000Y-60238105D01*
X93760000Y-60238105D01*
X93760000Y-62700000D01*
X94760000Y-62700000D01*
X94760000Y-61100000D01*
X94546238Y-60625348D01*
X94167107Y-60268630D01*
X93954182Y-60197592D01*
X93760000Y-60238105D01*
X93160000Y-60238105D01*
X92965818Y-60197592D01*
X92752893Y-60268630D01*
X92450000Y-60553617D01*
X92450000Y-60130599D01*
X92450500Y-60129392D01*
X92450500Y-59870608D01*
X92450000Y-59869401D01*
X92450000Y-59130599D01*
X92450500Y-59129392D01*
X92450500Y-58870608D01*
X92450000Y-58869401D01*
X92450000Y-58130599D01*
X92450500Y-58129392D01*
X92450500Y-57870608D01*
X92450000Y-57869401D01*
X92450000Y-57446383D01*
X92752893Y-57731370D01*
X92965818Y-57802408D01*
X93160000Y-57761895D01*
X93160000Y-55300000D01*
X93760000Y-55300000D01*
X93760000Y-57761895D01*
X93954182Y-57802408D01*
X94167107Y-57731370D01*
X94546238Y-57374652D01*
X94760000Y-56900000D01*
X94760000Y-55300000D01*
X93760000Y-55300000D01*
X93160000Y-55300000D01*
X93140000Y-55300000D01*
X93140000Y-54700000D01*
X93160000Y-54700000D01*
X93160000Y-54680000D01*
X93760000Y-54680000D01*
X93760000Y-54700000D01*
X94760000Y-54700000D01*
X94760000Y-53100000D01*
X94546238Y-52625348D01*
X94312045Y-52405000D01*
X96100000Y-52405000D01*
X96100000Y-71160000D01*
G04 #@! TO.N,Net-(J201-Pad1)*
G36*
X97470000Y-170840000D02*
X97450000Y-170840000D01*
X97450000Y-171840000D01*
X98708158Y-171840000D01*
X98711732Y-171842388D01*
X98750000Y-171850000D01*
X99595000Y-171850000D01*
X99595000Y-195150000D01*
X98750000Y-195150000D01*
X98711732Y-195157612D01*
X98708158Y-195160000D01*
X97450000Y-195160000D01*
X97450000Y-196160000D01*
X97470000Y-196160000D01*
X97470000Y-196350000D01*
X96830000Y-196350000D01*
X96830000Y-196160000D01*
X96850000Y-196160000D01*
X96850000Y-195160000D01*
X96600000Y-195160000D01*
X96600000Y-171840000D01*
X96850000Y-171840000D01*
X96850000Y-170840000D01*
X96830000Y-170840000D01*
X96830000Y-170650000D01*
X97470000Y-170650000D01*
X97470000Y-170840000D01*
X97470000Y-170840000D01*
G37*
X97470000Y-170840000D02*
X97450000Y-170840000D01*
X97450000Y-171840000D01*
X98708158Y-171840000D01*
X98711732Y-171842388D01*
X98750000Y-171850000D01*
X99595000Y-171850000D01*
X99595000Y-195150000D01*
X98750000Y-195150000D01*
X98711732Y-195157612D01*
X98708158Y-195160000D01*
X97450000Y-195160000D01*
X97450000Y-196160000D01*
X97470000Y-196160000D01*
X97470000Y-196350000D01*
X96830000Y-196350000D01*
X96830000Y-196160000D01*
X96850000Y-196160000D01*
X96850000Y-195160000D01*
X96600000Y-195160000D01*
X96600000Y-171840000D01*
X96850000Y-171840000D01*
X96850000Y-170840000D01*
X96830000Y-170840000D01*
X96830000Y-170650000D01*
X97470000Y-170650000D01*
X97470000Y-170840000D01*
G04 #@! TO.N,Net-(J101-Pad1)*
G36*
X85170000Y-108840000D02*
X85150000Y-108840000D01*
X85150000Y-109840000D01*
X85400000Y-109840000D01*
X85400000Y-133160000D01*
X85150000Y-133160000D01*
X85150000Y-134160000D01*
X85170000Y-134160000D01*
X85170000Y-134350000D01*
X84530000Y-134350000D01*
X84530000Y-134160000D01*
X84550000Y-134160000D01*
X84550000Y-133160000D01*
X83291842Y-133160000D01*
X83288268Y-133157612D01*
X83250000Y-133150000D01*
X82405000Y-133150000D01*
X82405000Y-109850000D01*
X83250000Y-109850000D01*
X83288268Y-109842388D01*
X83291842Y-109840000D01*
X84550000Y-109840000D01*
X84550000Y-108840000D01*
X84530000Y-108840000D01*
X84530000Y-108650000D01*
X85170000Y-108650000D01*
X85170000Y-108840000D01*
X85170000Y-108840000D01*
G37*
X85170000Y-108840000D02*
X85150000Y-108840000D01*
X85150000Y-109840000D01*
X85400000Y-109840000D01*
X85400000Y-133160000D01*
X85150000Y-133160000D01*
X85150000Y-134160000D01*
X85170000Y-134160000D01*
X85170000Y-134350000D01*
X84530000Y-134350000D01*
X84530000Y-134160000D01*
X84550000Y-134160000D01*
X84550000Y-133160000D01*
X83291842Y-133160000D01*
X83288268Y-133157612D01*
X83250000Y-133150000D01*
X82405000Y-133150000D01*
X82405000Y-109850000D01*
X83250000Y-109850000D01*
X83288268Y-109842388D01*
X83291842Y-109840000D01*
X84550000Y-109840000D01*
X84550000Y-108840000D01*
X84530000Y-108840000D01*
X84530000Y-108650000D01*
X85170000Y-108650000D01*
X85170000Y-108840000D01*
G36*
X85170000Y-170840000D02*
X85150000Y-170840000D01*
X85150000Y-171840000D01*
X85400000Y-171840000D01*
X85400000Y-195160000D01*
X85150000Y-195160000D01*
X85150000Y-196160000D01*
X85170000Y-196160000D01*
X85170000Y-196350000D01*
X84530000Y-196350000D01*
X84530000Y-196160000D01*
X84550000Y-196160000D01*
X84550000Y-195160000D01*
X83291842Y-195160000D01*
X83288268Y-195157612D01*
X83250000Y-195150000D01*
X82405000Y-195150000D01*
X82405000Y-171850000D01*
X83250000Y-171850000D01*
X83288268Y-171842388D01*
X83291842Y-171840000D01*
X84550000Y-171840000D01*
X84550000Y-170840000D01*
X84530000Y-170840000D01*
X84530000Y-170650000D01*
X85170000Y-170650000D01*
X85170000Y-170840000D01*
X85170000Y-170840000D01*
G37*
X85170000Y-170840000D02*
X85150000Y-170840000D01*
X85150000Y-171840000D01*
X85400000Y-171840000D01*
X85400000Y-195160000D01*
X85150000Y-195160000D01*
X85150000Y-196160000D01*
X85170000Y-196160000D01*
X85170000Y-196350000D01*
X84530000Y-196350000D01*
X84530000Y-196160000D01*
X84550000Y-196160000D01*
X84550000Y-195160000D01*
X83291842Y-195160000D01*
X83288268Y-195157612D01*
X83250000Y-195150000D01*
X82405000Y-195150000D01*
X82405000Y-171850000D01*
X83250000Y-171850000D01*
X83288268Y-171842388D01*
X83291842Y-171840000D01*
X84550000Y-171840000D01*
X84550000Y-170840000D01*
X84530000Y-170840000D01*
X84530000Y-170650000D01*
X85170000Y-170650000D01*
X85170000Y-170840000D01*
G36*
X85170000Y-356840000D02*
X85150000Y-356840000D01*
X85150000Y-357840000D01*
X85400000Y-357840000D01*
X85400000Y-364100000D01*
X83850000Y-364100000D01*
X83811732Y-364107612D01*
X83779289Y-364129289D01*
X83757612Y-364161732D01*
X83750000Y-364200000D01*
X83750000Y-369700000D01*
X83757612Y-369738268D01*
X83760000Y-369741842D01*
X83760000Y-369761895D01*
X83775569Y-369765143D01*
X83779289Y-369770711D01*
X83811732Y-369792388D01*
X83850000Y-369800000D01*
X83942640Y-369800000D01*
X83954182Y-369802408D01*
X83961400Y-369800000D01*
X85200001Y-369800000D01*
X85200000Y-371700000D01*
X83961400Y-371700000D01*
X83954182Y-371697592D01*
X83942640Y-371700000D01*
X83850000Y-371700000D01*
X83811732Y-371707612D01*
X83779289Y-371729289D01*
X83775569Y-371734857D01*
X83760000Y-371738105D01*
X83760000Y-371758158D01*
X83757612Y-371761732D01*
X83750000Y-371800000D01*
X83750000Y-374820000D01*
X83160000Y-374820000D01*
X83160000Y-374800000D01*
X83140000Y-374800000D01*
X83140000Y-374200000D01*
X83160000Y-374200000D01*
X83160000Y-371738105D01*
X82965818Y-371697592D01*
X82752893Y-371768630D01*
X82405000Y-372095957D01*
X82405000Y-369404043D01*
X82752893Y-369731370D01*
X82965818Y-369802408D01*
X83160000Y-369761895D01*
X83160000Y-367300000D01*
X83140000Y-367300000D01*
X83140000Y-366700000D01*
X83160000Y-366700000D01*
X83160000Y-364238105D01*
X82965818Y-364197592D01*
X82752893Y-364268630D01*
X82405000Y-364595957D01*
X82405000Y-357850000D01*
X83250000Y-357850000D01*
X83288268Y-357842388D01*
X83291842Y-357840000D01*
X84550000Y-357840000D01*
X84550000Y-356840000D01*
X84530000Y-356840000D01*
X84530000Y-356650000D01*
X85170000Y-356650000D01*
X85170000Y-356840000D01*
X85170000Y-356840000D01*
G37*
X85170000Y-356840000D02*
X85150000Y-356840000D01*
X85150000Y-357840000D01*
X85400000Y-357840000D01*
X85400000Y-364100000D01*
X83850000Y-364100000D01*
X83811732Y-364107612D01*
X83779289Y-364129289D01*
X83757612Y-364161732D01*
X83750000Y-364200000D01*
X83750000Y-369700000D01*
X83757612Y-369738268D01*
X83760000Y-369741842D01*
X83760000Y-369761895D01*
X83775569Y-369765143D01*
X83779289Y-369770711D01*
X83811732Y-369792388D01*
X83850000Y-369800000D01*
X83942640Y-369800000D01*
X83954182Y-369802408D01*
X83961400Y-369800000D01*
X85200001Y-369800000D01*
X85200000Y-371700000D01*
X83961400Y-371700000D01*
X83954182Y-371697592D01*
X83942640Y-371700000D01*
X83850000Y-371700000D01*
X83811732Y-371707612D01*
X83779289Y-371729289D01*
X83775569Y-371734857D01*
X83760000Y-371738105D01*
X83760000Y-371758158D01*
X83757612Y-371761732D01*
X83750000Y-371800000D01*
X83750000Y-374820000D01*
X83160000Y-374820000D01*
X83160000Y-374800000D01*
X83140000Y-374800000D01*
X83140000Y-374200000D01*
X83160000Y-374200000D01*
X83160000Y-371738105D01*
X82965818Y-371697592D01*
X82752893Y-371768630D01*
X82405000Y-372095957D01*
X82405000Y-369404043D01*
X82752893Y-369731370D01*
X82965818Y-369802408D01*
X83160000Y-369761895D01*
X83160000Y-367300000D01*
X83140000Y-367300000D01*
X83140000Y-366700000D01*
X83160000Y-366700000D01*
X83160000Y-364238105D01*
X82965818Y-364197592D01*
X82752893Y-364268630D01*
X82405000Y-364595957D01*
X82405000Y-357850000D01*
X83250000Y-357850000D01*
X83288268Y-357842388D01*
X83291842Y-357840000D01*
X84550000Y-357840000D01*
X84550000Y-356840000D01*
X84530000Y-356840000D01*
X84530000Y-356650000D01*
X85170000Y-356650000D01*
X85170000Y-356840000D01*
G36*
X85170000Y-294840000D02*
X85150000Y-294840000D01*
X85150000Y-295840000D01*
X85400000Y-295840000D01*
X85400000Y-319160000D01*
X85150000Y-319160000D01*
X85150000Y-320160000D01*
X85170000Y-320160000D01*
X85170000Y-320352552D01*
X84530000Y-320352552D01*
X84530000Y-320160000D01*
X84550000Y-320160000D01*
X84550000Y-319160000D01*
X83287444Y-319160000D01*
X83250000Y-319152552D01*
X82405000Y-319152552D01*
X82405000Y-295850000D01*
X83250000Y-295850000D01*
X83288268Y-295842388D01*
X83291842Y-295840000D01*
X84550000Y-295840000D01*
X84550000Y-294840000D01*
X84530000Y-294840000D01*
X84530000Y-294650000D01*
X85170000Y-294650000D01*
X85170000Y-294840000D01*
X85170000Y-294840000D01*
G37*
X85170000Y-294840000D02*
X85150000Y-294840000D01*
X85150000Y-295840000D01*
X85400000Y-295840000D01*
X85400000Y-319160000D01*
X85150000Y-319160000D01*
X85150000Y-320160000D01*
X85170000Y-320160000D01*
X85170000Y-320352552D01*
X84530000Y-320352552D01*
X84530000Y-320160000D01*
X84550000Y-320160000D01*
X84550000Y-319160000D01*
X83287444Y-319160000D01*
X83250000Y-319152552D01*
X82405000Y-319152552D01*
X82405000Y-295850000D01*
X83250000Y-295850000D01*
X83288268Y-295842388D01*
X83291842Y-295840000D01*
X84550000Y-295840000D01*
X84550000Y-294840000D01*
X84530000Y-294840000D01*
X84530000Y-294650000D01*
X85170000Y-294650000D01*
X85170000Y-294840000D01*
G04 #@! TO.N,Net-(J101-Pad3)*
G36*
X88840000Y-54700000D02*
X88860000Y-54700000D01*
X88860000Y-55300000D01*
X88840000Y-55300000D01*
X88840000Y-57761895D01*
X89034182Y-57802408D01*
X89247107Y-57731370D01*
X89550000Y-57446383D01*
X89550000Y-57869401D01*
X89549500Y-57870608D01*
X89549500Y-58129392D01*
X89550000Y-58130599D01*
X89550000Y-58869401D01*
X89549500Y-58870608D01*
X89549500Y-59129392D01*
X89550000Y-59130599D01*
X89550000Y-59869401D01*
X89549500Y-59870608D01*
X89549500Y-60129392D01*
X89550000Y-60130599D01*
X89550000Y-60553617D01*
X89247107Y-60268630D01*
X89034182Y-60197592D01*
X88840000Y-60238105D01*
X88840000Y-62700000D01*
X88860000Y-62700000D01*
X88860000Y-63300000D01*
X88840000Y-63300000D01*
X88840000Y-65761895D01*
X89034182Y-65802408D01*
X89247107Y-65731370D01*
X89550000Y-65446383D01*
X89550000Y-103369401D01*
X89549500Y-103370608D01*
X89549500Y-103629392D01*
X89550000Y-103630599D01*
X89550000Y-104369401D01*
X89549500Y-104370608D01*
X89549500Y-104629392D01*
X89550000Y-104630599D01*
X89550000Y-105369401D01*
X89549500Y-105370608D01*
X89549500Y-105629392D01*
X89550000Y-105630599D01*
X89550000Y-106369401D01*
X89549500Y-106370608D01*
X89549500Y-106629392D01*
X89550000Y-106630599D01*
X89550000Y-107369401D01*
X89549500Y-107370608D01*
X89549500Y-107629392D01*
X89550000Y-107630599D01*
X89550000Y-108369401D01*
X89549500Y-108370608D01*
X89549500Y-108629392D01*
X89550000Y-108630599D01*
X89550000Y-165369401D01*
X89549500Y-165370608D01*
X89549500Y-165629392D01*
X89550000Y-165630599D01*
X89550000Y-166369401D01*
X89549500Y-166370608D01*
X89549500Y-166629392D01*
X89550000Y-166630599D01*
X89550000Y-167369401D01*
X89549500Y-167370608D01*
X89549500Y-167629392D01*
X89550000Y-167630599D01*
X89550000Y-168369401D01*
X89549500Y-168370608D01*
X89549500Y-168629392D01*
X89550000Y-168630599D01*
X89550000Y-169369401D01*
X89549500Y-169370608D01*
X89549500Y-169629392D01*
X89550000Y-169630599D01*
X89550000Y-170369401D01*
X89549500Y-170370608D01*
X89549500Y-170629392D01*
X89550000Y-170630599D01*
X89550000Y-211869401D01*
X89549500Y-211870608D01*
X89549500Y-212129392D01*
X89550000Y-212130599D01*
X89550000Y-212869401D01*
X89549500Y-212870608D01*
X89549500Y-213129392D01*
X89550000Y-213130599D01*
X89550000Y-213869401D01*
X89549500Y-213870608D01*
X89549500Y-214129392D01*
X89550000Y-214130599D01*
X89550000Y-214869401D01*
X89549500Y-214870608D01*
X89549500Y-215129392D01*
X89550000Y-215130599D01*
X89550000Y-215869401D01*
X89549500Y-215870608D01*
X89549500Y-216129392D01*
X89550000Y-216130599D01*
X89550000Y-216869401D01*
X89549500Y-216870608D01*
X89549500Y-217129392D01*
X89550000Y-217130599D01*
X89550000Y-258369401D01*
X89549500Y-258370608D01*
X89549500Y-258629392D01*
X89550000Y-258630599D01*
X89550000Y-259369401D01*
X89549500Y-259370608D01*
X89549500Y-259629392D01*
X89550000Y-259630599D01*
X89550000Y-260369401D01*
X89549500Y-260370608D01*
X89549500Y-260629392D01*
X89550000Y-260630599D01*
X89550000Y-261369401D01*
X89549500Y-261370608D01*
X89549500Y-261629392D01*
X89550000Y-261630599D01*
X89550000Y-262369401D01*
X89549500Y-262370608D01*
X89549500Y-262629392D01*
X89550000Y-262630599D01*
X89550000Y-263369401D01*
X89549500Y-263370608D01*
X89549500Y-263629392D01*
X89550000Y-263630599D01*
X89550000Y-320369401D01*
X89549500Y-320370608D01*
X89549500Y-320629392D01*
X89550000Y-320630599D01*
X89550000Y-321369401D01*
X89549500Y-321370608D01*
X89549500Y-321629392D01*
X89550000Y-321630599D01*
X89550000Y-322369401D01*
X89549500Y-322370608D01*
X89549500Y-322629392D01*
X89550000Y-322630599D01*
X89550000Y-323369401D01*
X89549500Y-323370608D01*
X89549500Y-323629392D01*
X89550000Y-323630599D01*
X89550000Y-324369401D01*
X89549500Y-324370608D01*
X89549500Y-324629392D01*
X89550000Y-324630599D01*
X89550000Y-325369401D01*
X89549500Y-325370608D01*
X89549500Y-325629392D01*
X89550000Y-325630599D01*
X89550000Y-364553617D01*
X89247107Y-364268630D01*
X89034182Y-364197592D01*
X88840000Y-364238105D01*
X88840000Y-366700000D01*
X88860000Y-366700000D01*
X88860000Y-367300000D01*
X88840000Y-367300000D01*
X88840000Y-369761895D01*
X89034182Y-369802408D01*
X89247107Y-369731370D01*
X89550000Y-369446383D01*
X89550000Y-369869401D01*
X89549500Y-369870608D01*
X89549500Y-370129392D01*
X89550000Y-370130599D01*
X89550000Y-370869401D01*
X89549500Y-370870608D01*
X89549500Y-371129392D01*
X89550000Y-371130599D01*
X89550000Y-371869401D01*
X89549500Y-371870608D01*
X89549500Y-372053147D01*
X89247107Y-371768630D01*
X89034182Y-371697592D01*
X88840000Y-371738105D01*
X88840000Y-374200000D01*
X88860000Y-374200000D01*
X88860000Y-374800000D01*
X88840000Y-374800000D01*
X88840000Y-374820000D01*
X88250000Y-374820000D01*
X88250000Y-371800000D01*
X88242388Y-371761732D01*
X88240000Y-371758158D01*
X88240000Y-371738105D01*
X88224431Y-371734857D01*
X88220711Y-371729289D01*
X88188268Y-371707612D01*
X88150000Y-371700000D01*
X88057360Y-371700000D01*
X88045818Y-371697592D01*
X88038600Y-371700000D01*
X86800000Y-371700000D01*
X86800000Y-369800000D01*
X88038600Y-369800000D01*
X88045818Y-369802408D01*
X88057360Y-369800000D01*
X88150000Y-369800000D01*
X88188268Y-369792388D01*
X88220711Y-369770711D01*
X88224431Y-369765143D01*
X88240000Y-369761895D01*
X88240000Y-369741842D01*
X88242388Y-369738268D01*
X88250000Y-369700000D01*
X88250000Y-364200000D01*
X88242388Y-364161732D01*
X88220711Y-364129289D01*
X88188268Y-364107612D01*
X88150000Y-364100000D01*
X86128036Y-364100000D01*
X86000000Y-364074532D01*
X85900000Y-364094423D01*
X85900000Y-357840000D01*
X86578037Y-357840000D01*
X86957235Y-357764573D01*
X87387247Y-357477247D01*
X87674573Y-357047235D01*
X87775468Y-356540000D01*
X87750000Y-356411963D01*
X87750000Y-354279841D01*
X87800000Y-354159130D01*
X87800000Y-353840870D01*
X87750000Y-353720159D01*
X87750000Y-351750000D01*
X87742388Y-351711732D01*
X87720711Y-351679289D01*
X87688268Y-351657612D01*
X87650000Y-351650000D01*
X84595663Y-351650000D01*
X84530000Y-351574235D01*
X84530000Y-351160000D01*
X84550000Y-351160000D01*
X84550000Y-350160000D01*
X85150000Y-350160000D01*
X85150000Y-351160000D01*
X87611895Y-351160000D01*
X87652408Y-350965818D01*
X87581370Y-350752893D01*
X87224652Y-350373762D01*
X86750000Y-350160000D01*
X85150000Y-350160000D01*
X84550000Y-350160000D01*
X83291580Y-350160000D01*
X83288268Y-350157612D01*
X83250000Y-350150000D01*
X82405000Y-350150000D01*
X82405000Y-326852552D01*
X83250000Y-326852552D01*
X83288347Y-326844907D01*
X83295678Y-326840000D01*
X84550000Y-326840000D01*
X84550000Y-325840000D01*
X85150000Y-325840000D01*
X85150000Y-326840000D01*
X86750000Y-326840000D01*
X87224652Y-326626238D01*
X87581370Y-326247107D01*
X87652408Y-326034182D01*
X87611895Y-325840000D01*
X85150000Y-325840000D01*
X84550000Y-325840000D01*
X84530000Y-325840000D01*
X84530000Y-325611917D01*
X84791472Y-325350000D01*
X87650000Y-325350000D01*
X87688268Y-325342388D01*
X87720711Y-325320711D01*
X87742388Y-325288268D01*
X87750000Y-325250000D01*
X87750000Y-323279841D01*
X87800000Y-323159130D01*
X87800000Y-322840870D01*
X87750000Y-322720159D01*
X87750000Y-320588037D01*
X87775468Y-320460000D01*
X87674573Y-319952765D01*
X87387247Y-319522753D01*
X86957235Y-319235427D01*
X86578037Y-319160000D01*
X85900000Y-319160000D01*
X85900000Y-295840000D01*
X86578037Y-295840000D01*
X86957235Y-295764573D01*
X87387247Y-295477247D01*
X87674573Y-295047235D01*
X87775468Y-294540000D01*
X87750000Y-294411963D01*
X87750000Y-292279841D01*
X87800000Y-292159130D01*
X87800000Y-291840870D01*
X87750000Y-291720159D01*
X87750000Y-289750000D01*
X87742388Y-289711732D01*
X87729294Y-289692134D01*
X87775468Y-289460000D01*
X87674573Y-288952765D01*
X87387247Y-288522753D01*
X86957235Y-288235427D01*
X86578037Y-288160000D01*
X83291580Y-288160000D01*
X83288268Y-288157612D01*
X83250000Y-288150000D01*
X82405000Y-288150000D01*
X82405000Y-264850000D01*
X83250000Y-264850000D01*
X83288268Y-264842388D01*
X83291842Y-264840000D01*
X84550000Y-264840000D01*
X84550000Y-263840000D01*
X85150000Y-263840000D01*
X85150000Y-264840000D01*
X86750000Y-264840000D01*
X87224652Y-264626238D01*
X87581370Y-264247107D01*
X87652408Y-264034182D01*
X87611895Y-263840000D01*
X85150000Y-263840000D01*
X84550000Y-263840000D01*
X84530000Y-263840000D01*
X84530000Y-263611422D01*
X84791422Y-263350000D01*
X87650000Y-263350000D01*
X87688268Y-263342388D01*
X87720711Y-263320711D01*
X87742388Y-263288268D01*
X87750000Y-263250000D01*
X87750000Y-261128037D01*
X87775468Y-261000000D01*
X87750000Y-260871963D01*
X87750000Y-258588037D01*
X87775468Y-258460000D01*
X87674573Y-257952765D01*
X87387247Y-257522753D01*
X86957235Y-257235427D01*
X86578037Y-257160000D01*
X85900000Y-257160000D01*
X85900000Y-233840000D01*
X86578037Y-233840000D01*
X86957235Y-233764573D01*
X87387247Y-233477247D01*
X87674573Y-233047235D01*
X87775468Y-232540000D01*
X87750000Y-232411963D01*
X87750000Y-230128037D01*
X87775468Y-230000000D01*
X87750000Y-229871963D01*
X87750000Y-227750000D01*
X87742388Y-227711732D01*
X87720711Y-227679289D01*
X87688268Y-227657612D01*
X87650000Y-227650000D01*
X84595663Y-227650000D01*
X84530000Y-227574235D01*
X84530000Y-227160000D01*
X84550000Y-227160000D01*
X84550000Y-226160000D01*
X85150000Y-226160000D01*
X85150000Y-227160000D01*
X87611895Y-227160000D01*
X87652408Y-226965818D01*
X87581370Y-226752893D01*
X87224652Y-226373762D01*
X86750000Y-226160000D01*
X85150000Y-226160000D01*
X84550000Y-226160000D01*
X83291580Y-226160000D01*
X83288268Y-226157612D01*
X83250000Y-226150000D01*
X82405000Y-226150000D01*
X82405000Y-202850000D01*
X83250000Y-202850000D01*
X83288268Y-202842388D01*
X83291842Y-202840000D01*
X84550000Y-202840000D01*
X84550000Y-201840000D01*
X85150000Y-201840000D01*
X85150000Y-202840000D01*
X86750000Y-202840000D01*
X87224652Y-202626238D01*
X87581370Y-202247107D01*
X87652408Y-202034182D01*
X87611895Y-201840000D01*
X85150000Y-201840000D01*
X84550000Y-201840000D01*
X84530000Y-201840000D01*
X84530000Y-201611422D01*
X84791422Y-201350000D01*
X87650000Y-201350000D01*
X87688268Y-201342388D01*
X87720711Y-201320711D01*
X87742388Y-201288268D01*
X87750000Y-201250000D01*
X87750000Y-199128037D01*
X87775468Y-199000000D01*
X87750000Y-198871963D01*
X87750000Y-196588037D01*
X87775468Y-196460000D01*
X87674573Y-195952765D01*
X87387247Y-195522753D01*
X86957235Y-195235427D01*
X86578037Y-195160000D01*
X85900000Y-195160000D01*
X85900000Y-171840000D01*
X86578037Y-171840000D01*
X86957235Y-171764573D01*
X87387247Y-171477247D01*
X87674573Y-171047235D01*
X87775468Y-170540000D01*
X87750000Y-170411963D01*
X87750000Y-168128037D01*
X87775468Y-168000000D01*
X87750000Y-167871963D01*
X87750000Y-165750000D01*
X87742388Y-165711732D01*
X87720711Y-165679289D01*
X87688268Y-165657612D01*
X87650000Y-165650000D01*
X84595663Y-165650000D01*
X84530000Y-165574235D01*
X84530000Y-165160000D01*
X84550000Y-165160000D01*
X84550000Y-164160000D01*
X85150000Y-164160000D01*
X85150000Y-165160000D01*
X87611895Y-165160000D01*
X87652408Y-164965818D01*
X87581370Y-164752893D01*
X87224652Y-164373762D01*
X86750000Y-164160000D01*
X85150000Y-164160000D01*
X84550000Y-164160000D01*
X83291580Y-164160000D01*
X83288268Y-164157612D01*
X83250000Y-164150000D01*
X82405000Y-164150000D01*
X82405000Y-140850000D01*
X83250000Y-140850000D01*
X83288268Y-140842388D01*
X83291842Y-140840000D01*
X84550000Y-140840000D01*
X84550000Y-139840000D01*
X85150000Y-139840000D01*
X85150000Y-140840000D01*
X86750000Y-140840000D01*
X87224652Y-140626238D01*
X87581370Y-140247107D01*
X87652408Y-140034182D01*
X87611895Y-139840000D01*
X85150000Y-139840000D01*
X84550000Y-139840000D01*
X84530000Y-139840000D01*
X84530000Y-139611422D01*
X84791422Y-139350000D01*
X87650000Y-139350000D01*
X87688268Y-139342388D01*
X87720711Y-139320711D01*
X87742388Y-139288268D01*
X87750000Y-139250000D01*
X87750000Y-137128037D01*
X87775468Y-137000000D01*
X87750000Y-136871963D01*
X87750000Y-134588037D01*
X87775468Y-134460000D01*
X87674573Y-133952765D01*
X87387247Y-133522753D01*
X86957235Y-133235427D01*
X86578037Y-133160000D01*
X85900000Y-133160000D01*
X85900000Y-109840000D01*
X86578037Y-109840000D01*
X86957235Y-109764573D01*
X87387247Y-109477247D01*
X87674573Y-109047235D01*
X87775468Y-108540000D01*
X87750000Y-108411963D01*
X87750000Y-106128037D01*
X87775468Y-106000000D01*
X87750000Y-105871963D01*
X87750000Y-103750000D01*
X87742388Y-103711732D01*
X87720711Y-103679289D01*
X87688268Y-103657612D01*
X87650000Y-103650000D01*
X84595663Y-103650000D01*
X84530000Y-103574235D01*
X84530000Y-103160000D01*
X84550000Y-103160000D01*
X84550000Y-102160000D01*
X85150000Y-102160000D01*
X85150000Y-103160000D01*
X87611895Y-103160000D01*
X87652408Y-102965818D01*
X87581370Y-102752893D01*
X87224652Y-102373762D01*
X86750000Y-102160000D01*
X85150000Y-102160000D01*
X84550000Y-102160000D01*
X83291580Y-102160000D01*
X83288268Y-102157612D01*
X83250000Y-102150000D01*
X82405000Y-102150000D01*
X82405000Y-78850000D01*
X83250000Y-78850000D01*
X83288268Y-78842388D01*
X83291842Y-78840000D01*
X84550000Y-78840000D01*
X84550000Y-77840000D01*
X85150000Y-77840000D01*
X85150000Y-78840000D01*
X86750000Y-78840000D01*
X87224652Y-78626238D01*
X87581370Y-78247107D01*
X87652408Y-78034182D01*
X87611895Y-77840000D01*
X85150000Y-77840000D01*
X84550000Y-77840000D01*
X84530000Y-77840000D01*
X84530000Y-77611422D01*
X84791422Y-77350000D01*
X87650000Y-77350000D01*
X87688268Y-77342388D01*
X87720711Y-77320711D01*
X87742388Y-77288268D01*
X87750000Y-77250000D01*
X87750000Y-75128037D01*
X87775468Y-75000000D01*
X87750000Y-74871963D01*
X87750000Y-72588037D01*
X87775468Y-72460000D01*
X87674573Y-71952765D01*
X87387247Y-71522753D01*
X86957235Y-71235427D01*
X86578037Y-71160000D01*
X86100000Y-71160000D01*
X86100000Y-65905577D01*
X86128037Y-65900000D01*
X88150000Y-65900000D01*
X88188268Y-65892388D01*
X88220711Y-65870711D01*
X88242388Y-65838268D01*
X88250000Y-65800000D01*
X88250000Y-60300000D01*
X88242388Y-60261732D01*
X88240000Y-60258158D01*
X88240000Y-60238105D01*
X88224431Y-60234857D01*
X88220711Y-60229289D01*
X88188268Y-60207612D01*
X88150000Y-60200000D01*
X88057360Y-60200000D01*
X88045818Y-60197592D01*
X88038600Y-60200000D01*
X86800000Y-60200000D01*
X86800000Y-57800071D01*
X88038813Y-57800071D01*
X88045818Y-57802408D01*
X88057019Y-57800071D01*
X88150000Y-57800071D01*
X88188268Y-57792459D01*
X88220711Y-57770782D01*
X88224486Y-57765132D01*
X88240000Y-57761895D01*
X88240000Y-57741913D01*
X88242388Y-57738339D01*
X88250000Y-57700071D01*
X88250000Y-54680000D01*
X88840000Y-54680000D01*
X88840000Y-54700000D01*
X88840000Y-54700000D01*
G37*
X88840000Y-54700000D02*
X88860000Y-54700000D01*
X88860000Y-55300000D01*
X88840000Y-55300000D01*
X88840000Y-57761895D01*
X89034182Y-57802408D01*
X89247107Y-57731370D01*
X89550000Y-57446383D01*
X89550000Y-57869401D01*
X89549500Y-57870608D01*
X89549500Y-58129392D01*
X89550000Y-58130599D01*
X89550000Y-58869401D01*
X89549500Y-58870608D01*
X89549500Y-59129392D01*
X89550000Y-59130599D01*
X89550000Y-59869401D01*
X89549500Y-59870608D01*
X89549500Y-60129392D01*
X89550000Y-60130599D01*
X89550000Y-60553617D01*
X89247107Y-60268630D01*
X89034182Y-60197592D01*
X88840000Y-60238105D01*
X88840000Y-62700000D01*
X88860000Y-62700000D01*
X88860000Y-63300000D01*
X88840000Y-63300000D01*
X88840000Y-65761895D01*
X89034182Y-65802408D01*
X89247107Y-65731370D01*
X89550000Y-65446383D01*
X89550000Y-103369401D01*
X89549500Y-103370608D01*
X89549500Y-103629392D01*
X89550000Y-103630599D01*
X89550000Y-104369401D01*
X89549500Y-104370608D01*
X89549500Y-104629392D01*
X89550000Y-104630599D01*
X89550000Y-105369401D01*
X89549500Y-105370608D01*
X89549500Y-105629392D01*
X89550000Y-105630599D01*
X89550000Y-106369401D01*
X89549500Y-106370608D01*
X89549500Y-106629392D01*
X89550000Y-106630599D01*
X89550000Y-107369401D01*
X89549500Y-107370608D01*
X89549500Y-107629392D01*
X89550000Y-107630599D01*
X89550000Y-108369401D01*
X89549500Y-108370608D01*
X89549500Y-108629392D01*
X89550000Y-108630599D01*
X89550000Y-165369401D01*
X89549500Y-165370608D01*
X89549500Y-165629392D01*
X89550000Y-165630599D01*
X89550000Y-166369401D01*
X89549500Y-166370608D01*
X89549500Y-166629392D01*
X89550000Y-166630599D01*
X89550000Y-167369401D01*
X89549500Y-167370608D01*
X89549500Y-167629392D01*
X89550000Y-167630599D01*
X89550000Y-168369401D01*
X89549500Y-168370608D01*
X89549500Y-168629392D01*
X89550000Y-168630599D01*
X89550000Y-169369401D01*
X89549500Y-169370608D01*
X89549500Y-169629392D01*
X89550000Y-169630599D01*
X89550000Y-170369401D01*
X89549500Y-170370608D01*
X89549500Y-170629392D01*
X89550000Y-170630599D01*
X89550000Y-211869401D01*
X89549500Y-211870608D01*
X89549500Y-212129392D01*
X89550000Y-212130599D01*
X89550000Y-212869401D01*
X89549500Y-212870608D01*
X89549500Y-213129392D01*
X89550000Y-213130599D01*
X89550000Y-213869401D01*
X89549500Y-213870608D01*
X89549500Y-214129392D01*
X89550000Y-214130599D01*
X89550000Y-214869401D01*
X89549500Y-214870608D01*
X89549500Y-215129392D01*
X89550000Y-215130599D01*
X89550000Y-215869401D01*
X89549500Y-215870608D01*
X89549500Y-216129392D01*
X89550000Y-216130599D01*
X89550000Y-216869401D01*
X89549500Y-216870608D01*
X89549500Y-217129392D01*
X89550000Y-217130599D01*
X89550000Y-258369401D01*
X89549500Y-258370608D01*
X89549500Y-258629392D01*
X89550000Y-258630599D01*
X89550000Y-259369401D01*
X89549500Y-259370608D01*
X89549500Y-259629392D01*
X89550000Y-259630599D01*
X89550000Y-260369401D01*
X89549500Y-260370608D01*
X89549500Y-260629392D01*
X89550000Y-260630599D01*
X89550000Y-261369401D01*
X89549500Y-261370608D01*
X89549500Y-261629392D01*
X89550000Y-261630599D01*
X89550000Y-262369401D01*
X89549500Y-262370608D01*
X89549500Y-262629392D01*
X89550000Y-262630599D01*
X89550000Y-263369401D01*
X89549500Y-263370608D01*
X89549500Y-263629392D01*
X89550000Y-263630599D01*
X89550000Y-320369401D01*
X89549500Y-320370608D01*
X89549500Y-320629392D01*
X89550000Y-320630599D01*
X89550000Y-321369401D01*
X89549500Y-321370608D01*
X89549500Y-321629392D01*
X89550000Y-321630599D01*
X89550000Y-322369401D01*
X89549500Y-322370608D01*
X89549500Y-322629392D01*
X89550000Y-322630599D01*
X89550000Y-323369401D01*
X89549500Y-323370608D01*
X89549500Y-323629392D01*
X89550000Y-323630599D01*
X89550000Y-324369401D01*
X89549500Y-324370608D01*
X89549500Y-324629392D01*
X89550000Y-324630599D01*
X89550000Y-325369401D01*
X89549500Y-325370608D01*
X89549500Y-325629392D01*
X89550000Y-325630599D01*
X89550000Y-364553617D01*
X89247107Y-364268630D01*
X89034182Y-364197592D01*
X88840000Y-364238105D01*
X88840000Y-366700000D01*
X88860000Y-366700000D01*
X88860000Y-367300000D01*
X88840000Y-367300000D01*
X88840000Y-369761895D01*
X89034182Y-369802408D01*
X89247107Y-369731370D01*
X89550000Y-369446383D01*
X89550000Y-369869401D01*
X89549500Y-369870608D01*
X89549500Y-370129392D01*
X89550000Y-370130599D01*
X89550000Y-370869401D01*
X89549500Y-370870608D01*
X89549500Y-371129392D01*
X89550000Y-371130599D01*
X89550000Y-371869401D01*
X89549500Y-371870608D01*
X89549500Y-372053147D01*
X89247107Y-371768630D01*
X89034182Y-371697592D01*
X88840000Y-371738105D01*
X88840000Y-374200000D01*
X88860000Y-374200000D01*
X88860000Y-374800000D01*
X88840000Y-374800000D01*
X88840000Y-374820000D01*
X88250000Y-374820000D01*
X88250000Y-371800000D01*
X88242388Y-371761732D01*
X88240000Y-371758158D01*
X88240000Y-371738105D01*
X88224431Y-371734857D01*
X88220711Y-371729289D01*
X88188268Y-371707612D01*
X88150000Y-371700000D01*
X88057360Y-371700000D01*
X88045818Y-371697592D01*
X88038600Y-371700000D01*
X86800000Y-371700000D01*
X86800000Y-369800000D01*
X88038600Y-369800000D01*
X88045818Y-369802408D01*
X88057360Y-369800000D01*
X88150000Y-369800000D01*
X88188268Y-369792388D01*
X88220711Y-369770711D01*
X88224431Y-369765143D01*
X88240000Y-369761895D01*
X88240000Y-369741842D01*
X88242388Y-369738268D01*
X88250000Y-369700000D01*
X88250000Y-364200000D01*
X88242388Y-364161732D01*
X88220711Y-364129289D01*
X88188268Y-364107612D01*
X88150000Y-364100000D01*
X86128036Y-364100000D01*
X86000000Y-364074532D01*
X85900000Y-364094423D01*
X85900000Y-357840000D01*
X86578037Y-357840000D01*
X86957235Y-357764573D01*
X87387247Y-357477247D01*
X87674573Y-357047235D01*
X87775468Y-356540000D01*
X87750000Y-356411963D01*
X87750000Y-354279841D01*
X87800000Y-354159130D01*
X87800000Y-353840870D01*
X87750000Y-353720159D01*
X87750000Y-351750000D01*
X87742388Y-351711732D01*
X87720711Y-351679289D01*
X87688268Y-351657612D01*
X87650000Y-351650000D01*
X84595663Y-351650000D01*
X84530000Y-351574235D01*
X84530000Y-351160000D01*
X84550000Y-351160000D01*
X84550000Y-350160000D01*
X85150000Y-350160000D01*
X85150000Y-351160000D01*
X87611895Y-351160000D01*
X87652408Y-350965818D01*
X87581370Y-350752893D01*
X87224652Y-350373762D01*
X86750000Y-350160000D01*
X85150000Y-350160000D01*
X84550000Y-350160000D01*
X83291580Y-350160000D01*
X83288268Y-350157612D01*
X83250000Y-350150000D01*
X82405000Y-350150000D01*
X82405000Y-326852552D01*
X83250000Y-326852552D01*
X83288347Y-326844907D01*
X83295678Y-326840000D01*
X84550000Y-326840000D01*
X84550000Y-325840000D01*
X85150000Y-325840000D01*
X85150000Y-326840000D01*
X86750000Y-326840000D01*
X87224652Y-326626238D01*
X87581370Y-326247107D01*
X87652408Y-326034182D01*
X87611895Y-325840000D01*
X85150000Y-325840000D01*
X84550000Y-325840000D01*
X84530000Y-325840000D01*
X84530000Y-325611917D01*
X84791472Y-325350000D01*
X87650000Y-325350000D01*
X87688268Y-325342388D01*
X87720711Y-325320711D01*
X87742388Y-325288268D01*
X87750000Y-325250000D01*
X87750000Y-323279841D01*
X87800000Y-323159130D01*
X87800000Y-322840870D01*
X87750000Y-322720159D01*
X87750000Y-320588037D01*
X87775468Y-320460000D01*
X87674573Y-319952765D01*
X87387247Y-319522753D01*
X86957235Y-319235427D01*
X86578037Y-319160000D01*
X85900000Y-319160000D01*
X85900000Y-295840000D01*
X86578037Y-295840000D01*
X86957235Y-295764573D01*
X87387247Y-295477247D01*
X87674573Y-295047235D01*
X87775468Y-294540000D01*
X87750000Y-294411963D01*
X87750000Y-292279841D01*
X87800000Y-292159130D01*
X87800000Y-291840870D01*
X87750000Y-291720159D01*
X87750000Y-289750000D01*
X87742388Y-289711732D01*
X87729294Y-289692134D01*
X87775468Y-289460000D01*
X87674573Y-288952765D01*
X87387247Y-288522753D01*
X86957235Y-288235427D01*
X86578037Y-288160000D01*
X83291580Y-288160000D01*
X83288268Y-288157612D01*
X83250000Y-288150000D01*
X82405000Y-288150000D01*
X82405000Y-264850000D01*
X83250000Y-264850000D01*
X83288268Y-264842388D01*
X83291842Y-264840000D01*
X84550000Y-264840000D01*
X84550000Y-263840000D01*
X85150000Y-263840000D01*
X85150000Y-264840000D01*
X86750000Y-264840000D01*
X87224652Y-264626238D01*
X87581370Y-264247107D01*
X87652408Y-264034182D01*
X87611895Y-263840000D01*
X85150000Y-263840000D01*
X84550000Y-263840000D01*
X84530000Y-263840000D01*
X84530000Y-263611422D01*
X84791422Y-263350000D01*
X87650000Y-263350000D01*
X87688268Y-263342388D01*
X87720711Y-263320711D01*
X87742388Y-263288268D01*
X87750000Y-263250000D01*
X87750000Y-261128037D01*
X87775468Y-261000000D01*
X87750000Y-260871963D01*
X87750000Y-258588037D01*
X87775468Y-258460000D01*
X87674573Y-257952765D01*
X87387247Y-257522753D01*
X86957235Y-257235427D01*
X86578037Y-257160000D01*
X85900000Y-257160000D01*
X85900000Y-233840000D01*
X86578037Y-233840000D01*
X86957235Y-233764573D01*
X87387247Y-233477247D01*
X87674573Y-233047235D01*
X87775468Y-232540000D01*
X87750000Y-232411963D01*
X87750000Y-230128037D01*
X87775468Y-230000000D01*
X87750000Y-229871963D01*
X87750000Y-227750000D01*
X87742388Y-227711732D01*
X87720711Y-227679289D01*
X87688268Y-227657612D01*
X87650000Y-227650000D01*
X84595663Y-227650000D01*
X84530000Y-227574235D01*
X84530000Y-227160000D01*
X84550000Y-227160000D01*
X84550000Y-226160000D01*
X85150000Y-226160000D01*
X85150000Y-227160000D01*
X87611895Y-227160000D01*
X87652408Y-226965818D01*
X87581370Y-226752893D01*
X87224652Y-226373762D01*
X86750000Y-226160000D01*
X85150000Y-226160000D01*
X84550000Y-226160000D01*
X83291580Y-226160000D01*
X83288268Y-226157612D01*
X83250000Y-226150000D01*
X82405000Y-226150000D01*
X82405000Y-202850000D01*
X83250000Y-202850000D01*
X83288268Y-202842388D01*
X83291842Y-202840000D01*
X84550000Y-202840000D01*
X84550000Y-201840000D01*
X85150000Y-201840000D01*
X85150000Y-202840000D01*
X86750000Y-202840000D01*
X87224652Y-202626238D01*
X87581370Y-202247107D01*
X87652408Y-202034182D01*
X87611895Y-201840000D01*
X85150000Y-201840000D01*
X84550000Y-201840000D01*
X84530000Y-201840000D01*
X84530000Y-201611422D01*
X84791422Y-201350000D01*
X87650000Y-201350000D01*
X87688268Y-201342388D01*
X87720711Y-201320711D01*
X87742388Y-201288268D01*
X87750000Y-201250000D01*
X87750000Y-199128037D01*
X87775468Y-199000000D01*
X87750000Y-198871963D01*
X87750000Y-196588037D01*
X87775468Y-196460000D01*
X87674573Y-195952765D01*
X87387247Y-195522753D01*
X86957235Y-195235427D01*
X86578037Y-195160000D01*
X85900000Y-195160000D01*
X85900000Y-171840000D01*
X86578037Y-171840000D01*
X86957235Y-171764573D01*
X87387247Y-171477247D01*
X87674573Y-171047235D01*
X87775468Y-170540000D01*
X87750000Y-170411963D01*
X87750000Y-168128037D01*
X87775468Y-168000000D01*
X87750000Y-167871963D01*
X87750000Y-165750000D01*
X87742388Y-165711732D01*
X87720711Y-165679289D01*
X87688268Y-165657612D01*
X87650000Y-165650000D01*
X84595663Y-165650000D01*
X84530000Y-165574235D01*
X84530000Y-165160000D01*
X84550000Y-165160000D01*
X84550000Y-164160000D01*
X85150000Y-164160000D01*
X85150000Y-165160000D01*
X87611895Y-165160000D01*
X87652408Y-164965818D01*
X87581370Y-164752893D01*
X87224652Y-164373762D01*
X86750000Y-164160000D01*
X85150000Y-164160000D01*
X84550000Y-164160000D01*
X83291580Y-164160000D01*
X83288268Y-164157612D01*
X83250000Y-164150000D01*
X82405000Y-164150000D01*
X82405000Y-140850000D01*
X83250000Y-140850000D01*
X83288268Y-140842388D01*
X83291842Y-140840000D01*
X84550000Y-140840000D01*
X84550000Y-139840000D01*
X85150000Y-139840000D01*
X85150000Y-140840000D01*
X86750000Y-140840000D01*
X87224652Y-140626238D01*
X87581370Y-140247107D01*
X87652408Y-140034182D01*
X87611895Y-139840000D01*
X85150000Y-139840000D01*
X84550000Y-139840000D01*
X84530000Y-139840000D01*
X84530000Y-139611422D01*
X84791422Y-139350000D01*
X87650000Y-139350000D01*
X87688268Y-139342388D01*
X87720711Y-139320711D01*
X87742388Y-139288268D01*
X87750000Y-139250000D01*
X87750000Y-137128037D01*
X87775468Y-137000000D01*
X87750000Y-136871963D01*
X87750000Y-134588037D01*
X87775468Y-134460000D01*
X87674573Y-133952765D01*
X87387247Y-133522753D01*
X86957235Y-133235427D01*
X86578037Y-133160000D01*
X85900000Y-133160000D01*
X85900000Y-109840000D01*
X86578037Y-109840000D01*
X86957235Y-109764573D01*
X87387247Y-109477247D01*
X87674573Y-109047235D01*
X87775468Y-108540000D01*
X87750000Y-108411963D01*
X87750000Y-106128037D01*
X87775468Y-106000000D01*
X87750000Y-105871963D01*
X87750000Y-103750000D01*
X87742388Y-103711732D01*
X87720711Y-103679289D01*
X87688268Y-103657612D01*
X87650000Y-103650000D01*
X84595663Y-103650000D01*
X84530000Y-103574235D01*
X84530000Y-103160000D01*
X84550000Y-103160000D01*
X84550000Y-102160000D01*
X85150000Y-102160000D01*
X85150000Y-103160000D01*
X87611895Y-103160000D01*
X87652408Y-102965818D01*
X87581370Y-102752893D01*
X87224652Y-102373762D01*
X86750000Y-102160000D01*
X85150000Y-102160000D01*
X84550000Y-102160000D01*
X83291580Y-102160000D01*
X83288268Y-102157612D01*
X83250000Y-102150000D01*
X82405000Y-102150000D01*
X82405000Y-78850000D01*
X83250000Y-78850000D01*
X83288268Y-78842388D01*
X83291842Y-78840000D01*
X84550000Y-78840000D01*
X84550000Y-77840000D01*
X85150000Y-77840000D01*
X85150000Y-78840000D01*
X86750000Y-78840000D01*
X87224652Y-78626238D01*
X87581370Y-78247107D01*
X87652408Y-78034182D01*
X87611895Y-77840000D01*
X85150000Y-77840000D01*
X84550000Y-77840000D01*
X84530000Y-77840000D01*
X84530000Y-77611422D01*
X84791422Y-77350000D01*
X87650000Y-77350000D01*
X87688268Y-77342388D01*
X87720711Y-77320711D01*
X87742388Y-77288268D01*
X87750000Y-77250000D01*
X87750000Y-75128037D01*
X87775468Y-75000000D01*
X87750000Y-74871963D01*
X87750000Y-72588037D01*
X87775468Y-72460000D01*
X87674573Y-71952765D01*
X87387247Y-71522753D01*
X86957235Y-71235427D01*
X86578037Y-71160000D01*
X86100000Y-71160000D01*
X86100000Y-65905577D01*
X86128037Y-65900000D01*
X88150000Y-65900000D01*
X88188268Y-65892388D01*
X88220711Y-65870711D01*
X88242388Y-65838268D01*
X88250000Y-65800000D01*
X88250000Y-60300000D01*
X88242388Y-60261732D01*
X88240000Y-60258158D01*
X88240000Y-60238105D01*
X88224431Y-60234857D01*
X88220711Y-60229289D01*
X88188268Y-60207612D01*
X88150000Y-60200000D01*
X88057360Y-60200000D01*
X88045818Y-60197592D01*
X88038600Y-60200000D01*
X86800000Y-60200000D01*
X86800000Y-57800071D01*
X88038813Y-57800071D01*
X88045818Y-57802408D01*
X88057019Y-57800071D01*
X88150000Y-57800071D01*
X88188268Y-57792459D01*
X88220711Y-57770782D01*
X88224486Y-57765132D01*
X88240000Y-57761895D01*
X88240000Y-57741913D01*
X88242388Y-57738339D01*
X88250000Y-57700071D01*
X88250000Y-54680000D01*
X88840000Y-54680000D01*
X88840000Y-54700000D01*
G04 #@! TO.N,Net-(J101-Pad1)*
G36*
X85170000Y-232840000D02*
X85150000Y-232840000D01*
X85150000Y-233840000D01*
X85400000Y-233840000D01*
X85400000Y-257160000D01*
X85150000Y-257160000D01*
X85150000Y-258160000D01*
X85170000Y-258160000D01*
X85170000Y-258350000D01*
X84530000Y-258350000D01*
X84530000Y-258160000D01*
X84550000Y-258160000D01*
X84550000Y-257160000D01*
X83291842Y-257160000D01*
X83288268Y-257157612D01*
X83250000Y-257150000D01*
X82405000Y-257150000D01*
X82405000Y-233850000D01*
X83250000Y-233850000D01*
X83288268Y-233842388D01*
X83291842Y-233840000D01*
X84550000Y-233840000D01*
X84550000Y-232840000D01*
X84530000Y-232840000D01*
X84530000Y-232650000D01*
X85170000Y-232650000D01*
X85170000Y-232840000D01*
X85170000Y-232840000D01*
G37*
X85170000Y-232840000D02*
X85150000Y-232840000D01*
X85150000Y-233840000D01*
X85400000Y-233840000D01*
X85400000Y-257160000D01*
X85150000Y-257160000D01*
X85150000Y-258160000D01*
X85170000Y-258160000D01*
X85170000Y-258350000D01*
X84530000Y-258350000D01*
X84530000Y-258160000D01*
X84550000Y-258160000D01*
X84550000Y-257160000D01*
X83291842Y-257160000D01*
X83288268Y-257157612D01*
X83250000Y-257150000D01*
X82405000Y-257150000D01*
X82405000Y-233850000D01*
X83250000Y-233850000D01*
X83288268Y-233842388D01*
X83291842Y-233840000D01*
X84550000Y-233840000D01*
X84550000Y-232840000D01*
X84530000Y-232840000D01*
X84530000Y-232650000D01*
X85170000Y-232650000D01*
X85170000Y-232840000D01*
G36*
X83750000Y-57700071D02*
X83757612Y-57738339D01*
X83760000Y-57741913D01*
X83760000Y-57761895D01*
X83775514Y-57765132D01*
X83779289Y-57770782D01*
X83811732Y-57792459D01*
X83850000Y-57800071D01*
X83942981Y-57800071D01*
X83954182Y-57802408D01*
X83961187Y-57800071D01*
X85200001Y-57800071D01*
X85200000Y-60200000D01*
X83961400Y-60200000D01*
X83954182Y-60197592D01*
X83942640Y-60200000D01*
X83850000Y-60200000D01*
X83811732Y-60207612D01*
X83779289Y-60229289D01*
X83775569Y-60234857D01*
X83760000Y-60238105D01*
X83760000Y-60258158D01*
X83757612Y-60261732D01*
X83750000Y-60300000D01*
X83750000Y-65800000D01*
X83757612Y-65838268D01*
X83779289Y-65870711D01*
X83811732Y-65892388D01*
X83850000Y-65900000D01*
X85400000Y-65900000D01*
X85400000Y-71160000D01*
X85150000Y-71160000D01*
X85150000Y-72160000D01*
X85170000Y-72160000D01*
X85170000Y-72350000D01*
X84530000Y-72350000D01*
X84530000Y-72160000D01*
X84550000Y-72160000D01*
X84550000Y-71160000D01*
X83291842Y-71160000D01*
X83288268Y-71157612D01*
X83250000Y-71150000D01*
X82405000Y-71150000D01*
X82405000Y-65404043D01*
X82752893Y-65731370D01*
X82965818Y-65802408D01*
X83160000Y-65761895D01*
X83160000Y-63300000D01*
X83140000Y-63300000D01*
X83140000Y-62700000D01*
X83160000Y-62700000D01*
X83160000Y-60238105D01*
X82965818Y-60197592D01*
X82752893Y-60268630D01*
X82405000Y-60595957D01*
X82405000Y-57404043D01*
X82752893Y-57731370D01*
X82965818Y-57802408D01*
X83160000Y-57761895D01*
X83160000Y-55300000D01*
X83140000Y-55300000D01*
X83140000Y-54700000D01*
X83160000Y-54700000D01*
X83160000Y-54680000D01*
X83750000Y-54680000D01*
X83750000Y-57700071D01*
X83750000Y-57700071D01*
G37*
X83750000Y-57700071D02*
X83757612Y-57738339D01*
X83760000Y-57741913D01*
X83760000Y-57761895D01*
X83775514Y-57765132D01*
X83779289Y-57770782D01*
X83811732Y-57792459D01*
X83850000Y-57800071D01*
X83942981Y-57800071D01*
X83954182Y-57802408D01*
X83961187Y-57800071D01*
X85200001Y-57800071D01*
X85200000Y-60200000D01*
X83961400Y-60200000D01*
X83954182Y-60197592D01*
X83942640Y-60200000D01*
X83850000Y-60200000D01*
X83811732Y-60207612D01*
X83779289Y-60229289D01*
X83775569Y-60234857D01*
X83760000Y-60238105D01*
X83760000Y-60258158D01*
X83757612Y-60261732D01*
X83750000Y-60300000D01*
X83750000Y-65800000D01*
X83757612Y-65838268D01*
X83779289Y-65870711D01*
X83811732Y-65892388D01*
X83850000Y-65900000D01*
X85400000Y-65900000D01*
X85400000Y-71160000D01*
X85150000Y-71160000D01*
X85150000Y-72160000D01*
X85170000Y-72160000D01*
X85170000Y-72350000D01*
X84530000Y-72350000D01*
X84530000Y-72160000D01*
X84550000Y-72160000D01*
X84550000Y-71160000D01*
X83291842Y-71160000D01*
X83288268Y-71157612D01*
X83250000Y-71150000D01*
X82405000Y-71150000D01*
X82405000Y-65404043D01*
X82752893Y-65731370D01*
X82965818Y-65802408D01*
X83160000Y-65761895D01*
X83160000Y-63300000D01*
X83140000Y-63300000D01*
X83140000Y-62700000D01*
X83160000Y-62700000D01*
X83160000Y-60238105D01*
X82965818Y-60197592D01*
X82752893Y-60268630D01*
X82405000Y-60595957D01*
X82405000Y-57404043D01*
X82752893Y-57731370D01*
X82965818Y-57802408D01*
X83160000Y-57761895D01*
X83160000Y-55300000D01*
X83140000Y-55300000D01*
X83140000Y-54700000D01*
X83160000Y-54700000D01*
X83160000Y-54680000D01*
X83750000Y-54680000D01*
X83750000Y-57700071D01*
G04 #@! TD*
M02*
