G04 #@! TF.GenerationSoftware,KiCad,Pcbnew,(5.0.1-3-g963ef8bb5)*
G04 #@! TF.CreationDate,2019-02-05T01:35:03+01:00*
G04 #@! TF.ProjectId,WordClockStripeConnector12h,576F7264436C6F636B53747269706543,V1.1*
G04 #@! TF.SameCoordinates,Original*
G04 #@! TF.FileFunction,Soldermask,Bot*
G04 #@! TF.FilePolarity,Negative*
%FSLAX46Y46*%
G04 Gerber Fmt 4.6, Leading zero omitted, Abs format (unit mm)*
G04 Created by KiCad (PCBNEW (5.0.1-3-g963ef8bb5)) date Tuesday, 05 February 2019 at 01:35:03*
%MOMM*%
%LPD*%
G01*
G04 APERTURE LIST*
%ADD10C,0.100000*%
G04 APERTURE END LIST*
D10*
G36*
X83646425Y-371962760D02*
X83646428Y-371962761D01*
X83646429Y-371962761D01*
X83825693Y-372017140D01*
X83825695Y-372017141D01*
X83990905Y-372105448D01*
X84135712Y-372224288D01*
X84254552Y-372369095D01*
X84342859Y-372534305D01*
X84397240Y-372713575D01*
X84411000Y-372853282D01*
X84411000Y-376146718D01*
X84397240Y-376286425D01*
X84342859Y-376465695D01*
X84254552Y-376630905D01*
X84135712Y-376775712D01*
X83990904Y-376894554D01*
X83825697Y-376982858D01*
X83825694Y-376982859D01*
X83825692Y-376982860D01*
X83646428Y-377037239D01*
X83646427Y-377037239D01*
X83646424Y-377037240D01*
X83460000Y-377055601D01*
X83273575Y-377037240D01*
X83273572Y-377037239D01*
X83273571Y-377037239D01*
X83094307Y-376982860D01*
X82929097Y-376894553D01*
X82929095Y-376894552D01*
X82784288Y-376775712D01*
X82665446Y-376630904D01*
X82577142Y-376465697D01*
X82522762Y-376286429D01*
X82522761Y-376286428D01*
X82522761Y-376286427D01*
X82522760Y-376286424D01*
X82509000Y-376146717D01*
X82509001Y-372853282D01*
X82522761Y-372713575D01*
X82577142Y-372534305D01*
X82665449Y-372369095D01*
X82784289Y-372224288D01*
X82929096Y-372105448D01*
X83094306Y-372017141D01*
X83094308Y-372017140D01*
X83273572Y-371962761D01*
X83273573Y-371962761D01*
X83273576Y-371962760D01*
X83460000Y-371944399D01*
X83646425Y-371962760D01*
X83646425Y-371962760D01*
G37*
G36*
X86186425Y-371962760D02*
X86186428Y-371962761D01*
X86186429Y-371962761D01*
X86365693Y-372017140D01*
X86365695Y-372017141D01*
X86530905Y-372105448D01*
X86675712Y-372224288D01*
X86794552Y-372369095D01*
X86882859Y-372534305D01*
X86937240Y-372713575D01*
X86951000Y-372853282D01*
X86951000Y-376146718D01*
X86937240Y-376286425D01*
X86882859Y-376465695D01*
X86794552Y-376630905D01*
X86675712Y-376775712D01*
X86530904Y-376894554D01*
X86365697Y-376982858D01*
X86365694Y-376982859D01*
X86365692Y-376982860D01*
X86186428Y-377037239D01*
X86186427Y-377037239D01*
X86186424Y-377037240D01*
X86000000Y-377055601D01*
X85813575Y-377037240D01*
X85813572Y-377037239D01*
X85813571Y-377037239D01*
X85634307Y-376982860D01*
X85469097Y-376894553D01*
X85469095Y-376894552D01*
X85324288Y-376775712D01*
X85205446Y-376630904D01*
X85117142Y-376465697D01*
X85062762Y-376286429D01*
X85062761Y-376286428D01*
X85062761Y-376286427D01*
X85062760Y-376286424D01*
X85049000Y-376146717D01*
X85049001Y-372853282D01*
X85062761Y-372713575D01*
X85117142Y-372534305D01*
X85205449Y-372369095D01*
X85324289Y-372224288D01*
X85469096Y-372105448D01*
X85634306Y-372017141D01*
X85634308Y-372017140D01*
X85813572Y-371962761D01*
X85813573Y-371962761D01*
X85813576Y-371962760D01*
X86000000Y-371944399D01*
X86186425Y-371962760D01*
X86186425Y-371962760D01*
G37*
G36*
X88726425Y-371962760D02*
X88726428Y-371962761D01*
X88726429Y-371962761D01*
X88905693Y-372017140D01*
X88905695Y-372017141D01*
X89070905Y-372105448D01*
X89215712Y-372224288D01*
X89334552Y-372369095D01*
X89422859Y-372534305D01*
X89477240Y-372713575D01*
X89491000Y-372853282D01*
X89491000Y-376146718D01*
X89477240Y-376286425D01*
X89422859Y-376465695D01*
X89334552Y-376630905D01*
X89215712Y-376775712D01*
X89070904Y-376894554D01*
X88905697Y-376982858D01*
X88905694Y-376982859D01*
X88905692Y-376982860D01*
X88726428Y-377037239D01*
X88726427Y-377037239D01*
X88726424Y-377037240D01*
X88540000Y-377055601D01*
X88353575Y-377037240D01*
X88353572Y-377037239D01*
X88353571Y-377037239D01*
X88174307Y-376982860D01*
X88009097Y-376894553D01*
X88009095Y-376894552D01*
X87864288Y-376775712D01*
X87745446Y-376630904D01*
X87657142Y-376465697D01*
X87602762Y-376286429D01*
X87602761Y-376286428D01*
X87602761Y-376286427D01*
X87602760Y-376286424D01*
X87589000Y-376146717D01*
X87589001Y-372853282D01*
X87602761Y-372713575D01*
X87657142Y-372534305D01*
X87745449Y-372369095D01*
X87864289Y-372224288D01*
X88009096Y-372105448D01*
X88174306Y-372017141D01*
X88174308Y-372017140D01*
X88353572Y-371962761D01*
X88353573Y-371962761D01*
X88353576Y-371962760D01*
X88540000Y-371944399D01*
X88726425Y-371962760D01*
X88726425Y-371962760D01*
G37*
G36*
X93606424Y-371962760D02*
X93606427Y-371962761D01*
X93606428Y-371962761D01*
X93785692Y-372017140D01*
X93785694Y-372017141D01*
X93785697Y-372017142D01*
X93950904Y-372105446D01*
X94095712Y-372224288D01*
X94214552Y-372369095D01*
X94302859Y-372534305D01*
X94357240Y-372713575D01*
X94371000Y-372853282D01*
X94371000Y-376146718D01*
X94357240Y-376286425D01*
X94302859Y-376465695D01*
X94214552Y-376630905D01*
X94095712Y-376775712D01*
X93950905Y-376894552D01*
X93950903Y-376894553D01*
X93785693Y-376982860D01*
X93606429Y-377037239D01*
X93606428Y-377037239D01*
X93606425Y-377037240D01*
X93420000Y-377055601D01*
X93233576Y-377037240D01*
X93233573Y-377037239D01*
X93233572Y-377037239D01*
X93054308Y-376982860D01*
X92889098Y-376894553D01*
X92889096Y-376894552D01*
X92744289Y-376775712D01*
X92625449Y-376630905D01*
X92537142Y-376465695D01*
X92482761Y-376286425D01*
X92469001Y-376146718D01*
X92469000Y-372853283D01*
X92482760Y-372713576D01*
X92482761Y-372713572D01*
X92537140Y-372534308D01*
X92537141Y-372534306D01*
X92537142Y-372534303D01*
X92625446Y-372369096D01*
X92744288Y-372224288D01*
X92889095Y-372105448D01*
X93054305Y-372017141D01*
X93054307Y-372017140D01*
X93233571Y-371962761D01*
X93233572Y-371962761D01*
X93233575Y-371962760D01*
X93420000Y-371944399D01*
X93606424Y-371962760D01*
X93606424Y-371962760D01*
G37*
G36*
X98686424Y-371962760D02*
X98686427Y-371962761D01*
X98686428Y-371962761D01*
X98865692Y-372017140D01*
X98865694Y-372017141D01*
X98865697Y-372017142D01*
X99030904Y-372105446D01*
X99175712Y-372224288D01*
X99294552Y-372369095D01*
X99382859Y-372534305D01*
X99437240Y-372713575D01*
X99451000Y-372853282D01*
X99451000Y-376146718D01*
X99437240Y-376286425D01*
X99382859Y-376465695D01*
X99294552Y-376630905D01*
X99175712Y-376775712D01*
X99030905Y-376894552D01*
X99030903Y-376894553D01*
X98865693Y-376982860D01*
X98686429Y-377037239D01*
X98686428Y-377037239D01*
X98686425Y-377037240D01*
X98500000Y-377055601D01*
X98313576Y-377037240D01*
X98313573Y-377037239D01*
X98313572Y-377037239D01*
X98134308Y-376982860D01*
X97969098Y-376894553D01*
X97969096Y-376894552D01*
X97824289Y-376775712D01*
X97705449Y-376630905D01*
X97617142Y-376465695D01*
X97562761Y-376286425D01*
X97549001Y-376146718D01*
X97549000Y-372853283D01*
X97562760Y-372713576D01*
X97562761Y-372713572D01*
X97617140Y-372534308D01*
X97617141Y-372534306D01*
X97617142Y-372534303D01*
X97705446Y-372369096D01*
X97824288Y-372224288D01*
X97969095Y-372105448D01*
X98134305Y-372017141D01*
X98134307Y-372017140D01*
X98313571Y-371962761D01*
X98313572Y-371962761D01*
X98313575Y-371962760D01*
X98500000Y-371944399D01*
X98686424Y-371962760D01*
X98686424Y-371962760D01*
G37*
G36*
X83646425Y-52462760D02*
X83646428Y-52462761D01*
X83646429Y-52462761D01*
X83825693Y-52517140D01*
X83825695Y-52517141D01*
X83990905Y-52605448D01*
X84135712Y-52724288D01*
X84254552Y-52869095D01*
X84342859Y-53034305D01*
X84397240Y-53213575D01*
X84411000Y-53353282D01*
X84411000Y-56646718D01*
X84397240Y-56786425D01*
X84342859Y-56965695D01*
X84254552Y-57130905D01*
X84135712Y-57275712D01*
X83990904Y-57394554D01*
X83825697Y-57482858D01*
X83825694Y-57482859D01*
X83825692Y-57482860D01*
X83646428Y-57537239D01*
X83646427Y-57537239D01*
X83646424Y-57537240D01*
X83460000Y-57555601D01*
X83273575Y-57537240D01*
X83273572Y-57537239D01*
X83273571Y-57537239D01*
X83094307Y-57482860D01*
X82929097Y-57394553D01*
X82929095Y-57394552D01*
X82784288Y-57275712D01*
X82665446Y-57130904D01*
X82577142Y-56965697D01*
X82522762Y-56786429D01*
X82522761Y-56786428D01*
X82522761Y-56786427D01*
X82522760Y-56786424D01*
X82509000Y-56646717D01*
X82509001Y-53353282D01*
X82522761Y-53213575D01*
X82577142Y-53034305D01*
X82665449Y-52869095D01*
X82784289Y-52724288D01*
X82929096Y-52605448D01*
X83094306Y-52517141D01*
X83094308Y-52517140D01*
X83273572Y-52462761D01*
X83273573Y-52462761D01*
X83273576Y-52462760D01*
X83460000Y-52444399D01*
X83646425Y-52462760D01*
X83646425Y-52462760D01*
G37*
G36*
X86186425Y-52462760D02*
X86186428Y-52462761D01*
X86186429Y-52462761D01*
X86365693Y-52517140D01*
X86365695Y-52517141D01*
X86530905Y-52605448D01*
X86675712Y-52724288D01*
X86794552Y-52869095D01*
X86882859Y-53034305D01*
X86937240Y-53213575D01*
X86951000Y-53353282D01*
X86951000Y-56646718D01*
X86937240Y-56786425D01*
X86882859Y-56965695D01*
X86794552Y-57130905D01*
X86675712Y-57275712D01*
X86530904Y-57394554D01*
X86365697Y-57482858D01*
X86365694Y-57482859D01*
X86365692Y-57482860D01*
X86186428Y-57537239D01*
X86186427Y-57537239D01*
X86186424Y-57537240D01*
X86000000Y-57555601D01*
X85813575Y-57537240D01*
X85813572Y-57537239D01*
X85813571Y-57537239D01*
X85634307Y-57482860D01*
X85469097Y-57394553D01*
X85469095Y-57394552D01*
X85324288Y-57275712D01*
X85205446Y-57130904D01*
X85117142Y-56965697D01*
X85062762Y-56786429D01*
X85062761Y-56786428D01*
X85062761Y-56786427D01*
X85062760Y-56786424D01*
X85049000Y-56646717D01*
X85049001Y-53353282D01*
X85062761Y-53213575D01*
X85117142Y-53034305D01*
X85205449Y-52869095D01*
X85324289Y-52724288D01*
X85469096Y-52605448D01*
X85634306Y-52517141D01*
X85634308Y-52517140D01*
X85813572Y-52462761D01*
X85813573Y-52462761D01*
X85813576Y-52462760D01*
X86000000Y-52444399D01*
X86186425Y-52462760D01*
X86186425Y-52462760D01*
G37*
G36*
X88726425Y-52462760D02*
X88726428Y-52462761D01*
X88726429Y-52462761D01*
X88905693Y-52517140D01*
X88905695Y-52517141D01*
X89070905Y-52605448D01*
X89215712Y-52724288D01*
X89334552Y-52869095D01*
X89422859Y-53034305D01*
X89477240Y-53213575D01*
X89491000Y-53353282D01*
X89491000Y-56646718D01*
X89477240Y-56786425D01*
X89422859Y-56965695D01*
X89334552Y-57130905D01*
X89215712Y-57275712D01*
X89070904Y-57394554D01*
X88905697Y-57482858D01*
X88905694Y-57482859D01*
X88905692Y-57482860D01*
X88726428Y-57537239D01*
X88726427Y-57537239D01*
X88726424Y-57537240D01*
X88540000Y-57555601D01*
X88353575Y-57537240D01*
X88353572Y-57537239D01*
X88353571Y-57537239D01*
X88174307Y-57482860D01*
X88009097Y-57394553D01*
X88009095Y-57394552D01*
X87864288Y-57275712D01*
X87745446Y-57130904D01*
X87657142Y-56965697D01*
X87602762Y-56786429D01*
X87602761Y-56786428D01*
X87602761Y-56786427D01*
X87602760Y-56786424D01*
X87589000Y-56646717D01*
X87589001Y-53353282D01*
X87602761Y-53213575D01*
X87657142Y-53034305D01*
X87745449Y-52869095D01*
X87864289Y-52724288D01*
X88009096Y-52605448D01*
X88174306Y-52517141D01*
X88174308Y-52517140D01*
X88353572Y-52462761D01*
X88353573Y-52462761D01*
X88353576Y-52462760D01*
X88540000Y-52444399D01*
X88726425Y-52462760D01*
X88726425Y-52462760D01*
G37*
G36*
X93646424Y-52462760D02*
X93646427Y-52462761D01*
X93646428Y-52462761D01*
X93825692Y-52517140D01*
X93825694Y-52517141D01*
X93825697Y-52517142D01*
X93990904Y-52605446D01*
X94135712Y-52724288D01*
X94254552Y-52869095D01*
X94342859Y-53034305D01*
X94397240Y-53213575D01*
X94411000Y-53353282D01*
X94411000Y-56646718D01*
X94397240Y-56786425D01*
X94342859Y-56965695D01*
X94254552Y-57130905D01*
X94135712Y-57275712D01*
X93990905Y-57394552D01*
X93990903Y-57394553D01*
X93825693Y-57482860D01*
X93646429Y-57537239D01*
X93646428Y-57537239D01*
X93646425Y-57537240D01*
X93460000Y-57555601D01*
X93273576Y-57537240D01*
X93273573Y-57537239D01*
X93273572Y-57537239D01*
X93094308Y-57482860D01*
X92929098Y-57394553D01*
X92929096Y-57394552D01*
X92784289Y-57275712D01*
X92665449Y-57130905D01*
X92577142Y-56965695D01*
X92522761Y-56786425D01*
X92509001Y-56646718D01*
X92509000Y-53353283D01*
X92522760Y-53213576D01*
X92522761Y-53213572D01*
X92577140Y-53034308D01*
X92577141Y-53034306D01*
X92577142Y-53034303D01*
X92665446Y-52869096D01*
X92784288Y-52724288D01*
X92929095Y-52605448D01*
X93094305Y-52517141D01*
X93094307Y-52517140D01*
X93273571Y-52462761D01*
X93273572Y-52462761D01*
X93273575Y-52462760D01*
X93460000Y-52444399D01*
X93646424Y-52462760D01*
X93646424Y-52462760D01*
G37*
G36*
X98726424Y-52462760D02*
X98726427Y-52462761D01*
X98726428Y-52462761D01*
X98905692Y-52517140D01*
X98905694Y-52517141D01*
X98905697Y-52517142D01*
X99070904Y-52605446D01*
X99215712Y-52724288D01*
X99334552Y-52869095D01*
X99422859Y-53034305D01*
X99477240Y-53213575D01*
X99491000Y-53353282D01*
X99491000Y-56646718D01*
X99477240Y-56786425D01*
X99422859Y-56965695D01*
X99334552Y-57130905D01*
X99215712Y-57275712D01*
X99070905Y-57394552D01*
X99070903Y-57394553D01*
X98905693Y-57482860D01*
X98726429Y-57537239D01*
X98726428Y-57537239D01*
X98726425Y-57537240D01*
X98540000Y-57555601D01*
X98353576Y-57537240D01*
X98353573Y-57537239D01*
X98353572Y-57537239D01*
X98174308Y-57482860D01*
X98009098Y-57394553D01*
X98009096Y-57394552D01*
X97864289Y-57275712D01*
X97745449Y-57130905D01*
X97657142Y-56965695D01*
X97602761Y-56786425D01*
X97589001Y-56646718D01*
X97589000Y-53353283D01*
X97602760Y-53213576D01*
X97602761Y-53213572D01*
X97657140Y-53034308D01*
X97657141Y-53034306D01*
X97657142Y-53034303D01*
X97745446Y-52869096D01*
X97864288Y-52724288D01*
X98009095Y-52605448D01*
X98174305Y-52517141D01*
X98174307Y-52517140D01*
X98353571Y-52462761D01*
X98353572Y-52462761D01*
X98353575Y-52462760D01*
X98540000Y-52444399D01*
X98726424Y-52462760D01*
X98726424Y-52462760D01*
G37*
M02*
