G04 #@! TF.GenerationSoftware,KiCad,Pcbnew,(5.0.1-3-g963ef8bb5)*
G04 #@! TF.CreationDate,2019-02-05T01:35:03+01:00*
G04 #@! TF.ProjectId,WordClockStripeConnector12h,576F7264436C6F636B53747269706543,V1.1*
G04 #@! TF.SameCoordinates,Original*
G04 #@! TF.FileFunction,Profile,NP*
%FSLAX46Y46*%
G04 Gerber Fmt 4.6, Leading zero omitted, Abs format (unit mm)*
G04 Created by KiCad (PCBNEW (5.0.1-3-g963ef8bb5)) date Tuesday, 05 February 2019 at 01:35:03*
%MOMM*%
%LPD*%
G01*
G04 APERTURE LIST*
%ADD10C,2.000000*%
%ADD11C,0.010000*%
G04 APERTURE END LIST*
D10*
X91000000Y-171500000D02*
X91000000Y-211000000D01*
D11*
X90000000Y-171500000D02*
X90000000Y-211000000D01*
X92000000Y-211000000D02*
X92000000Y-171500000D01*
X92000000Y-211000000D02*
G75*
G02X90000000Y-211000000I-1000000J0D01*
G01*
X90000000Y-218000000D02*
G75*
G02X92000000Y-218000000I1000000J0D01*
G01*
X90000000Y-171500000D02*
G75*
G02X92000000Y-171500000I1000000J0D01*
G01*
D10*
X91000000Y-326500000D02*
X91000000Y-369000000D01*
X91000000Y-264500000D02*
X91000000Y-319500000D01*
X91000000Y-218000000D02*
X91000000Y-257500000D01*
X91000000Y-109500000D02*
X91000000Y-164500000D01*
X91000000Y-61000000D02*
X91000000Y-102500000D01*
D11*
X92000000Y-376000000D02*
X92000000Y-377500000D01*
X90000000Y-376000000D02*
X90000000Y-377500000D01*
X92000000Y-369000000D02*
X92000000Y-326500000D01*
X90000000Y-326500000D02*
X90000000Y-369000000D01*
X92000000Y-319500000D02*
X92000000Y-264500000D01*
X90000000Y-264500000D02*
X90000000Y-319500000D01*
X92000000Y-257500000D02*
X92000000Y-218000000D01*
X90000000Y-218000000D02*
X90000000Y-257500000D01*
X92000000Y-164500000D02*
X92000000Y-109500000D01*
X90000000Y-109500000D02*
X90000000Y-164500000D01*
X92000000Y-61000000D02*
X92000000Y-102500000D01*
X90000000Y-102500000D02*
X90000000Y-61000000D01*
X92000000Y-102500000D02*
G75*
G02X90000000Y-102500000I-1000000J0D01*
G01*
X90000000Y-109500000D02*
G75*
G02X92000000Y-109500000I1000000J0D01*
G01*
X92000000Y-164500000D02*
G75*
G02X90000000Y-164500000I-1000000J0D01*
G01*
X92000000Y-257500000D02*
G75*
G02X90000000Y-257500000I-1000000J0D01*
G01*
X90000000Y-264500000D02*
G75*
G02X92000000Y-264500000I1000000J0D01*
G01*
X90000000Y-326500000D02*
G75*
G02X92000000Y-326500000I1000000J0D01*
G01*
X92000000Y-319500000D02*
G75*
G02X90000000Y-319500000I-1000000J0D01*
G01*
X92000000Y-369000000D02*
G75*
G02X90000000Y-369000000I-1000000J0D01*
G01*
X90000000Y-376000000D02*
G75*
G02X92000000Y-376000000I1000000J0D01*
G01*
X92000000Y-54000000D02*
X92000000Y-52000000D01*
X90000000Y-54000000D02*
X90000000Y-52000000D01*
X90000000Y-61000000D02*
G75*
G02X92000000Y-61000000I1000000J0D01*
G01*
X92000000Y-54000000D02*
G75*
G02X90000000Y-54000000I-1000000J0D01*
G01*
X82000000Y-52000000D02*
X82000000Y-377500000D01*
X90000000Y-52000000D02*
X82000000Y-52000000D01*
X82000000Y-377500000D02*
X90000000Y-377500000D01*
X100000000Y-52000000D02*
X100000000Y-377500000D01*
X92000000Y-52000000D02*
X100000000Y-52000000D01*
X100000000Y-377500000D02*
X92000000Y-377500000D01*
M02*
